<?xml version="1.0" standalone="no"?>
<!DOCTYPE svg PUBLIC "-//W3C//DTD SVG 1.1//EN" "http://www.w3.org/Graphics/SVG/1.1/DTD/svg11.dtd" >
<svg xmlns="http://www.w3.org/2000/svg" xmlns:xlink="http://www.w3.org/1999/xlink" version="1.1">
<metadata>
Created by FontForge 20170731 at Mon Apr 12 07:34:53 2004
 By Aleksey,,,
Copyright (c) LDO Fonts, 2004. All rights reserved.
</metadata>
<defs>
<font id="OregonLDOLight" horiz-adv-x="176" >
  <font-face 
    font-family="Oregon LDO Light"
    font-weight="300"
    font-stretch="normal"
    units-per-em="1000"
    panose-1="2 11 3 3 6 4 2 2 2 4"
    ascent="800"
    descent="-200"
    x-height="463"
    cap-height="681"
    bbox="1 -313 1047 925"
    underline-thickness="50"
    underline-position="-150"
    unicode-range="U+0020-FB02"
  />
<missing-glyph horiz-adv-x="278" 
 />
    <glyph glyph-name=".notdef" horiz-adv-x="278" 
 />
    <glyph glyph-name=".null" horiz-adv-x="0" 
 />
    <glyph glyph-name="nonmarkingreturn" horiz-adv-x="278" 
 />
    <glyph glyph-name="space" unicode=" " horiz-adv-x="278" 
 />
    <glyph glyph-name="space" unicode="&#xa0;" horiz-adv-x="278" 
 />
    <glyph glyph-name="exclam" unicode="!" horiz-adv-x="174" 
d="M96 287q-2 -28 -5 -55.5t-5 -53.5q-2 28 -5 53.5t-5 55.5q-6 64 -11 127.5t-9.5 115.5t-7 86.5t-2.5 41.5q0 23 12 31.5t28 8.5t28 -8.5t12 -31.5q0 -7 -2.5 -41.5t-7 -86.5t-9.5 -115.5t-11 -127.5zM38 36q0 20 14 34t34 14t34 -14t14 -34t-14 -34t-34 -14t-34 14
t-14 34z" />
    <glyph glyph-name="quotedbl" unicode="&#x22;" horiz-adv-x="289" 
d="M50 698h33v-276h-33v276zM204 698h33v-276h-33v276z" />
    <glyph glyph-name="numbersign" unicode="#" horiz-adv-x="442" 
d="M160 445h-74q5 13 9 31.5t6 32.5h73q13 64 19.5 97.5t9.5 48.5h14h5q-2 -5 -4 -14t-5.5 -25.5t-9 -42t-13.5 -64.5h138q14 64 20.5 97.5t9.5 48.5h13h5q-2 -5 -4 -14t-5.5 -25.5t-9 -42t-12.5 -64.5h73q-5 -14 -9 -32t-6 -32h-73l-48 -235h74q-5 -14 -9 -32t-6 -32h-73
q-3 -15 -7 -33t-6 -30q-8 -37 -11.5 -56t-6.5 -28q-2 0 -6 0.5t-6 0.5h-6q2 6 4.5 16t6.5 27t9.5 42t13.5 61h-139q-3 -15 -7 -33t-6 -30q-8 -37 -12 -56t-6 -28q-2 0 -6 0.5t-6 0.5h-6q2 6 4.5 16t6.5 27t9.5 42t13.5 61h-75q5 14 9 32t6 32h73zM315 445h-139l-49 -235h139
zM219 0q-2 -5 -3 -9t-3 -9l-10 15q2 0 4 0.5t4 0.5t8 2zM65 0q-2 -5 -3.5 -9t-3.5 -9l-9 15q2 0 3.5 0.5t3.5 0.5q1 0 9 2zM203 655q-8 2 -11 3l14 10q0 -1 -0.5 -3t-0.5 -4q-2 -2 -2 -6zM358 655q-8 2 -11 3l13 10q0 -1 -0.5 -3t-0.5 -4q-1 -2 -1 -6zM82 -11q0 2 0.5 4.5
t0.5 5.5q2 0 2.5 -0.5t1.5 -0.5t2.5 -0.5t2.5 -0.5l-10 -8v0zM236 -11q0 2 0.5 4.5t0.5 5.5q2 0 3 -0.5t2 -0.5t2.5 -0.5t2.5 -0.5l-11 -8v0z" />
    <glyph glyph-name="dollar" unicode="$" horiz-adv-x="442" 
d="M217 310q-46 18 -80 35.5t-56 39t-33 48t-11 61.5q0 72 48.5 119t131.5 57q0 20 -0.5 39t-3.5 36q7 -2 6 -1.5t6 0.5q2 0 6.5 0.5t6.5 0.5q-2 -15 -3 -34t-1 -40q33 0 58 -3.5t43 -9.5t31 -13t23 -14q-12 -25 -22 -65q-6 13 -16 28t-26 28t-38 21.5t-53 10.5v-281
q45 -17 79.5 -34t58.5 -37.5t36.5 -46t12.5 -59.5q0 -36 -12.5 -70t-36.5 -62t-58.5 -48t-79.5 -28q0 -29 0.5 -57t3.5 -52q-5 1 -13 1t-13 -1q3 22 4 49t1 58q-19 -2 -25.5 -2h-12.5q-45 0 -83 10.5t-75 38.5q8 18 11 33.5t5 35.5q19 -31 41 -50.5t45 -31t47 -15.5t47 -4
v309zM234 4q61 14 94 57t33 98q0 18 -4 35t-17 34.5t-38 36.5t-68 40v-301zM217 654q-54 -9 -87.5 -45t-33.5 -87t30.5 -85t90.5 -57v274zM366 562q0 2 1 4q1 -3 2 -5.5t2 -4.5l-9 6h4v0zM37 102q-2 2 -2.5 4.5t-2.5 5.5l9 -5h-3q0 -2 -0.5 -3t-0.5 -2z" />
    <glyph glyph-name="percent" unicode="%" horiz-adv-x="851" 
d="M21 511q0 34 11 63.5t31.5 51t49.5 33.5t64 12t63.5 -12t49 -33.5t31.5 -51t11 -63.5q0 -35 -11 -64t-31.5 -51t-49 -34t-63.5 -12t-64 12t-49.5 34t-31.5 51t-11 64zM519 144q0 34 11 63.5t31 51.5t49 34t64 12t64 -12t49.5 -34t31.5 -51.5t11 -63.5q0 -35 -11 -64
t-31.5 -50.5t-49.5 -33.5t-64 -12t-64 12t-49 33.5t-31 50.5t-11 64zM574 144q0 -30 6 -58.5t18 -50t31 -34.5t45 -13t45 13t31 34.5t18 50t6 58.5t-6 58.5t-18 50.5t-31 35t-45 13t-45 -13t-31 -35t-18 -50.5t-6 -58.5zM77 511q0 -31 6 -59.5t18 -50t31 -34.5t45 -13t45 13
t31 34.5t18 50t6 59.5q0 30 -6 58.5t-18 50t-31 34.5t-45 13t-45 -13t-31 -34.5t-18 -50t-6 -58.5zM598 692q5 -2 9 -2h9h5q-48 -93 -93.5 -183.5t-91.5 -180t-91.5 -180t-93.5 -183.5q-5 2 -9.5 2h-8.5h-6z" />
    <glyph glyph-name="ampersand" unicode="&#x26;" horiz-adv-x="641" 
d="M145 527q0 30 11 56t30.5 45.5t47 31t59.5 11.5q55 0 91 -27t36 -78q0 -27 -14 -53t-35.5 -49t-47.5 -42t-49 -33q6 -8 15 -19.5t14 -19.5q41 -52 85 -106t83 -99q38 52 68 100t55 99q12 -14 24 -23q-29 -45 -62 -90t-78 -99q28 -32 59.5 -66.5t60.5 -67.5
q-11 1 -20.5 1.5t-18.5 0.5q-11 0 -24.5 -1t-24.5 -3h-5q-10 15 -27 38.5t-42 52.5q-48 -47 -100.5 -76.5t-122.5 -29.5q-38 0 -72 10.5t-59.5 31.5t-40.5 51.5t-15 70.5q0 33 15 64.5t41 60t61 52t76 40.5q-32 47 -53 88t-21 77zM90 164q0 -30 12 -58t33.5 -49.5t51 -34.5
t65.5 -13q54 0 94.5 21.5t81.5 62.5q-51 62 -104 130.5t-100 132.5q-31 -19 -56 -38.5t-42 -42t-26.5 -50t-9.5 -61.5zM387 567q0 42 -25 69t-68 27q-45 0 -71.5 -30.5t-26.5 -76.5q0 -32 21 -77t52 -85q60 37 89 84t29 89z" />
    <glyph glyph-name="quotesingle" unicode="'" horiz-adv-x="144" 
d="M53 698h32v-276h-32v276z" />
    <glyph glyph-name="parenleft" unicode="(" horiz-adv-x="215" 
d="M182 689q-38 -50 -61.5 -98t-36 -97.5t-17 -102.5t-4.5 -112t4.5 -112t17 -102.5t36 -98t61.5 -97.5l-6 -6q-78 86 -117 194t-39 222q0 110 39 219t117 196z" />
    <glyph glyph-name="parenright" unicode=")" horiz-adv-x="215" 
d="M32 -131q38 49 61.5 97.5t36 98t17 102.5t4.5 112t-4.5 112t-17.5 102.5t-36.5 97.5t-61.5 98q2 2 3 3.5t3 2.5q78 -86 117.5 -194t39.5 -222q0 -110 -39 -219t-117 -196z" />
    <glyph glyph-name="asterisk" unicode="*" horiz-adv-x="366" 
d="M166 680q4 -1 8 -1h9h9.5t9.5 1l-18 -167q29 20 66.5 47.5t68.5 50.5q3 -9 7 -17t10 -15l-151 -69q33 -16 75 -35t77 -35q-14 -15 -19 -32l-135 94q2 -18 4.5 -38.5t5 -42.5t5 -43t4.5 -40q-5 1 -9 1h-10q-10 0 -15 -1l12 164q-29 -20 -64.5 -46.5t-66.5 -48.5
q-6 18 -18 32l150 70q-33 14 -76 33.5t-78 36.5q5 6 10.5 15t8.5 17l134 -98z" />
    <glyph glyph-name="plus" unicode="+" horiz-adv-x="512" 
d="M6 267h234v233h32v-233h234v-33h-234v-234h-32v234h-234v33z" />
    <glyph glyph-name="comma" unicode="," 
d="M99 64q3 11 11.5 21.5t23.5 10.5q10 0 19 -5.5t9 -19.5q0 -9 -3.5 -18t-8.5 -17l1 1l-2 -2q-1 -1 -1 -2q-32 -53 -63 -105.5t-62 -105.5h-1zM151 37q0 1 1 2z" />
    <glyph glyph-name="hyphen" unicode="-" horiz-adv-x="336" 
d="M50 249h235v-43h-235v43z" />
    <glyph glyph-name="period" unicode="." 
d="M39 36q0 20 14 34t34 14t34 -14t14 -34t-14 -34t-34 -14t-34 14t-14 34z" />
    <glyph glyph-name="slash" unicode="/" horiz-adv-x="334" 
d="M288 701q12 -3 21 -3q6 0 10 1q-70 -185 -136.5 -361t-136.5 -360q-12 3 -21 3q-6 0 -10 -1z" />
    <glyph glyph-name="zero" unicode="0" horiz-adv-x="534" 
d="M36 327q0 71 12 133.5t39 109.5t71 74t109 27q71 0 116 -27t70.5 -74t35 -109.5t9.5 -133.5q0 -68 -13.5 -130.5t-42 -109.5t-72 -75t-103.5 -28q-71 0 -116 27t-70.5 74t-35 109t-9.5 133zM100 327q0 -71 8.5 -131.5t28 -104.5t51.5 -69.5t79 -25.5t79 25.5t51.5 69.5
t28 104.5t8.5 131.5t-8.5 131.5t-28 105t-51.5 70t-79 25.5t-79 -23.5t-51.5 -67t-28 -105t-8.5 -136.5z" />
    <glyph glyph-name="one" unicode="1" horiz-adv-x="278" 
d="M160 633q-29 -17 -64 -35.5t-66 -35.5q-11 14 -21 23q68 28 124.5 52.5t93.5 43.5q-3 -65 -5 -130t-2 -130v-172q0 -60 2 -125.5t5 -125.5q-8 2 -17.5 2h-19.5h-19.5t-17.5 -2q5 66 6 125.5t1 125.5v384zM231 684q-2 -3 -4 -3q0 3 0.5 5.5t0.5 4.5l6 -11l-3 4v0zM9 585
q-4 -2 -5 -2l3 3q0 -1 2 -1z" />
    <glyph glyph-name="two" unicode="2" horiz-adv-x="480" 
d="M237 654q-32 0 -56 -10.5t-40.5 -26t-27 -34.5t-14.5 -35l-24 32q31 45 74.5 68t101.5 23q38 0 72 -10t59.5 -31t40 -53.5t14.5 -77.5q0 -34 -8 -63t-23.5 -57t-39.5 -56.5t-56 -61.5q-7 -7 -14.5 -15t-16.5 -16q-38 -40 -83.5 -86.5t-85.5 -101.5h118q67 0 121.5 2
t96.5 5q-1 -5 -1.5 -13t-0.5 -13v-14t2 -13q-55 2 -103.5 3t-103.5 1q-54 0 -105.5 -1t-105.5 -3q72 71 125 125.5t90 97.5t60.5 78t36.5 67t18 63t5 67q0 41 -10.5 71t-27.5 50t-40 29.5t-48 9.5zM104 540q1 0 1 0.5t1 0.5l-10 -8q0 6 3 15l5 -8v0zM25 -7l3 7v-4z" />
    <glyph glyph-name="three" unicode="3" horiz-adv-x="459" 
d="M203 659q-41 0 -73 -22.5t-46 -53.5l-16 34q21 19 54.5 36.5t84.5 17.5q39 0 73 -8.5t59.5 -26t40 -44.5t14.5 -64q0 -35 -13.5 -63t-33.5 -48t-45 -33t-47 -19v-23q26 -2 56 -9t56 -24.5t43 -46t17 -71.5q0 -44 -18 -82t-51.5 -66t-80 -43.5t-103.5 -15.5q-47 0 -82 9
t-61 20q2 9 5 22t5 26q20 -22 54.5 -43.5t81.5 -21.5q40 0 73 13.5t55.5 37.5t35 57.5t12.5 73.5q0 45 -11.5 76.5t-32 51t-49.5 28t-63 8.5q-19 0 -34 -3q1 5 0.5 4t-0.5 4v9q9 -2 16 -2h18q39 0 64 16t39 41t19 54.5t5 56.5q0 36 -10.5 62t-27.5 42.5t-39 24.5t-44 8z
M88 576l-9 -7l2 6t3 8l3 -7h1zM35 67l7 -1q0 -4 -1 -5z" />
    <glyph glyph-name="four" unicode="4" horiz-adv-x="508" 
d="M6 189q45 63 93 130.5t92.5 130.5t82.5 118.5t63 94.5q7 -2 15 -2.5t16 -0.5q6 0 11 0.5t10 1.5q-2 -45 -3.5 -98.5t-2 -110.5t-0.5 -115.5v-113.5q29 0 54 1.5t43 4.5q-1 -6 -1 -11v-10v-10t1 -11q-18 2 -43.5 2.5t-53.5 0.5v-53q0 -33 1.5 -71.5t3.5 -66.5v-2
q-8 2 -16 2h-18h-17.5t-16.5 -2q2 29 4.5 65t2.5 75v53q-23 0 -66.5 -1t-92.5 -2t-93.5 -2t-68.5 -2v5zM327 611q-26 -34 -63.5 -86.5t-76.5 -108.5t-74 -108t-54 -84h268v387z" />
    <glyph glyph-name="five" unicode="5" horiz-adv-x="461" 
d="M117 357q27 14 54.5 24t71.5 10q43 0 78 -14.5t59.5 -39.5t37.5 -58.5t13 -70.5q0 -47 -18 -87.5t-50.5 -71t-78 -48t-99.5 -17.5q-44 0 -83.5 7.5t-71.5 28.5v1q4 9 7.5 19t5.5 21q24 -32 64.5 -48.5t81.5 -16.5q32 0 62.5 12t54 37t37.5 63t14 89q0 46 -13 78.5
t-35 53.5t-49.5 30.5t-57.5 9.5q-38 0 -65 -12t-41 -20q6 38 7.5 81.5t1.5 86.5q0 42 -1.5 86t-5.5 79q8 -2 21.5 -3t33.5 -2q45 -3 126 -3h80.5t55.5 1q-2 -12 -3 -24.5t-1 -26.5v-5q-25 4 -63 6t-78 3.5t-77 2t-61 0.5zM46 81q-1 -5 -1.5 -10t-1.5 -10q-2 3 -4 5.5t-4 5.5
l11 9v0zM420 664q-2 0 -2.5 -0.5t-2.5 -0.5q1 2 1.5 5t1.5 5l3 -10l-1 1v0zM96 337q0 -2 -0.5 -4t-0.5 -4l-4 11q2 -2 2.5 -1.5t2.5 -1.5zM98 670q-3 0 -4 1l8 2l-4 -2v-1v0z" />
    <glyph glyph-name="six" unicode="6" horiz-adv-x="491" 
d="M371 655q-15 4 -42 4q-41 0 -74.5 -19.5t-59 -51.5t-44 -73t-30.5 -85t-17.5 -87t-5.5 -78q13 21 30.5 43t39.5 40t48.5 29.5t59.5 11.5q25 0 58.5 -7.5t63 -28t50 -56t20.5 -91.5q0 -50 -15.5 -90.5t-44 -70t-68.5 -45.5t-90 -16q-42 0 -81 15.5t-69 49.5t-48 88.5
t-18 132.5q0 84 19 157.5t56.5 128t92.5 85.5t127 30q13 0 21.5 -0.5t14.5 -1.5zM398 184q0 41 -8.5 75.5t-26 59.5t-44 39t-62.5 14q-32 0 -60 -14t-48.5 -39t-32.5 -59.5t-12 -75.5q0 -42 11 -76.5t31 -59t46.5 -38.5t58.5 -14q35 0 62.5 14t46 38.5t28.5 59t10 76.5z
M371 655q5 -1 8 -1.5t7 -1.5l-6 -2l-1 -9z" />
    <glyph glyph-name="seven" unicode="7" horiz-adv-x="464" 
d="M457 653q-92 -157 -185.5 -323.5t-178.5 -332.5q-15 3 -33 3q-12 0 -17 -1q48 78 100.5 164.5t101.5 168.5t91 153.5t69 118.5q-45 0 -140.5 -0.5t-224.5 -8.5q2 9 2 17.5v17.5v17t-2 17q42 -3 70 -4.5t57 -2.5q16 0 40.5 -0.5t51.5 -1t54 -0.5h48q17 0 30.5 0.5
t27.5 0.5h38v-3z" />
    <glyph glyph-name="eight" unicode="8" horiz-adv-x="505" 
d="M33 174q0 30 8.5 58t26.5 52t46 44t68 33v23q-19 4 -39 15.5t-36.5 28.5t-27 39.5t-10.5 50.5q0 30 13 58t37 49t57.5 33.5t75.5 12.5q48 0 83.5 -12t58 -31.5t33.5 -45t11 -52.5q0 -45 -29 -85t-86 -58v-25q18 -3 43 -12.5t48.5 -28.5t40 -49t16.5 -74
q0 -49 -17.5 -88.5t-47 -67.5t-69.5 -43t-85 -15q-47 0 -87 12.5t-69 36.5t-46 59.5t-17 81.5zM401 179q0 40 -10.5 73.5t-29.5 58t-47 38t-62 13.5q-35 0 -62.5 -13.5t-46.5 -38t-29.5 -58t-10.5 -73.5t10.5 -73.5t29.5 -58t46.5 -38t62.5 -13.5q34 0 62 13.5t47 38
t29.5 58t10.5 73.5zM374 517q0 28 -7 54t-21.5 45.5t-37.5 31t-55 11.5t-54.5 -11.5t-37 -31t-21.5 -45.5t-7 -54q0 -29 7 -54.5t21.5 -45t37 -31t54.5 -11.5t55 11.5t37.5 31t21.5 45t7 54.5z" />
    <glyph glyph-name="nine" unicode="9" horiz-adv-x="498" 
d="M100 -5q-2 6 -4 13t-4 15q37 -27 85 -27q58 0 99.5 35.5t67.5 92t38.5 127t12.5 140.5q-33 -55 -77 -89.5t-102 -34.5q-88 0 -138.5 50.5t-50.5 143.5q0 45 15.5 83.5t44 66.5t68.5 44t90 16q44 0 84 -15.5t70 -49.5t48 -88.5t18 -132.5q0 -83 -20 -156t-57.5 -127.5
t-92 -86t-123.5 -31.5q-23 0 -42 3.5t-30 7.5zM391 488q0 38 -10.5 69.5t-30 54t-46.5 35t-60 12.5t-60 -14t-46.5 -39.5t-30 -62.5t-10.5 -82q0 -93 36.5 -135t100.5 -42q38 0 67 17t49 45.5t30.5 65.5t10.5 76zM77 39l2 11q2 -6 5.5 -12.5t7.5 -14.5q-14 7 -24 18z" />
    <glyph glyph-name="colon" unicode=":" horiz-adv-x="185" 
d="M43 413q0 20 14 34t34 14t34 -14t14 -34t-14 -34.5t-34 -14.5t-34 14.5t-14 34.5zM43 36q0 20 14 34t34 14t34 -14t14 -34t-14 -34t-34 -14t-34 14t-14 34z" />
    <glyph glyph-name="semicolon" unicode=";" horiz-adv-x="192" 
d="M103 64q3 11 11 21.5t24 10.5q9 0 18.5 -5.5t9.5 -19.5q0 -9 -3.5 -18t-8.5 -17l1 1l-4 -4q-31 -53 -62 -105.5t-62 -105.5h-1zM77 413q0 20 14.5 34t34.5 14t34 -14t14 -34t-14 -34.5t-34 -14.5t-34.5 14.5t-14.5 34.5zM155 37q0 1 1 2z" />
    <glyph glyph-name="less" unicode="&#x3c;" horiz-adv-x="549" 
d="M5 272q126 58 250.5 116.5t249.5 116.5v-31l-487 -224q118 -54 243.5 -112t243.5 -112v-31q-129 61 -250 118t-250 118v41z" />
    <glyph glyph-name="equal" unicode="=" horiz-adv-x="559" 
d="M546 334h-500v32h500v-32zM546 134h-500v33h500v-33z" />
    <glyph glyph-name="greater" unicode="&#x3e;" horiz-adv-x="548" 
d="M43 27l487 223q-117 54 -243.5 112t-243.5 112v31q129 -61 250 -118t250 -117v-41q-126 -59 -250.5 -117.5t-249.5 -116.5v32z" />
    <glyph glyph-name="question" unicode="?" horiz-adv-x="286" 
d="M28 669q18 11 41 20t53 9q35 0 61.5 -10t44.5 -27.5t27 -40.5t9 -48q0 -28 -8.5 -52t-22.5 -45t-31.5 -40.5t-35.5 -37.5q-34 -33 -59.5 -66t-25.5 -73q0 -12 4 -24.5t12 -23t20 -17t28 -6.5q6 0 11.5 0.5t10.5 1.5q-2 -6 -2 -8q-5 -1 -12 -1.5t-15 -0.5q-12 0 -29 5.5
t-32.5 17.5t-27 32t-11.5 49q0 25 8 47t21 41.5t29.5 37t33.5 34.5q16 16 31.5 32.5t27.5 33.5t19 36t7 41t-8.5 39.5t-22.5 29.5t-32 18.5t-36 6.5q-25 0 -47 -9.5t-39 -26.5zM73 36q0 20 14 34t34 14t34.5 -14t14.5 -34t-14.5 -34t-34.5 -14t-34 14t-14 34zM180 195
q-2 -2 -5.5 -3t-7.5 -3q4 12 11 20l4 -15q-1 0 -2 1z" />
    <glyph glyph-name="at" unicode="@" horiz-adv-x="685" 
d="M461 517h31q-19 -91 -29.5 -144t-16 -82t-6.5 -40t-1 -18q0 -22 12 -34.5t32 -12.5q22 0 47.5 16t47 44t35.5 66t14 83q0 53 -12.5 97.5t-42 77t-78.5 50.5t-123 18q-65 0 -119 -26t-94 -71t-62 -106t-22 -131q0 -64 20 -112.5t56 -80.5t85 -48.5t107 -16.5
q69 0 125 22.5t96 50.5q-1 -5 -1 -5.5v-1.5q-14 -12 -36.5 -26.5t-53.5 -27t-70 -21t-85 -8.5q-48 0 -98.5 18.5t-92.5 57t-68.5 96.5t-26.5 137q0 59 24 115t69 100t108.5 71t142.5 27q81 0 135 -20.5t86 -53.5t45.5 -75.5t13.5 -85.5q0 -53 -17.5 -97t-44.5 -75.5
t-60.5 -48.5t-64.5 -17q-37 0 -47 25.5t-10 70.5q-12 -18 -27 -35t-31 -30.5t-33 -22t-35 -8.5q-101 0 -101 128q0 48 14 89t37.5 70t55 45.5t67.5 16.5q28 0 48 -14t23 -46l20 -1zM432 427q0 38 -14.5 63t-59.5 25q-32 0 -56 -21t-40.5 -53t-25 -69t-8.5 -70
q0 -53 14.5 -79.5t58.5 -26.5q33 0 57.5 25.5t41 62t24.5 76t8 67.5z" />
    <glyph glyph-name="A" unicode="A" horiz-adv-x="662" 
d="M339 698q18 -43 37 -86.5t39 -94.5q32 -76 64.5 -153t62.5 -146.5t55 -126.5t42 -93q-8 1 -18 1.5t-19 0.5q-14 0 -24.5 -0.5t-22.5 -2.5q-11 38 -33.5 93.5t-45.5 112.5q-6 16 -13.5 34.5t-14.5 33.5q-33 1 -70 1.5t-72 0.5q-32 0 -66 -0.5t-66 -1.5q-33 -81 -60 -153
t-41 -121q-15 3 -30 3h-11t-10 -1q41 90 80 176.5t77.5 172.5t76.5 173t77 177h6zM312 595l-127 -298h14t19 -0.5t20 -0.5h17q14 -1 28 -1h28q29 0 65.5 0.5t65.5 1.5z" />
    <glyph glyph-name="B" unicode="B" horiz-adv-x="520" 
d="M54 429q0 64 -2 128t-5 127q27 -3 49 -4t49 -1q13 0 27 0.5t28 1.5t27 2.5t27 1.5q42 0 79.5 -6.5t66 -22t45 -42.5t16.5 -67q0 -72 -46.5 -113.5t-121.5 -57.5l1 -20q44 -3 79.5 -13.5t60 -30.5t38 -49.5t13.5 -71.5q0 -54 -23 -91.5t-59 -61t-80.5 -33.5t-87.5 -10
q-12 0 -24.5 0.5t-24.5 1.5q-13 1 -25.5 2t-25.5 1q-23 0 -44 -1t-44 -3q3 67 5 128.5t2 127.5v177zM118 236q0 -35 1 -69.5t3 -69.5q1 -17 1 -39t1 -39q23 -4 52.5 -5.5t58.5 -1.5q35 0 67 12t56 35.5t38.5 58t14.5 78.5q0 47 -17 77t-48 47.5t-74.5 24t-97.5 6.5h-56v-115
zM184 369q38 0 75 7.5t66.5 25.5t47.5 48.5t18 76.5q0 45 -16 72.5t-42 42.5t-58 20t-63 5q-29 0 -49.5 -1.5t-38.5 -4.5q-1 -17 -1 -37.5t-1 -36.5q-2 -32 -3 -65.5t-1 -65.5v-87h66z" />
    <glyph glyph-name="C" unicode="C" horiz-adv-x="655" 
d="M405 -1q34 0 63.5 7.5t54.5 18.5t45.5 24t36.5 25l-5 -39q-11 -8 -31 -17.5t-47 -17.5t-59 -13.5t-68 -5.5q-79 0 -146 24t-115.5 70t-76 112.5t-27.5 152.5q0 85 27.5 151.5t77 112.5t118.5 70t152 24q62 0 115.5 -12t93.5 -29q-6 -14 -9 -30.5t-6 -32.5q-13 13 -32 28
t-43.5 28t-54.5 21.5t-64 8.5q-63 0 -116.5 -20t-93.5 -62t-62.5 -106t-22.5 -152q0 -89 22.5 -153t62.5 -106t93.5 -62t116.5 -20zM609 87l11 -1q-4 -3 -7 -6t-8 -6l2 12v1l1 6zM598 587q0 2 0.5 3.5t0.5 3.5q2 -1 2.5 -2t2.5 -2q1 1 3 1l-10 -10q0 1 0.5 3t0.5 3z" />
    <glyph glyph-name="D" unicode="D" horiz-adv-x="706" 
d="M52 428q0 64 -2 128t-5 128q38 -3 72 -4t72 -1q20 0 39 0.5t38 1.5q20 1 39.5 2.5t39.5 1.5q87 0 149.5 -23t102.5 -65.5t58.5 -104t18.5 -138.5q0 -101 -34.5 -169.5t-88 -110.5t-118 -60.5t-123.5 -18.5q-18 0 -35 0.5t-34 1.5t-34.5 2t-34.5 1q-32 0 -63.5 -1
t-63.5 -3q3 66 5 127.5t2 127.5v177zM116 251q0 -55 1.5 -113.5t4.5 -112.5q26 -6 65.5 -9.5t79.5 -3.5q59 0 117.5 14t105 52t75.5 104.5t29 171.5q0 93 -22.5 152.5t-63 94t-96 48t-121.5 13.5q-48 0 -91 -3.5t-78 -7.5q-3 -50 -4.5 -108.5t-1.5 -114.5v-177z" />
    <glyph glyph-name="E" unicode="E" horiz-adv-x="416" 
d="M55 429q0 64 -2 128t-5 127q47 -3 86.5 -4t86.5 -1q40 0 85.5 1.5t85.5 3.5q-1 -5 -1 -10v-10v-10t1 -10q-15 1 -21.5 1.5t-18.5 1.5q-23 2 -45.5 4t-49 3.5t-59 2t-75.5 0.5q0 -14 -0.5 -30.5t-1.5 -29.5q-1 -19 -1.5 -38.5t-0.5 -42.5q0 -24 0.5 -47.5t0.5 -43.5v-55
q46 0 82.5 0.5t66 2t54 3t45.5 3.5q-1 -5 -1 -10.5v-10.5v-9.5t1 -9.5q-27 2 -62 3.5t-70 2.5t-66 1.5t-50 0.5q0 -9 -0.5 -21.5t-0.5 -31v-44.5v-63q0 -59 0.5 -102t1.5 -62h73t74.5 1t70 3t58.5 6q-1 -5 -1 -9.5v-9.5v-9t1 -9q-46 2 -85.5 3t-87.5 1q-45 0 -88 -1t-88 -3
q3 67 5 128.5t2 127.5v177z" />
    <glyph glyph-name="F" unicode="F" horiz-adv-x="413" 
d="M55 428q0 64 -2 128t-5 128q47 -3 86.5 -4t86.5 -1q43 0 88 1t96 4q-1 -5 -1 -10v-10v-9.5t1 -9.5q-28 3 -66.5 5t-78.5 3.5t-77.5 2.5t-62.5 1v-25q-1 -32 -1.5 -61.5t-0.5 -58.5q0 -19 0.5 -35.5t0.5 -32.5v-72q66 0 133.5 1.5t128.5 6.5q-1 -5 -1 -9v-10v-9t1 -9
q-26 2 -58 3.5t-67 2t-70 0.5h-67v-98q0 -65 2 -126.5t5 -126.5q-9 2 -19 2h-20h-20t-19 -2q3 66 5 126.5t2 126.5v177z" />
    <glyph glyph-name="G" unicode="G" horiz-adv-x="713" 
d="M670 644q-6 -13 -10.5 -30.5t-7.5 -31.5q-17 19 -40 36.5t-52.5 31t-64 22t-73.5 8.5q-66 0 -123 -20t-99 -62t-66 -106t-24 -152q0 -78 21.5 -140.5t62.5 -106t99.5 -66.5t133.5 -23q23 0 47.5 2.5t48 7t44 11.5t35.5 16q1 31 1.5 65t0.5 66q0 28 -1 59t-3 57v12
q9 -2 18.5 -2.5t19.5 -0.5t17.5 0.5t15.5 2.5q-2 -23 -2.5 -68t-0.5 -128v-41q0 -9 0.5 -18.5t0.5 -17.5q-23 -8 -54.5 -16t-65.5 -15t-68.5 -11t-63.5 -4q-90 0 -161.5 23t-121.5 68.5t-77 112.5t-27 155q0 85 28 151.5t79 112.5t123.5 70t161.5 24q97 0 155 -17.5
t93 -36.5zM652 582l2 -2h-2v2z" />
    <glyph glyph-name="H" unicode="H" horiz-adv-x="683" 
d="M566 428q0 66 -2 127t-5 126q10 -2 19.5 -2h19.5h20.5t18.5 2q-3 -66 -5 -126t-2 -127v-177q0 -65 2 -126.5t5 -126.5q-9 2 -18.5 2h-20.5h-19.5t-19.5 -2q3 66 5 126.5t2 126.5v103q-54 1 -112.5 1.5t-112.5 0.5t-112.5 -0.5t-112.5 -1.5v-103q0 -65 2 -126.5t5 -126.5
q-10 2 -19.5 2h-19.5h-20.5t-18.5 -2q3 66 5 126.5t2 126.5v177q0 66 -2 127t-5 126q9 -2 18.5 -2h20.5h19.5t19.5 2q-3 -66 -5 -126t-2 -127v-46h17t22.5 -0.5t23 -0.5h19.5q35 -1 71 -1.5t72 -0.5q33 0 72 0.5t71 1.5q18 0 41.5 0.5t40.5 0.5v46z" />
    <glyph glyph-name="I" unicode="I" horiz-adv-x="181" 
d="M57 428q0 66 -2 127t-5 126q9 -2 19 -2h20h20t19 2q-3 -66 -5 -126t-2 -127v-177q0 -65 2 -126.5t5 -126.5q-9 2 -19 2h-20h-20t-19 -2q3 66 5 126.5t2 126.5v177z" />
    <glyph glyph-name="J" unicode="J" horiz-adv-x="286" 
d="M42 -275q43 3 68 25.5t38.5 59.5t17.5 88t4 111l5 419q0 66 -2 127t-5 126q9 -2 18.5 -2h20.5h20t19 2q-3 -66 -5 -126t-2 -127v-56v-68t-0.5 -75t-0.5 -78q0 -69 -0.5 -129.5t-0.5 -95.5q0 -43 -13.5 -81t-38.5 -66.5t-60.5 -45t-80.5 -17.5z" />
    <glyph glyph-name="K" unicode="K" horiz-adv-x="581" 
d="M85 0q-19 0 -40 -3q3 63 5.5 127t2.5 127v177q0 66 -2 127t-5 126q10 -2 19.5 -2h19.5h20.5t18.5 2q-3 -66 -5 -126t-2 -127v-56q0 -15 7 -18q-7 -4 -7 -13v-90q0 -65 2 -126.5t5 -126.5q-9 2 -18.5 2h-20.5zM152 346q-3 3 -5.5 4.5t-4.5 3.5q2 1 12 9q36 31 74.5 69.5
t78.5 80.5t79.5 85t75.5 84q8 -2 18.5 -2.5t19.5 -0.5q5 0 8 -0.5t8 0.5q-36 -32 -79 -72t-85 -81.5t-80.5 -81t-65.5 -70.5l87.5 -100t89.5 -103q38 -44 75 -85.5t76 -86.5q-8 1 -17.5 1h-17.5q-13 0 -26 -1t-26 -3q-37 45 -81 99t-86 104.5t-76.5 90t-51.5 56.5zM33 -5
q4 0 12 2v-12l-12 10v0zM134 353q-7 0 -10 1q4 3 9 3q4 0 9 -3q-3 -1 -8 -1z" />
    <glyph glyph-name="L" unicode="L" horiz-adv-x="411" 
d="M55 428q0 66 -2 127t-5 126q9 -2 19 -2h20h20t19 2q-3 -66 -5 -126t-2 -127q0 -92 0.5 -177t1.5 -146q0 -20 0.5 -42.5t0.5 -39.5q73 0 140.5 1.5t139.5 9.5q-1 -5 -1 -9.5v-9.5v-9.5t1 -9.5q-48 2 -87.5 3t-87.5 1q-45 0 -89.5 -1t-89.5 -3q3 66 5 127.5t2 127.5v177z
" />
    <glyph glyph-name="M" unicode="M" horiz-adv-x="863" 
d="M134 698q70 -146 146 -290t155 -290q7 14 21.5 41.5t33.5 62t40 74t42 77.5q22 40 44.5 82t44.5 83t43 81t41 76q8 -66 15 -129t14 -124q13 -116 25 -224t27 -220q-8 2 -17 2h-19q-21 0 -39 -3q-11 139 -24 279t-29 273l-49 -84q-62 -113 -121 -225t-116 -240
q-39 82 -80.5 169.5t-84.5 172.5q-12 22 -26 49t-28 55t-28 55t-25 50q-9 -66 -18 -143.5t-17.5 -153t-14 -143t-6.5 -113.5q-6 2 -12 2h-14q-6 0 -11.5 -0.5t-10.5 -1.5q13 84 26.5 173.5t26 179.5t23.5 178t19 169h3zM745 695q0 3 -0.5 6t-0.5 6l10 -9h-7q-1 -1 -1 -1.5
t-1 -1.5zM412 0q0 -2 3 -3l-3 3v0z" />
    <glyph glyph-name="N" unicode="N" horiz-adv-x="677" 
d="M619 350q0 -37 0.5 -90t1 -106.5t1 -100.5t0.5 -71q-53 62 -111 127t-118.5 130.5t-122 131.5t-121.5 130l-61 65v-38q-1 -29 -2 -75.5t-1 -121.5q0 -31 0.5 -78.5t1.5 -96.5t2.5 -92.5t3.5 -65.5q-5 1 -11.5 1.5t-13.5 0.5q-6 0 -13 -0.5t-12 -1.5q3 27 6.5 80.5
t6 116.5t4.5 126.5t2 110.5v154.5t-2 111.5h1q10 -11 20 -22.5t21 -22.5q61 -66 129.5 -140.5t135.5 -145.5t126.5 -134t102.5 -106v140t-1 145.5t-2 141t-4 127.5q5 -1 12 -1.5t12 -0.5q6 0 11 0.5t10 1.5q-2 -28 -5 -72.5t-5 -92.5t-3.5 -93t-1.5 -73zM622 -18l1 -1h-1v1z
" />
    <glyph glyph-name="O" unicode="O" horiz-adv-x="811" 
d="M30 340q0 85 27.5 151.5t77.5 112.5t118.5 70t151.5 24t152 -24t119 -70t77.5 -112.5t27.5 -151.5q0 -86 -27.5 -152.5t-77.5 -112.5t-119 -70t-152 -24t-151.5 24t-118.5 70t-77.5 112.5t-27.5 152.5zM700 340q0 88 -22.5 152t-62 106t-93.5 62t-117 20t-116.5 -20
t-93 -62t-62 -106t-22.5 -152q0 -89 22.5 -153t62 -106t93 -62t116.5 -20t117 20t93.5 62t62 106t22.5 153z" />
    <glyph glyph-name="P" unicode="P" horiz-adv-x="489" 
d="M54 428q0 64 -2 128t-5 128q25 -3 44 -4t44 -1q14 0 32 1l36 2q18 2 33.5 2.5t26.5 0.5q22 0 58.5 -3t71 -18.5t60 -49t25.5 -93.5q0 -43 -13 -75t-35 -55t-50 -38t-57.5 -23.5t-58.5 -11.5t-52 -3t-48.5 1t-45.5 3v-68q0 -65 2 -126.5t5 -126.5q-9 2 -19 2h-20h-20
t-19 -2q3 66 5 126.5t2 126.5v177zM118 343q20 -5 43 -8t40 -3q33 0 69 7.5t66 28t49 56t19 91.5q0 47 -13 76.5t-36.5 46.5t-57.5 23t-76 6h-103v-324z" />
    <glyph glyph-name="Q" unicode="Q" horiz-adv-x="830" 
d="M12 340q0 85 27.5 151.5t77 112.5t118.5 70t152 24t152 -24t118.5 -70t77 -112.5t27.5 -151.5q0 -71 -20 -128.5t-57.5 -102t-90 -75t-116.5 -45.5q26 -21 65 -51.5t82.5 -63.5t86 -65t75.5 -56q-17 -5 -31.5 -14t-22.5 -19q-29 26 -69.5 60.5t-84 70.5t-85.5 70.5
t-74 60.5q-8 -1 -16 -1h-17q-83 0 -152 24t-118.5 70t-77 112.5t-27.5 152.5zM682 340q0 88 -22.5 152t-62.5 106t-93.5 62t-116.5 20t-116.5 -20t-93.5 -62t-62.5 -106t-22.5 -152q0 -89 22.5 -153t62.5 -106t93.5 -62t116.5 -20t116.5 20t93.5 62t62.5 106t22.5 153z" />
    <glyph glyph-name="R" unicode="R" horiz-adv-x="571" 
d="M53 428q0 64 -2 128t-5 128q27 -3 53 -4t53 -1q15 0 30 0.5t30 1.5q14 1 28.5 2.5t28.5 1.5q42 0 79 -8t65 -26t44 -47t16 -72q0 -47 -23 -81t-56.5 -56.5t-72 -34.5t-68.5 -16q10 -13 32 -40.5t42 -53.5q24 -30 51.5 -65t54.5 -69t51.5 -64.5t43.5 -52.5q-8 1 -17.5 1
h-17.5q-14 0 -28 -1t-28 -3q-19 28 -51.5 73t-69.5 93.5t-75.5 95.5t-69.5 79h-54v-86q0 -65 2 -126.5t5 -126.5q-9 2 -18.5 2h-20.5h-20t-19 -2q3 66 5 126.5t2 126.5v177zM117 361q20 -4 39.5 -5.5t39.5 -1.5q33 0 69.5 8t67 27t50.5 51.5t20 81.5q0 43 -16 71.5t-41 44.5
t-55 22.5t-58 6.5q-35 0 -62.5 -2t-47.5 -4q-2 -57 -4 -117t-2 -116v-67z" />
    <glyph glyph-name="S" unicode="S" horiz-adv-x="469" 
d="M36 33q7 20 10.5 35.5t5.5 37.5q9 -18 24 -36.5t35.5 -33t47 -23.5t59.5 -9q37 0 66 12.5t49.5 34t31.5 51t11 62.5q0 36 -13 60.5t-34 42t-48.5 30.5t-57.5 25q-31 13 -61.5 27.5t-55 35.5t-39.5 52t-15 77q0 40 15 74t42.5 58.5t67 38t88.5 13.5q84 0 139 -40
q-7 -17 -13 -33.5t-11 -40.5q-6 15 -15.5 31.5t-24 31t-35.5 24t-50 9.5q-32 0 -58 -10t-45.5 -28t-30 -43.5t-10.5 -56.5q0 -37 13.5 -62t36 -43t51 -31t58.5 -25t60 -26t53.5 -34t38 -48t14.5 -70q0 -45 -16.5 -85.5t-47.5 -71t-76 -48t-102 -17.5q-56 0 -94 16t-64 36z
M53 111q0 -2 -0.5 -2.5t-0.5 -2.5q-2 4 -2 5h3v0z" />
    <glyph glyph-name="T" unicode="T" horiz-adv-x="536" 
d="M236 428q0 54 -0.5 112t-2.5 112q-54 0 -112.5 -2.5t-103.5 -7.5q1 5 1 10.5v10.5t-0.5 10t-1.5 11q66 -3 125.5 -4t126.5 -1q63 0 126 1t126 4q-1 -6 -1.5 -11t-0.5 -11v-10t1 -10q-21 3 -47.5 4.5t-55 3t-57.5 2t-56 0.5q-2 -54 -2.5 -112t-0.5 -112v-177
q0 -65 2 -126.5t5 -126.5q-9 2 -19 2h-20h-20t-19 -2q3 66 5 126.5t2 126.5v177z" />
    <glyph glyph-name="U" unicode="U" horiz-adv-x="664" 
d="M581 360q0 132 -0.5 209t-3.5 112q6 -1 14.5 -1.5t15.5 -0.5q4 0 9 0.5t10 1.5q-3 -36 -6 -83.5t-5 -102t-3.5 -113t-2.5 -114.5q-1 -66 -20 -119t-55 -90.5t-88.5 -57.5t-119.5 -20q-148 0 -216 70t-68 215q0 23 1 46.5t2 43.5q1 19 1.5 36.5t0.5 35.5q0 73 -1.5 133.5
t-3.5 105.5v15q21 -3 42 -3h16.5t16.5 2q-2 -24 -4.5 -60t-4 -80t-2.5 -94.5t-1 -104.5q0 -36 1 -74.5t8 -75.5t21 -70.5t41 -58.5t68 -39.5t101 -14.5q59 0 99.5 16.5t66.5 44.5t40.5 64t21 75t7.5 78t1 73z" />
    <glyph glyph-name="V" unicode="V" horiz-adv-x="664" 
d="M328 0q-6 0 -13.5 -0.5t-14.5 -2.5q-23 63 -55.5 145.5t-69.5 173t-76.5 184.5t-75.5 181q9 -1 19 -1.5t18 -0.5q25 0 48 3q22 -68 50.5 -144.5t60 -156.5t64.5 -161t65 -159q20 44 43 98t46 111.5t45.5 116t42.5 113t36.5 101.5t27.5 81q15 -3 31 -3h10.5t10.5 1
q-40 -88 -77 -173t-72 -169t-69 -168.5t-67 -172.5q-15 3 -28 3zM300 -3l3 -9l-12 6z" />
    <glyph glyph-name="W" unicode="W" horiz-adv-x="1028" 
d="M272 0q-14 0 -29 -3q-9 31 -25.5 84.5t-36.5 119t-42 136.5t-42.5 136.5t-38.5 120.5t-29 87q10 -2 17.5 -2h18.5q13 0 22.5 0.5t20.5 2.5q20 -78 40 -149.5t42 -145t47.5 -155t56.5 -178.5q4 10 10 27t13 37t14.5 41.5t13.5 40.5q20 60 44 131t46.5 138.5t40.5 124
t26 87.5q6 -2 12 -2h13h14t12 2q8 -28 23.5 -77.5t35.5 -110t42 -126.5l42 -126t36.5 -109t25.5 -76q9 24 25 73t35.5 110t40.5 128.5t39.5 129.5t32.5 111t20 74q15 -3 29 -3h10t10 1q-10 -24 -28.5 -75.5t-41.5 -117.5t-48 -140t-48 -142t-41.5 -123.5t-28.5 -84.5
q-14 3 -29 3h-14t-13 -2q-45 145 -95.5 298.5t-101.5 307.5q-9 -23 -23.5 -63.5t-32 -92t-38 -110.5t-40.5 -118.5t-39.5 -117t-35.5 -105.5q-6 2 -14 2.5t-16 0.5zM234 -5q6 2 9 2l3 -9l-12 7v0z" />
    <glyph glyph-name="X" unicode="X" horiz-adv-x="600" 
d="M322 407q24 35 45.5 68.5t42 66.5t40.5 67.5t41 72.5q18 -3 32 -3h16q-13 -17 -20 -26t-19 -26q-45 -62 -90 -126.5t-85 -127.5q56 -95 113.5 -188t116.5 -187q-9 1 -17.5 1.5t-19.5 0.5q-14 0 -26 -1t-25 -3q-5 11 -11 20.5t-11 19.5q-33 64 -70 133t-89 146
q-58 -86 -104.5 -163.5t-88.5 -154.5q-17 3 -32 3h-14q61 87 114.5 169t111.5 171q-50 82 -103.5 170t-106.5 171q9 -1 17 -1.5t18 -0.5q14 0 25.5 1.5t24.5 3.5q34 -69 72.5 -136.5t83.5 -139.5z" />
    <glyph glyph-name="Y" unicode="Y" horiz-adv-x="595" 
d="M265 282q-9 16 -26.5 46t-39.5 66.5t-46 77.5t-47.5 80t-44.5 72.5t-35 56.5q10 -1 18.5 -1.5t17.5 -0.5q27 0 51 3q45 -88 95.5 -179t104.5 -184q26 41 53.5 87t53.5 93t50.5 93.5t44.5 89.5q9 -2 16.5 -2.5t17.5 -0.5h9.5t9.5 1q-47 -72 -84.5 -131t-66.5 -106
t-50.5 -84.5t-36.5 -67.5q0 -36 0.5 -76.5t1.5 -80.5t2 -75.5t3 -60.5q-9 2 -19 2h-20h-19.5t-18.5 -2q5 54 5.5 127.5t0.5 151.5z" />
    <glyph glyph-name="Z" unicode="Z" horiz-adv-x="609" 
d="M22 -1q41 55 86.5 119.5t91.5 130.5t89.5 130t80.5 118t64.5 95t40.5 62q-19 1 -46 2t-44 1q-35 0 -77 -1t-85 -3t-83.5 -4.5t-71.5 -5.5q1 5 1 10v10v10.5t-1 10.5q51 -5 153 -5h262q20 0 44 1.5t45 3.5h11v-5q-22 -25 -60.5 -76t-84 -115t-94.5 -134.5t-92.5 -134.5
t-77 -115.5t-48.5 -76.5q25 -2 54 -3t49 -1q38 0 86.5 1t97.5 3.5t93.5 5.5t73.5 6q-1 -5 -1.5 -10t-0.5 -12q0 -6 0.5 -11t1.5 -10q-37 1 -66.5 2t-55.5 1.5t-51.5 0.5h-55.5h-84.5t-94 -0.5t-86.5 -1.5t-64 -2v3z" />
    <glyph glyph-name="bracketleft" unicode="[" horiz-adv-x="207" 
d="M55 409q0 69 -1 136.5t-4 134.5q9 -1 19.5 -1h21.5q22 0 51 1t52 2v-4v-4q-22 1 -44.5 1h-46.5q-4 -63 -6.5 -132.5t-2.5 -133.5v-260q0 -64 2.5 -133.5t6.5 -132.5h45t46 1q-1 -4 -0.5 -2t0.5 -2v-5q-23 1 -52 2.5t-51 1.5h-21.5t-19.5 -1q3 70 4 134.5t1 136.5v260z
M194 682q0 5 0.5 7l1.5 6l10 -13h-4h-8zM196 -135q-2 6 -2 10h8q1 0 2 1.5t2 1.5l-10 -13v0z" />
    <glyph glyph-name="backslash" unicode="\" horiz-adv-x="335" 
d="M15 699q4 -1 10 -1q9 0 21 3q69 -183 136.5 -360.5t136.5 -360.5q-4 1 -10 1q-9 0 -21 -3z" />
    <glyph glyph-name="bracketright" unicode="]" horiz-adv-x="209" 
d="M113 409q0 64 -2.5 133.5t-6.5 132.5h-45t-46 -1q1 4 0.5 2t-0.5 2v4q22 -1 51.5 -2t51.5 -1h21.5t19.5 1q-3 -70 -4 -134.5t-1 -136.5v-260q0 -69 1 -136.5t4 -134.5q-9 1 -19.5 1h-21.5q-22 0 -51.5 -1.5t-51.5 -2.5v5v4q22 -1 44.5 -1h46.5q4 63 6.5 132.5t2.5 133.5
v260zM13 -125q-1 -4 -1 -6t-1 -6l-10 12h4h8v0zM5 682q-1 -1 -2 -1t-2 -1l10 13q1 -2 1 -4.5t1 -6.5h-8z" />
    <glyph glyph-name="asciicircum" unicode="^" horiz-adv-x="555" 
d="M257 655h42q58 -114 114.5 -224t114.5 -222h-30l-221 431q-54 -104 -111 -215.5t-111 -215.5h-29z" />
    <glyph glyph-name="underscore" unicode="_" horiz-adv-x="587" 
d="M46 -134v31h494v-31h-494z" />
    <glyph glyph-name="grave" unicode="`" horiz-adv-x="284" 
d="M67 670q-11 7 -22 16t-10 24q0 11 8.5 17t15.5 6q12 0 33 -17.5t46 -42t50 -52t44 -46.5h-18z" />
    <glyph glyph-name="a" unicode="a" horiz-adv-x="476" 
d="M209 454q-40 0 -75 -16.5t-56 -45.5v30q45 33 81.5 44t74.5 11q34 0 63 -10t49.5 -29t32 -45t11.5 -58q0 -29 -0.5 -57t-1.5 -57q-1 -30 -1.5 -61.5t-0.5 -64.5q0 -14 1 -29.5t5.5 -28.5t15 -21t29.5 -8q3 0 5 -0.5t6 0.5v-2q-22 -10 -56 -10q-28 0 -43 22t-19 54
q-22 -22 -41.5 -38t-40 -27t-42 -16.5t-46.5 -5.5q-24 0 -47 8t-40.5 23t-28.5 36.5t-11 48.5q0 55 38.5 87.5t98.5 43.5q55 9 87 16t49 16t22 20.5t5 29.5q0 28 -6.5 53t-21.5 44.5t-38.5 31t-57.5 11.5zM333 258q-23 -7 -39.5 -10.5t-31.5 -6.5q-27 -6 -56.5 -13
t-53.5 -20.5t-39.5 -35.5t-15.5 -57q0 -27 8.5 -47.5t22.5 -34t32 -20t37 -6.5q42 0 77 24t55 56zM68 384h5q1 2 5 8v-18z" />
    <glyph glyph-name="b" unicode="b" horiz-adv-x="507" 
d="M494 245q0 -57 -17 -104.5t-47 -82t-70.5 -54t-88.5 -19.5q-47 0 -86 24t-61 55q-23 -17 -41 -32.5t-34 -31.5h-3q2 24 3.5 57.5t2 71.5t1 77t0.5 75v186q0 33 -0.5 71.5t-1 76.5t-2 73t-3.5 62q8 -2 16.5 -2h18.5h18.5t19.5 2q-2 -14 -3.5 -40.5t-2.5 -61t-2 -74
t-1.5 -80t-1.5 -79t-1 -70.5q45 66 90.5 99t98.5 33q51 0 88 -19t61.5 -51t36.5 -74t12 -88zM424 248q0 51 -12.5 89.5t-33.5 64.5t-48 39t-55 13q-35 0 -65.5 -12.5t-54 -41t-37 -74.5t-13.5 -112q0 -108 41 -162.5t120 -54.5q34 0 63 18t50 51t33 79t12 103z" />
    <glyph glyph-name="c" unicode="c" horiz-adv-x="484" 
d="M38 231q0 64 21.5 110.5t57 76.5t81 44.5t92.5 14.5q51 0 92.5 -11.5t61.5 -26.5q-5 -11 -9.5 -23.5t-8.5 -24.5q-9 13 -22 26t-30 23.5t-37 17t-44 6.5q-49 0 -84 -17.5t-57.5 -49t-33 -74t-10.5 -91.5q0 -112 48.5 -168.5t139.5 -56.5q38 0 76.5 16t67.5 42
q-1 -5 -1 -11.5v-11.5q-30 -23 -73 -40t-88 -17q-43 0 -85.5 13.5t-77 43t-56 76.5t-21.5 113zM440 65q0 5 1 9t3 9h15zM423 376q1 3 1.5 7t1.5 8q2 -2 2.5 -3.5t2.5 -3.5h2l-10 -8v0z" />
    <glyph glyph-name="d" unicode="d" horiz-adv-x="506" 
d="M422 0q-13 0 -28 -3l4 93l-18 5q-9 -17 -23 -36t-34.5 -35.5t-48 -27.5t-63.5 -11q-37 0 -72.5 14t-63.5 43.5t-45 75.5t-17 109t18.5 110t48.5 78t68 46.5t76 15.5q108 0 151 -101l17 4q1 47 1.5 98.5t0.5 101t-0.5 94t-2.5 77.5q8 -2 17.5 -2.5t17.5 -0.5q17 0 32 3
q1 0 1.5 0.5t1.5 0.5q-2 -24 -3.5 -60t-3 -79.5t-2 -92.5t-1 -99t-1 -98.5t-0.5 -90.5q0 -44 0.5 -88t1.5 -79q0 -16 0.5 -34t0.5 -35q-4 1 -1.5 0.5t-0.5 0.5h-1q-3 0 -8.5 0.5t-10 1t-7.5 1t-2 0.5zM83 221q0 -65 13.5 -107.5t35.5 -67t49 -34.5t54 -10q43 0 74 21
t51 54.5t29.5 76.5t9.5 87q0 103 -41 158t-120 55q-40 0 -69 -18t-48 -49.5t-28.5 -74t-9.5 -91.5zM382 -5q3 1 6 1t6 1v-12z" />
    <glyph glyph-name="e" unicode="e" horiz-adv-x="496" 
d="M34 216q0 121 58 191t167 70q51 0 89.5 -16t63.5 -43t37.5 -63.5t12.5 -77.5v-15t-1 -15q-14 0 -33.5 0.5t-32.5 0.5q-36 1 -72.5 1.5t-72.5 0.5q-20 0 -44.5 -0.5t-44.5 -1.5q-12 0 -28 -0.5t-27 -0.5q-2 -16 -2 -24v-15q0 -42 12.5 -79t36.5 -64t59 -42.5t80 -15.5
q38 0 77.5 17t68.5 43q0 -5 -0.5 -11.5t-1.5 -13.5q-30 -23 -74 -40t-88 -17q-53 0 -97.5 17.5t-76 48.5t-49 73.5t-17.5 91.5zM261 464q-41 0 -69.5 -19.5t-47 -49t-27.5 -64t-11 -65.5q8 0 24.5 -0.5t26.5 -0.5q23 -1 47 -2t47 -1q21 0 47.5 1t48.5 2q11 0 26 0.5t25 0.5
q0 30 -5 65t-20 64.5t-42 49t-70 19.5zM455 83q-8 -10 -17 -16q1 4 1 7t1 8q-1 0 -1 1h16v0z" />
    <glyph glyph-name="f" unicode="f" horiz-adv-x="302" 
d="M283 731q-1 -9 -1.5 -19.5t-0.5 -20.5q-28 13 -53 13q-26 0 -44 -9.5t-29 -25t-16.5 -36t-5.5 -42.5q0 -10 1 -25.5t3 -33.5t4.5 -36.5t5.5 -35.5h62q11 0 20 0.5t21 0.5q-1 -5 -0.5 -5t0.5 -5v-10q-6 0 -12.5 0.5t-10.5 0.5q-18 1 -40.5 1.5t-40.5 0.5v-222t3 -224
q-8 2 -16.5 2h-16.5h-17t-17 -2q7 114 7.5 223t0.5 223q-11 0 -29.5 -0.5t-30.5 -1.5h-12q1 5 0.5 4.5t-0.5 4.5v10q10 0 13.5 -0.5t12.5 -0.5h46q0 31 6 67t17.5 70.5t27.5 64.5t36 50q17 17 43.5 31t54.5 14h10q0 -6 -0.5 -13.5t-1.5 -12.5zM281 691q1 0 1.5 -0.5
t1.5 -0.5l-3 -2v3z" />
    <glyph glyph-name="g" unicode="g" horiz-adv-x="507" 
d="M80 79q0 23 20.5 42t46.5 30q-11 -8 -17.5 -19t-6.5 -25q0 -31 16 -46t54 -17q11 -1 28 -1.5t29 -0.5q14 -1 28.5 -1h29.5q44 -1 75.5 -10.5t51.5 -26t29 -38t9 -46.5q0 -34 -13 -69t-41.5 -64t-72.5 -47.5t-106 -18.5q-95 0 -150 37t-55 101q0 25 11.5 46.5t30.5 39
t43 29.5t49 20q-89 29 -89 85zM52 319q0 40 15 70t40.5 49.5t59.5 29t72 9.5q12 0 25 -0.5t27 -1.5q7 -1 14.5 -1t15.5 -2q4 0 8.5 -0.5t7.5 -0.5q17 -2 33 -2.5t24 -0.5h40.5t30.5 2q-1 -5 -0.5 -4t0.5 -4q0 -4 -0.5 -5t0.5 -4q-8 1 -9.5 0.5t-9.5 0.5q-20 2 -44 3t-44 2
l-4 -16q29 -19 48.5 -54.5t19.5 -71.5q0 -73 -49 -113.5t-132 -40.5q-6 0 -14 0.5t-13 0.5q-6 1 -14 1h-16q-4 0 -7 -0.5t-7 -1.5q-55 27 -86.5 65t-31.5 91zM418 -125q0 66 -39 95.5t-127 29.5q-80 0 -126 -29.5t-46 -100.5q0 -38 12.5 -64.5t34 -43.5t51 -24.5t64.5 -7.5
q33 0 64.5 8.5t56.5 26.5t40 45.5t15 64.5zM362 324q0 69 -33.5 106t-88.5 37q-61 0 -94.5 -40t-33.5 -108t30.5 -109t96.5 -41q32 0 55 13t38 34.5t22.5 49.5t7.5 58zM147 151q11 9 23 12q2 -1 3 -1t3 -1q-8 -2 -15 -4.5t-14 -5.5z" />
    <glyph glyph-name="h" unicode="h" horiz-adv-x="460" 
d="M55 467q0 33 -0.5 71.5t-1.5 76.5t-2.5 73t-3.5 62q9 -2 17.5 -2h17.5h18t17 2q-2 -26 -3.5 -60t-2.5 -71t-1 -75v-72v-111q38 55 81 85.5t96 30.5q27 0 54.5 -7.5t50 -26.5t36.5 -52t14 -83q0 -21 -0.5 -42.5t-1.5 -44.5q-1 -25 -1.5 -51t-0.5 -53q0 -32 -0.5 -59.5
t1.5 -59.5q-9 2 -16 2h-16h-17t-15 -2l3 70q2 36 3 72t1 74v63q0 81 -33 124t-90 43q-77 0 -113 -47t-36 -132q0 -28 0.5 -63t1 -71.5t2 -71t3.5 -61.5q-8 2 -17 2h-18h-17.5t-17.5 -2q3 26 4.5 60t2 71.5t1 76.5t0.5 75v186z" />
    <glyph glyph-name="i" unicode="i" horiz-adv-x="157" 
d="M50 284q0 44 -1 90.5t-5 88.5q8 -2 16 -2h18h17.5t16.5 2q-4 -42 -5 -88.5t-1 -90.5v-107q0 -44 1 -90.5t5 -88.5q-8 2 -16.5 2h-17.5h-18t-16 -2q4 42 5 88.5t1 90.5v107zM36 656q0 17 12 29.5t30 12.5t30 -12.5t12 -29.5q0 -18 -12 -30t-30 -12t-30 12t-12 30z" />
    <glyph glyph-name="j" unicode="j" horiz-adv-x="246" 
d="M140 243q0 57 -1 116.5t-5 103.5q9 -2 16.5 -2h17.5h18t16 2q-4 -42 -5 -88.5t-1 -90.5v-107q0 -30 0.5 -65t2.5 -71t3 -71t1 -64q0 -42 -4 -77t-27 -68q-20 -29 -54 -49.5t-77 -24.5q-1 2 -1.5 5.5t-1.5 6.5h1h2q33 0 53 18.5t31.5 48t15 66t3.5 71.5zM126 656
q0 17 12.5 29.5t29.5 12.5q18 0 30 -12.5t12 -29.5q0 -18 -12 -30t-30 -12q-17 0 -29.5 12t-12.5 30z" />
    <glyph glyph-name="k" unicode="k" horiz-adv-x="472" 
d="M40 467q0 33 -0.5 71.5t-1 76.5t-2 73t-3.5 62q9 -2 17.5 -2h17.5h18t17 2q-2 -26 -3.5 -60t-2.5 -71.5t-1 -76.5v-75v-187q0 -29 20 -30q-20 -2 -20 -23v-61q0 -43 1 -84.5t5 -83.5q-8 2 -16 2h-18h-17.5t-17.5 -2q2 26 3.5 60t2 71.5t1 76.5t0.5 75v186zM140 236
q-5 5 -10 9t-11 5q9 0 19 6t21 15l2.5 2.5t3.5 2.5q11 9 33 29.5t48.5 46.5t54.5 55.5t51 56.5q15 -3 35 -3h17q-58 -48 -113 -95t-103 -95q57 -69 115.5 -136t119.5 -136q-8 1 -16 1h-16q-12 0 -24.5 -1t-23.5 -3q-22 29 -49.5 62.5t-55.5 66.5t-54 62t-44 49zM430 465
q-8 -1 -14.5 -2t-11.5 -2l14 12t15 12l6 -19q-2 0 -4.5 -0.5t-4.5 -0.5z" />
    <glyph glyph-name="l" unicode="l" horiz-adv-x="167" 
d="M54 467q0 33 -0.5 71.5t-1 76.5t-2 73t-3.5 62q8 -2 17 -2h18h17.5t17.5 2q-2 -26 -3.5 -60t-2.5 -71.5t-1 -76.5v-75v-186q0 -33 0.5 -71.5t1 -76.5t2 -73t3.5 -62q-8 2 -17.5 2h-17.5h-18t-17 -2q2 26 3.5 60t2 71.5t1 76.5t0.5 75v186z" />
    <glyph glyph-name="m" unicode="m" horiz-adv-x="777" 
d="M50 284q0 44 -1 90.5t-5 88.5q8 -2 16 -2h18h14t16 2q-2 -21 -2 -52v-52q72 118 166 118q25 0 48 -9t42.5 -25.5t34 -39t21.5 -48.5q32 59 76 90.5t95 31.5q31 0 58 -8.5t46.5 -27t31 -47.5t11.5 -70q0 -13 -0.5 -29t-1.5 -33q-2 -29 -3 -68.5t-1 -96.5v-48.5t2 -50.5
q-8 2 -16.5 2h-16.5h-17.5t-15.5 -2q3 35 5.5 111.5t2.5 200.5q0 28 -6 52.5t-19.5 42.5t-36.5 28.5t-56 10.5q-41 0 -68.5 -16t-42.5 -37q-9 -13 -14.5 -24.5t-8 -35t-3.5 -66t-1 -117.5v-39t0.5 -35t1.5 -35.5t2 -40.5q-8 2 -17 2h-17h-17t-17 -2q5 58 6.5 110.5
t1.5 109.5q0 49 -0.5 77.5t-2.5 45.5t-5.5 27t-10.5 23q-13 22 -40 37.5t-55 15.5q-72 0 -107 -47t-35 -132v-88q0 -44 1 -90.5t5 -88.5q-8 2 -16.5 2h-17.5h-18t-16 -2q4 42 5 88.5t1 90.5v107z" />
    <glyph glyph-name="n" unicode="n" horiz-adv-x="484" 
d="M380 277q0 81 -33 124t-90 43q-78 0 -113.5 -47t-35.5 -132v-88q0 -44 1 -90.5t5 -88.5q-8 2 -16 2h-18h-17.5t-16.5 -2q5 42 6 88.5t1 90.5v107q0 44 -1 90.5t-6 88.5q9 -2 16.5 -2h17.5h14.5t15.5 2q-2 -21 -2 -51v-51q38 55 81 85.5t96 30.5q27 0 54.5 -7.5t50 -26.5
t36.5 -52t14 -83q0 -21 -0.5 -42.5t-1.5 -44.5q-1 -25 -2 -51t-1 -53v-59.5t2 -59.5q-9 2 -16 2h-16h-17t-15 -2l3 70q2 36 3 72t1 74v63v0z" />
    <glyph glyph-name="o" unicode="o" horiz-adv-x="549" 
d="M34 231q0 67 21.5 114t56 76.5t77 42.5t85.5 13t85.5 -13t77 -42.5t56 -76.5t21.5 -114q0 -68 -21.5 -115t-56 -76t-77 -42t-85.5 -13t-85.5 13t-77 42t-56 76t-21.5 115zM104 231q0 -45 8.5 -87.5t28 -75t52 -52t81.5 -19.5t81.5 19.5t52 52t28 75t8.5 87.5t-8.5 87
t-28 74.5t-52 52t-81.5 19.5t-81.5 -19.5t-52 -52t-28 -74.5t-8.5 -87z" />
    <glyph glyph-name="p" unicode="p" horiz-adv-x="508" 
d="M53 177q0 34 -0.5 72.5t-1 76.5t-2 73.5t-3.5 63.5q8 -2 16.5 -2h18.5h17t17 2q-3 -21 -5 -45t-2 -47l18 -5q9 16 22.5 35.5t33.5 36.5t48 28t65 11t73 -14t64 -43.5t45 -75.5t17 -110q0 -63 -18.5 -110t-48.5 -77.5t-68 -46t-77 -15.5q-54 0 -92.5 25t-61.5 73l-18 -4
l-2 -69q0 -33 0.5 -71t1.5 -76.5t2.5 -73.5t3.5 -62q-9 2 -18 2h-17h-18.5t-16.5 -2q2 26 3.5 60t2 72t1 77t0.5 74v167zM424 235q0 65 -13.5 107.5t-35.5 67t-49 34.5t-54 10q-44 0 -75.5 -18t-51 -49.5t-28.5 -73t-9 -87.5q0 -112 41 -168t120 -56q40 0 69 18t48 49.5
t28.5 74t9.5 91.5z" />
    <glyph glyph-name="q" unicode="q" horiz-adv-x="507" 
d="M454 10q0 -33 0.5 -71t1 -76.5t2 -73.5t3.5 -62q-8 2 -17 2h-18h-17.5t-17.5 -2q3 26 4.5 60t2 72t1 77t0.5 74v83l-18 4q-30 -57 -72.5 -84.5t-90.5 -27.5q-36 0 -72.5 12.5t-66 41t-48 74.5t-18.5 114q0 65 18.5 112t48 78t66 45.5t72.5 14.5q66 0 104 -31.5t56 -78.5
l19 4q2 22 0.5 45.5t-5.5 46.5q9 -2 16.5 -2h17.5h18t17 2q-2 -27 -3.5 -61.5t-2.5 -72.5t-1 -77v-75v-167zM399 241q0 41 -9 79.5t-28 68t-49.5 47.5t-72.5 18q-27 0 -55 -10t-50.5 -36.5t-37 -72t-14.5 -116.5q0 -46 9 -85.5t27.5 -69t46.5 -46t65 -16.5q42 0 73.5 20.5
t52.5 54.5t31.5 76.5t10.5 87.5z" />
    <glyph glyph-name="r" unicode="r" horiz-adv-x="291" 
d="M274 475q-4 -14 -4 -32v-35q-9 5 -22 8t-25 3q-27 0 -48.5 -12t-36.5 -32.5t-23 -48.5t-8 -60v-106t0.5 -73.5t1 -51t2.5 -37.5q-8 2 -15 2h-15h-17t-15 -2q3 37 3 91.5v141.5v33v87t-3 112q8 -2 15 -2h17h14.5t14.5 2q-4 -30 -4 -51v-40l18 -5q31 55 64.5 82.5
t66.5 27.5h10t9 -2zM270 408q2 -2 4 -2l-4 -5v7z" />
    <glyph glyph-name="s" unicode="s" horiz-adv-x="369" 
d="M41 12q5 12 9 26.5t6 28.5q16 -22 47 -43.5t73 -21.5q21 0 41 6.5t35 19.5t24.5 32t9.5 45q0 25 -9.5 41.5t-25.5 27.5t-36.5 18.5t-42.5 14.5q-23 7 -46 15.5t-41.5 22t-30 34t-11.5 52.5q0 63 41.5 104.5t118.5 41.5q27 0 48 -6.5t39 -13.5q8 -4 12 -5
q-5 -14 -10.5 -29t-7.5 -27q-11 25 -35.5 44t-58.5 19q-17 0 -34.5 -5.5t-31.5 -17.5t-23 -30.5t-9 -43.5q0 -27 9.5 -44t26 -28.5t37.5 -18.5t44 -14q23 -6 45.5 -14t40.5 -21t29 -33.5t11 -51.5q0 -27 -12 -54.5t-35 -49t-55.5 -35t-72.5 -13.5q-42 0 -70 8t-49 19zM57 73
q0 -4 -1 -6l-3 6h4v0zM284 395l2 -4q-2 2 -2 5v-1z" />
    <glyph glyph-name="t" unicode="t" horiz-adv-x="283" 
d="M152 600q-3 -36 -4 -75t-3 -73h16h26t32 0.5t34 1.5q-1 -5 -0.5 -5t0.5 -5v-11q-27 2 -57 1.5t-49 -0.5q-1 -5 -2.5 -35.5t-3 -71.5t-2.5 -86t-1 -78q0 -31 1.5 -61t10.5 -53t28 -37.5t53 -14.5q8 0 17.5 1t19.5 3v-5q-16 -5 -34 -8t-35 -3q-60 0 -88.5 31t-28.5 87
q0 23 1 53l2 60q2 42 2.5 98t1.5 120h-31t-36 -1q1 8 0.5 8t-0.5 5v8q23 0 38.5 -0.5t26.5 -0.5q0 7 -0.5 21t-0.5 23q-1 16 -1.5 35.5t-1.5 38.5zM152 600v7.5t1 8.5l11 -12h-4z" />
    <glyph glyph-name="u" unicode="u" horiz-adv-x="485" 
d="M44 143q0 29 0.5 53.5t1.5 46.5q1 19 1 36v34q0 34 -0.5 72t-1.5 78q9 -2 17 -2h16q7 0 16 0.5t15 1.5q-9 -120 -9 -273q0 -56 10 -85.5t25 -45.5q17 -18 40 -30t56 -12q46 0 77.5 21t45.5 52q8 17 12.5 30.5t7 34.5t3 56t0.5 97v79t-1 76q8 -2 14.5 -2h17.5q8 0 16 0.5
t15 1.5q-3 -40 -4 -76.5t-2 -72.5t-1 -72.5v-77.5q0 -40 1 -84t3 -82q-7 1 -14.5 1.5t-14.5 0.5q-8 0 -15.5 -0.5t-13.5 -1.5q1 11 1 26.5v31v30.5v26q-35 -62 -81 -94.5t-92 -32.5q-76 0 -119 41t-43 117z" />
    <glyph glyph-name="v" unicode="v" horiz-adv-x="491" 
d="M243 0q-15 0 -27 -3q-2 7 -5 13t-5 14q-42 109 -85 219t-93 220q8 -1 16.5 -1.5t17.5 -0.5t19.5 0.5t18.5 2.5q30 -94 69.5 -195.5t90.5 -217.5q42 85 78.5 180.5t70.5 189.5l15 42q6 -2 13 -2h13q9 0 14 1q-7 -16 -10 -24t-10 -23q-48 -106 -92.5 -208.5t-82.5 -208.5
q-7 2 -13.5 2h-12.5zM207 -5q6 2 9 2l3 -9l-12 7v0z" />
    <glyph glyph-name="w" unicode="w" horiz-adv-x="794" 
d="M225 0q-12 0 -22 -3q-11 39 -30 94.5t-42 118t-48.5 128t-49.5 125.5q7 -1 15 -1.5t17 -0.5q19 0 39 3q24 -88 59.5 -192t80.5 -216q13 33 32 83.5t39 106.5t39 113t33 104q6 -2 11 -2h12q12 0 22 2q22 -80 52 -167.5t64 -182.5l22 -58q13 33 32 82.5t40 105.5t42 114
t38 106q7 -2 13.5 -2h13.5t12 1q-54 -114 -102 -230.5t-90 -234.5q-5 1 -9.5 2t-11.5 1q-8 0 -18 -2q-25 87 -60 186.5t-80 208.5q-14 -35 -33 -84t-39 -103.5t-38.5 -109t-32.5 -99.5q-9 3 -22 3zM196 -5q3 0 5 1h-2q1 0 2 0.5t2 0.5l4 -9l-11 7v0zM247 -3q1 0 1.5 -0.5
t2.5 -0.5h-2q1 -1 5 -1l-10 -7zM569 -3q1 -1 4 -1q1 0 0.5 -0.5t1.5 -0.5l-9 -7z" />
    <glyph glyph-name="x" unicode="x" horiz-adv-x="517" 
d="M276 278q35 45 70.5 93t67.5 93q16 -3 32 -3h7q-25 -28 -46.5 -53.5t-42 -50t-41.5 -49.5t-43 -53q43 -63 90 -128t96 -128q-5 1 -14 1h-14q-12 0 -24.5 -1t-23.5 -3q-35 53 -72.5 108t-74.5 108q-18 -24 -37.5 -51.5t-39 -55.5t-38.5 -55.5t-36 -52.5q-6 2 -14 2.5
t-16 0.5h-9q25 30 47 57.5t43 55t42.5 55t44.5 57.5q-84 118 -177 237q8 -1 14.5 -1h15.5q14 0 25.5 1t23.5 3q28 -45 60.5 -92t67.5 -95h16z" />
    <glyph glyph-name="y" unicode="y" horiz-adv-x="487" 
d="M233 -12q-11 29 -27 69t-35 85.5t-38.5 93t-38 90.5t-33.5 79t-25 58q8 -1 15 -1.5t15 -0.5q20 0 40 3q28 -86 62.5 -172t72.5 -176q3 -8 8 -20t15 -41q24 50 47 102.5t44 105t39 103.5t33 97q6 -2 12.5 -2h14.5q10 0 15 1q-14 -29 -40 -85.5t-58 -127t-66.5 -148
t-65.5 -149.5t-55 -131.5t-35 -93.5q-6 2 -13 2h-15h-13q35 60 67 124t58 126v9z" />
    <glyph glyph-name="z" unicode="z" horiz-adv-x="486" 
d="M28 -5q35 43 74 93t77.5 100.5t74 99t64.5 87.5q6 7 13 16.5l14 19t13.5 18.5t11.5 15q-9 0 -42.5 -1t-77 -3t-89 -4.5t-77.5 -5.5q1 7 0.5 8t-0.5 9v9t-1 9q32 -3 90.5 -3.5t153.5 -0.5q42 0 69 1t56 3v-1q-27 -36 -59.5 -78t-65.5 -85.5t-65.5 -86.5t-60.5 -80.5
t-50.5 -68t-35.5 -48.5q46 0 84 0.5t75.5 2t78 4t91.5 7.5q-2 -7 -1.5 -8.5t0.5 -9.5v-9t1 -9q-16 0 -25 0.5t-26 1.5q-96 3 -193 3q-34 0 -69 -0.5t-69 -2.5q-8 -1 -17 -1.5t-17 -0.5z" />
    <glyph glyph-name="braceleft" unicode="{" horiz-adv-x="243" 
d="M15 290q38 3 56.5 32.5t18.5 74.5v175q0 64 21 87t60 23h49v-17h-23q-16 0 -28 -3.5t-20 -13.5t-12 -28.5t-4 -47.5v-168q0 -48 -28.5 -76.5t-79.5 -47.5q51 -20 79.5 -49t28.5 -77v-168q0 -29 4 -47.5t12 -28.5t20 -13.5t28 -3.5h23v-18h-49q-39 0 -60 23.5t-21 87.5
v175q0 45 -18.5 74.5t-56.5 32.5v22z" />
    <glyph glyph-name="bar" unicode="|" horiz-adv-x="144" 
d="M53 751h32v-1008h-32v1008z" />
    <glyph glyph-name="braceright" unicode="}" horiz-adv-x="243" 
d="M227 268q-38 -3 -56.5 -32.5t-18.5 -74.5v-175q0 -64 -21 -87.5t-59 -23.5h-50v18h23q16 0 28 3.5t20 13.5t12 28.5t4 47.5v168q0 48 28.5 76.5t79.5 47.5q-51 20 -79.5 49t-28.5 77v168q0 29 -4 47.5t-12 28.5t-20 13.5t-28 3.5h-23v17h50q38 0 59 -23t21 -87v-175
q0 -45 18.5 -74.5t56.5 -32.5v-22z" />
    <glyph glyph-name="asciitilde" unicode="~" horiz-adv-x="520" 
d="M38 227q21 35 46 55t67 20q29 0 50.5 -8t42.5 -17q8 -4 16 -7.5t16 -8.5q24 -12 46 -20.5t48 -8.5q29 0 54 22t42 46q5 -9 8 -13t8 -10q-10 -14 -21 -28t-25 -25t-30.5 -18t-36.5 -7q-26 0 -53 10t-59 27q-27 14 -53 23.5t-47 9.5q-22 0 -38.5 -6t-29 -15.5t-21.5 -21.5
t-15 -24z" />
    <glyph glyph-name="exclamdown" unicode="&#xa1;" horiz-adv-x="175" 
d="M76 177q2 27 5 54.5t5 53.5q2 -28 5 -53t5 -55q6 -65 11 -128.5t9.5 -115t7 -86t2.5 -41.5q0 -22 -12 -31t-28 -9t-28 9t-12 31q0 7 2.5 41.5t7 86t9.5 115t11 128.5zM38 428q0 20 14 34.5t34 14.5t34 -14.5t14 -34.5t-14 -34t-34 -14t-34 14t-14 34z" />
    <glyph glyph-name="cent" unicode="&#xa2;" horiz-adv-x="480" 
d="M36 231q0 57 18 100.5t49 73.5t71 47t84 23v17q0 17 -0.5 40.5t-2.5 43.5q5 -1 15 -1q9 0 14 1q-3 -23 -3 -42v-41v-16q56 -1 98.5 -12t62.5 -26q-5 -11 -9.5 -23.5t-8.5 -24.5q-9 13 -22.5 26t-31 23.5t-40 17t-49.5 6.5v-457q43 0 85 16t72 42q-1 -5 -1 -11.5v-11.5
q-28 -22 -68.5 -37.5t-87.5 -17.5v-19q0 -20 0.5 -44.5t2.5 -45.5q-5 1 -14 1q-10 0 -15 -1q2 21 2.5 44.5t0.5 46.5v17q-42 4 -81.5 19.5t-71 45.5t-50.5 74.5t-19 105.5zM258 463q-40 -9 -69 -29.5t-47.5 -51t-27 -69t-8.5 -81.5q0 -95 39 -151t113 -71v453zM438 65
q0 5 1 9t3 9h15zM421 376q1 3 1.5 7t1.5 8q2 -2 2.5 -3.5t2.5 -3.5h2l-10 -8v0z" />
    <glyph glyph-name="sterling" unicode="&#xa3;" horiz-adv-x="507" 
d="M23 40q47 0 76.5 13t46 37t22.5 57.5t6 74.5q0 26 -2.5 52.5t-5.5 49.5q0 2 -0.5 8.5t-0.5 8.5q-22 -1 -48.5 -1.5t-49.5 -0.5q2 6 1 6.5t-1 6.5v9q30 -3 94 -3q-4 23 -5.5 43t-1.5 38q0 68 18.5 112.5t47.5 71t64 37.5t68 11q31 0 65 -11.5t54 -31.5q-6 -8 -11.5 -16
t-12.5 -19q-13 31 -38 46t-57 15q-30 0 -54.5 -11.5t-42.5 -31.5t-27.5 -47.5t-9.5 -59.5t1 -58.5t3 -49.5q1 -8 1.5 -19.5t1.5 -18.5q72 0 125 3q8 1 14.5 1h15.5v-10v-13q-36 1 -76 1.5t-78 0.5q1 -11 2.5 -28t1.5 -30q0 -38 -10 -73t-26.5 -65.5t-38.5 -56t-45 -43.5
q33 -1 73 -1t80.5 1t80 2t72.5 3q11 1 28 1t28 1q-1 -8 -1 -15v-14v-14.5t1 -13.5q-14 0 -23 0.5t-24 1.5q-92 3 -182 3q-89 0 -177 -3q-14 -1 -23.5 -1.5t-22.5 -0.5q1 5 1 10v12v12t-1 11h3zM436 576q3 5 6 9t5 8l2 -6l2 -6l2 -2l-17 -3v0zM382 329q-1 2 -1 5t-1 5h2
q2 0 5 1t5 1l-10 -12v0z" />
    <glyph glyph-name="currency" unicode="&#xa4;" horiz-adv-x="574" 
d="M503 568q8 -8 12 -11.5t11 -10.5l-57 -58q29 -34 46 -75t17 -86q0 -44 -15.5 -84.5t-44.5 -75.5l54 -54q-8 -8 -12.5 -13t-10.5 -11l-55 54q-35 -29 -75.5 -45t-85.5 -16t-85.5 17t-75.5 46l-27.5 -27.5t-29.5 -28.5q-8 8 -12.5 13t-10.5 11l55 56q-28 34 -43.5 74
t-15.5 84t16 85.5t44 74.5q-13 13 -28 28.5t-29 29.5l24 23l56 -56q35 29 76 44.5t86 15.5t85.5 -15t75.5 -44zM499 327q0 45 -16.5 85t-45 69.5t-67 46.5t-83.5 17t-84 -17t-67.5 -46.5t-44.5 -69.5t-16 -85t16 -84.5t44.5 -69t67.5 -46.5t84 -17t83.5 17t67 46.5t45 69
t16.5 84.5z" />
    <glyph glyph-name="yen" unicode="&#xa5;" horiz-adv-x="549" 
d="M236 341q-27 0 -63.5 -0.5t-64.5 -1.5q-11 0 -23 -0.5t-23 -0.5q1 5 0.5 5.5t-0.5 5.5v11q42 -1 86.5 -1.5t86.5 -0.5q-19 29 -42 65t-41 65q-32 49 -61.5 96.5t-61.5 96.5q8 -1 16 -1.5t18 -0.5q25 0 48 3q9 -20 29 -56t45 -79t52.5 -88t50.5 -84q54 84 105 164.5
t84 142.5q13 -3 30 -3q4 0 5 -0.5t5 0.5q-41 -54 -83.5 -118t-96.5 -145q-7 -11 -19 -29t-19 -29q39 0 86 0.5t88 1.5q-1 -5 -0.5 -5.5t0.5 -5.5v-11q-11 0 -25 0.5t-23 0.5q-30 1 -64.5 1.5t-64.5 0.5v-110h88t89 1q-1 -6 -0.5 -6.5t0.5 -5.5q0 -4 -0.5 -5.5t0.5 -4.5
q-90 3 -177 3q0 -54 1.5 -110.5t4.5 -104.5q-9 2 -18.5 2h-17.5h-18.5t-17.5 -2q4 55 5 107.5t1 107.5q-42 0 -86.5 -0.5t-87.5 -2.5v22q45 -1 87 -1h87v110z" />
    <glyph glyph-name="brokenbar" unicode="&#xa6;" horiz-adv-x="130" 
d="M53 160h32v-340h-32v340zM53 674h32v-339h-32v339z" />
    <glyph glyph-name="section" unicode="&#xa7;" horiz-adv-x="437" 
d="M378 238q0 41 -21.5 64.5t-75.5 47.5q-44 19 -73 33t-48 24.5t-30 18.5t-19 15q-17 -15 -34 -39.5t-17 -52.5q0 -22 6.5 -39t21 -31t36.5 -27t53 -26q36 -16 62.5 -27.5t46 -21t33 -17t24.5 -14.5q19 -16 30 -37.5t11 -50.5q0 -36 -13.5 -70t-39.5 -61t-64.5 -43
t-88.5 -16q-36 0 -72.5 11t-60.5 27q2 14 4.5 32t3.5 33q7 -13 20 -28t31.5 -27.5t44 -21t58.5 -8.5q29 0 55.5 11.5t46 30t31 42t11.5 47.5q0 28 -12.5 48t-32.5 35t-47 26t-55 22q-31 12 -61.5 25.5t-55 32t-39.5 45t-15 64.5q0 23 8 43t19.5 36t25 28t24.5 19
q-1 1 -5.5 6.5t-5.5 6.5l1 -2q-11 16 -17.5 32.5t-6.5 54.5q0 30 11 59t32.5 51t54 35.5t75.5 13.5t73 -16.5t49 -36.5q-14 -19 -22 -44q-13 32 -43 55.5t-72 23.5q-23 0 -45.5 -8t-40 -22.5t-28.5 -35.5t-11 -47q0 -29 12 -50t32.5 -36.5t46.5 -27t53 -22.5q28 -11 55 -23
t48.5 -28.5t35 -40t13.5 -56.5q0 -34 -16 -64.5t-34 -53.5q9 15 16 32.5t7 40.5zM53 -29q-2 4 -3.5 7.5t-2.5 7.5l9 -7h-2q0 -2 -0.5 -4t-0.5 -4zM343 146q-3 1 -3 2q4 3 7.5 7.5t7.5 9.5zM348 595q0 2 0.5 3t0.5 3l3 -6h-4v0z" />
    <glyph glyph-name="dieresis" unicode="&#xa8;" horiz-adv-x="376" 
d="M247 645q0 18 12 30.5t30 12.5t30 -12.5t12 -30.5q0 -17 -12 -29.5t-30 -12.5t-30 12.5t-12 29.5zM44 645q0 18 12 30.5t30 12.5t30 -12.5t12 -30.5q0 -17 -12 -29.5t-30 -12.5t-30 12.5t-12 29.5z" />
    <glyph glyph-name="copyright" unicode="&#xa9;" horiz-adv-x="775" 
d="M29 340q0 74 28 139t76.5 114t114 77t139.5 28t139.5 -28t114 -77t76.5 -114t28 -139t-28 -139.5t-76.5 -114.5t-114 -77t-139.5 -28t-139.5 28t-114 77t-76.5 114.5t-28 139.5zM723 340q0 70 -26 132t-71.5 108.5t-107 73t-131.5 26.5q-71 0 -132 -26.5t-106.5 -73
t-71.5 -108.5t-26 -132q0 -71 26 -133t71.5 -108.5t106.5 -73t132 -26.5q70 0 131.5 26.5t107 73t71.5 108.5t26 133zM170 338q0 58 19 102t52 73t77 44t95 15q44 0 77 -6.5t54 -16.5q-6 -14 -9 -31q-16 14 -45.5 30t-73.5 16q-38 0 -74 -10t-63.5 -35.5t-44.5 -69.5
t-17 -112q0 -47 13 -86.5t38 -68t61.5 -45t83.5 -16.5q35 0 69.5 15t59.5 32q-1 -5 -1 -9v-8q-20 -12 -56.5 -25t-83.5 -13q-51 0 -93 16t-73 45t-48 71t-17 93zM549 190l9 -14q-2 0 -1.5 0.5t-1.5 0.5l-13 -9q1 5 2 10.5t5 11.5zM542 512l2 1l-10 -10v7t1 8q3 -2 7 -6z" />
    <glyph glyph-name="ordfeminine" unicode="&#xaa;" horiz-adv-x="341" 
d="M233 555l-4 -2q4 7 4 20q0 28 -6.5 46t-18 27.5t-27 13t-32.5 3.5q-29 0 -49 -11t-30 -25v16q19 11 43 19.5t59 8.5q16 0 33.5 -3.5t32 -13t24 -26.5t9.5 -44q0 -21 -1 -45.5t-2 -47.5q-1 -18 -1.5 -32.5t-0.5 -25.5q0 -26 9.5 -35.5t20.5 -9.5q-5 -2 -12 -3t-14 -1
q-17 0 -25.5 17t-10.5 40l-1 -1v115zM36 450q0 31 18.5 47.5t72.5 26.5q-20 -8 -34 -23.5t-14 -44.5q0 -32 20 -48t47 -16q18 0 36 8q-28 -16 -60 -16q-15 0 -30 3t-27.5 10.5t-20.5 20.5t-8 32zM229 553q-7 -9 -28 -14.5t-71 -13.5q-1 0 -1.5 -0.5t-1.5 -0.5q11 5 23 7.5
t23 4.5q12 2 25.5 5t30.5 12zM60 622h6q1 2 4 5v-16zM233 440q-10 -11 -22.5 -21.5t-28.5 -18.5q13 8 25 17.5t26 22.5zM296 388q11 3 17 7l-5 -9v3q-3 -1 -9 -1h-3z" />
    <glyph glyph-name="guillemotleft" unicode="&#xab;" horiz-adv-x="361" 
d="M143 402q4 -4 10.5 -8.5t11.5 -6.5l-110 -156q26 -41 53 -83.5t53 -82.5q-8 -3 -13.5 -6.5t-10.5 -9.5q-30 48 -56 90t-55 88zM292 402q5 -4 11 -8.5t11 -6.5l-110 -156q26 -41 53 -83.5t53 -82.5q-8 -3 -13.5 -6.5t-10.5 -9.5q-30 48 -56 90t-55 88z" />
    <glyph glyph-name="logicalnot" unicode="&#xac;" horiz-adv-x="552" 
d="M472 334h-467v32h500v-255h-33v223z" />
    <glyph glyph-name="registered" unicode="&#xae;" horiz-adv-x="775" 
d="M29 340q0 74 28 139t76.5 114t114 77t139.5 28t139.5 -28t114 -77t76.5 -114t28 -139t-28 -139.5t-76.5 -114.5t-114 -77t-139.5 -28t-139.5 28t-114 77t-76.5 114.5t-28 139.5zM51 340q0 -71 26 -133t71.5 -108.5t106.5 -73t132 -26.5q70 0 131.5 26.5t107 73
t71.5 108.5t26 133q0 70 -26 132t-71.5 108.5t-107 73t-131.5 26.5q-71 0 -132 -26.5t-106.5 -73t-71.5 -108.5t-26 -132zM293 357q8 -2 22.5 -4t31.5 -2h16.5t16.5 2q6 -8 14 -18.5t16.5 -22t17.5 -22t16 -19.5q32 -42 63.5 -82.5t54.5 -63.5q-23 6 -22 7q-9 0 -17.5 -1
t-16.5 -3q-38 55 -78.5 109t-85.5 110h-49v-82q0 -35 1 -68t3 -67q-5 1 -10 1.5t-10 0.5t-11.5 -0.5t-11.5 -1.5v7.5t1 7.5q2 29 3.5 57.5t1.5 57.5v176q0 32 -1.5 65.5t-3.5 61.5q36 -3 72 -3q11 0 21 0.5t21 1.5t21 2t21 1q25 0 46.5 -5.5t37.5 -17t25.5 -29t9.5 -41.5
q0 -27 -13.5 -47.5t-34.5 -35t-45 -23t-45 -11.5q42 8 68.5 34.5t26.5 75.5q0 45 -29.5 70.5t-76.5 25.5q-20 0 -41 -1.5t-39 -4.5q-4 -28 -6 -55.5t-2 -50.5v-92zM577 121l-6 -5q-5 3 -9 9q3 -1 6.5 -2t8.5 -2zM380 354q3 0 6 0.5t6 0.5q-8 -2 -12 -2v1z" />
    <glyph glyph-name="macron" unicode="&#xaf;" horiz-adv-x="360" 
d="M49 655h261l-261 -33v33z" />
    <glyph glyph-name="degree" unicode="&#xb0;" horiz-adv-x="350" 
d="M35 532q0 28 11 53.5t30 44.5t44 30t54 11q28 0 53.5 -11t44.5 -30t30 -44.5t11 -53.5q0 -29 -11 -54t-30 -44t-44.5 -30t-53.5 -11q-29 0 -54 11t-44 30t-30 44t-11 54zM53 532q0 -26 9.5 -48t25.5 -38t38 -25.5t48 -9.5q25 0 47.5 9.5t38.5 25.5t25.5 38t9.5 48
q0 25 -9.5 47.5t-25.5 39t-38.5 26t-47.5 9.5q-26 0 -48 -9.5t-38 -26t-25.5 -39t-9.5 -47.5z" />
    <glyph glyph-name="plusminus" unicode="&#xb1;" horiz-adv-x="522" 
d="M11 313h234v187h32v-187h234v-33h-234v-187h-32v187h-234v33zM11 33h500v-33h-500v33z" />
    <glyph glyph-name="twosuperior" unicode="&#xb2;" horiz-adv-x="337" 
d="M164 667q-39 0 -61 -19.5t-30 -39.5l-10 13q20 28 46 39t64 11q53 0 88.5 -23.5t35.5 -75.5q0 -23 -7 -43.5t-29 -48t-63 -66t-108 -98.5l2 -21h49.5t53.5 0.5t52.5 1.5t48.5 3q-1 -5 -1 -8.5v-7.5q0 -9 1 -14q-36 1 -65.5 2t-65.5 1q-31 0 -66.5 -1t-66.5 -3q9 8 19 17
t18 17q41 38 74 70.5t56.5 63.5t36.5 63t13 69q0 51 -25.5 74.5t-59.5 23.5zM80 602l-11 -8q1 3 1.5 6.5t2.5 7.5l6 -6h1z" />
    <glyph glyph-name="threesuperior" unicode="&#xb3;" horiz-adv-x="325" 
d="M40 301q13 -11 35 -20.5t52 -9.5q53 0 84 30.5t31 78.5q0 28 -8 47.5t-21 31t-30 16.5t-34 5h-15.5t-13.5 -2v1v2v5q5 -1 10 -1.5t10 -0.5q24 0 42 9l1 -16q16 -2 35 -7t35 -15.5t26.5 -26.5t10.5 -41q0 -54 -44 -87t-117 -33q-33 0 -55 5t-39 12zM267 591
q0 -20 -7 -35.5t-18.5 -27t-26 -19.5t-28.5 -12q21 15 29 40.5t8 48.5q0 42 -24 61.5t-55 19.5q-26 0 -46.5 -11t-31.5 -27q-2 3 -2.5 6.5t-2.5 6.5q14 11 35 20t62 9q45 0 76.5 -19.5t31.5 -60.5zM61 617q1 6 6 12q2 -5 8 -13l-9 5l-5 -4v0zM40 301q-5 3 -6 6h-1l11 7
l-4 -13v0zM182 496q2 0 2.5 0.5t2.5 0.5q-2 -1 -2.5 -2t-2.5 -2v3z" />
    <glyph glyph-name="acute" unicode="&#xb4;" horiz-adv-x="282" 
d="M184 711q9 10 19.5 16t19.5 6q7 0 15.5 -6t8.5 -17q0 -14 -10.5 -24t-21.5 -16q-35 -23 -73.5 -47.5t-73.5 -47.5h-18z" />
    <glyph glyph-name="mu" unicode="&#xb5;" horiz-adv-x="461" 
d="M208 -15q-27 0 -52.5 9t-52.5 35q0 -84 0.5 -158.5t7.5 -143.5q-8 2 -15 2h-16h-16.5t-16.5 -2q0 37 0.5 63t1.5 58q1 46 2 94t1 107q0 75 -1 137.5t-2 118.5q-1 42 -1 81v77q9 -2 17 -2h16q7 0 16 0.5t15 1.5q-9 -120 -9 -273q0 -56 10 -85.5t25 -45.5q17 -18 40 -30
t56 -12q46 0 77.5 21t45.5 52q8 17 12.5 30.5t7 34.5t3 56t0.5 97v79t-1 76q8 -2 14.5 -2h17.5q8 0 16 0.5t15 1.5q-3 -40 -4 -76.5t-2 -72.5t-1 -72.5v-77.5q0 -40 1 -84t3 -82q-7 1 -14.5 1.5t-14.5 0.5q-8 0 -15.5 -0.5t-13.5 -1.5q1 11 1 26.5v31v30.5v26
q-35 -62 -81 -94.5t-93 -32.5z" />
    <glyph glyph-name="paragraph" unicode="&#xb6;" horiz-adv-x="496" 
d="M375 660l-87 -14v-764h-16v418q-66 0 -114 14.5t-79.5 41t-47 63.5t-15.5 81q0 91 51.5 135t142.5 44h258v-5l-77 -12v-780h-16v778z" />
    <glyph glyph-name="periodcentered" unicode="&#xb7;" horiz-adv-x="183" 
d="M39 305q0 22 14.5 36.5t36.5 14.5t36.5 -14.5t14.5 -36.5t-14.5 -37t-36.5 -15t-36.5 15t-14.5 37z" />
    <glyph glyph-name="cedilla" unicode="&#xb8;" horiz-adv-x="246" 
d="M33 -203q13 -4 31 -7t38 -3q30 0 51 13.5t21 39.5q0 29 -18 40.5t-44 11.5q-12 0 -22 -1t-17 -3q16 44 36 91h16l-28 -81q14 5 25 8t21 3q35 0 55 -16.5t20 -45.5q0 -38 -33.5 -58t-78.5 -20q-26 0 -45.5 4t-33.5 9zM70 -121l-3 10l3 -2q1 1 3 1z" />
    <glyph glyph-name="onesuperior" unicode="&#xb9;" horiz-adv-x="229" 
d="M138 634l-17 2q-17 -8 -34 -17.5t-34 -17.5l-4.5 4.5t-5.5 4.5q35 12 71.5 27t66.5 32q-3 -36 -4 -73.5t-1 -74.5v-103q0 -36 1.5 -72.5t3.5 -74.5q-5 1 -12 1.5t-12 0.5t-11.5 -0.5t-11.5 -1.5q3 41 3.5 74t0.5 73v216zM184 671q-2 -2 -3 -2q0 8 1 13l10 -11h-8v0z
M43 610q-8 -2 -11 -3l7 11v-4q1 -3 4 -4z" />
    <glyph glyph-name="ordmasculine" unicode="&#xba;" horiz-adv-x="395" 
d="M43 527q0 40 13.5 67.5t35.5 44.5t49.5 24.5t56.5 7.5q27 0 54.5 -7.5t49.5 -24.5t35.5 -44.5t13.5 -67.5q0 -39 -13.5 -66.5t-35.5 -44.5t-49.5 -24.5t-54.5 -7.5q-29 0 -56.5 7.5t-49.5 24.5t-35.5 44.5t-13.5 66.5zM90 527q0 -26 5.5 -51t18.5 -44.5t33.5 -31.5
t50.5 -12q29 0 49.5 12t33 31.5t18 44.5t5.5 51t-5.5 51.5t-18 45t-33 31.5t-49.5 12q-30 0 -50.5 -12t-33.5 -31.5t-18.5 -45t-5.5 -51.5z" />
    <glyph glyph-name="guillemotright" unicode="&#xbb;" horiz-adv-x="362" 
d="M200 391q16 6 24 16q29 -48 55.5 -90.5t55.5 -89.5q-31 -45 -59 -86.5t-58 -86.5q-4 4 -10.5 8.5t-11.5 6.5l110 156zM51 391q8 3 13.5 6.5t10.5 9.5q29 -48 55.5 -90.5t55.5 -89.5q-31 -45 -59 -86.5t-58 -86.5q-5 4 -11 8.5t-11 6.5l110 156z" />
    <glyph glyph-name="onequarter" unicode="&#xbc;" horiz-adv-x="762" 
d="M436 116q54 71 105 137t106 137q5 -1 10 -1.5t13 -0.5q11 0 16 1q-4 -66 -4 -130v-130q31 0 55 3q-2 -6 -1 -5.5t1 -5.5q0 -8 1 -12q-9 1 -23.5 1.5t-32.5 0.5q0 -26 0.5 -55.5t2.5 -57.5q-5 1 -11.5 1.5t-11.5 0.5t-11 -0.5t-11 -1.5q2 29 3 56.5t1 56.5h-57t-57.5 -0.5
t-52 -1t-41.5 -1.5v8zM644 338l-2 34q-5 -6 -13 -16.5t-16 -21.5t-16 -21.5t-13 -16.5q-29 -37 -56 -73.5t-50 -75.5l2 -18h164v209zM473 680q5 -2 8.5 -2h8.5h7q-35 -91 -69 -178.5t-68 -174t-68 -173.5t-69 -178q-5 2 -9 2h-9h-7zM120 634l-17 2q-17 -8 -34 -17.5
t-34 -17.5l-4.5 4.5t-5.5 4.5q35 12 71.5 27t66.5 32q-3 -36 -4 -73.5t-1 -74.5v-103q0 -36 1.5 -72.5t3.5 -74.5q-5 1 -12 1.5t-12 0.5t-11.5 -0.5t-11.5 -1.5q3 41 3.5 74t0.5 73v216zM166 671q-2 -2 -3 -2q0 8 1 13l10 -11h-8v0zM25 610q-8 -2 -11 -3l7 11v-4q1 -3 4 -4z
" />
    <glyph glyph-name="onehalf" unicode="&#xbd;" horiz-adv-x="749" 
d="M594 394q-39 0 -60.5 -19t-29.5 -39l-9 13q37 49 109 49q53 0 88 -23t35 -75q0 -23 -7 -44t-29 -48.5t-63 -66t-108 -98.5l2 -20h49.5t53.5 0.5t52.5 1t48.5 2.5q-1 -4 -1 -8v-8q0 -9 1 -14q-35 1 -64.5 2t-66.5 1q-31 0 -66 -1t-66 -3q8 8 18.5 17t18.5 17
q41 38 74 70.5t56.5 63.5t36.5 63t13 69q0 51 -25.5 74.5t-60.5 23.5zM470 680q5 -2 8.5 -2h8.5h8q-35 -91 -69.5 -178.5t-68.5 -174t-68 -173.5t-69 -178q-5 2 -9 2h-9h-7zM120 634l-17 2q-17 -8 -34 -17.5t-34 -17.5l-4.5 4.5t-5.5 4.5q36 12 72 27t66 32q-3 -36 -4 -73.5
t-1 -74.5v-103q0 -36 1.5 -72.5t3.5 -74.5q-5 1 -11.5 1.5t-12.5 0.5q-5 0 -11.5 -0.5t-11.5 -1.5q3 41 3.5 74t0.5 73v216zM166 671q-2 -2 -3 -2q0 8 1 13l10 -11h-8v0zM510 329l-10 -8q1 3 1.5 6.5t2.5 8.5l5 -7h1zM25 610q-8 -2 -11 -3l7 11v-4q1 -3 4 -4z" />
    <glyph glyph-name="threequarters" unicode="&#xbe;" horiz-adv-x="803" 
d="M476 116q54 71 105 137t106 137q5 -1 10.5 -1.5t13.5 -0.5q10 0 15 1q-4 -66 -4 -130v-130q30 0 56 3q-2 -6 -1 -5.5t1 -5.5q0 -8 1 -12q-9 1 -23.5 1.5t-33.5 0.5q0 -26 0.5 -55.5t2.5 -57.5q-5 1 -11 1.5t-11 0.5t-11.5 -0.5t-11.5 -1.5q2 29 3 56.5t1 56.5h-56.5
t-57.5 -0.5t-52.5 -1t-41.5 -1.5v8zM684 338l-2 34q-5 -6 -12.5 -16.5t-16 -21.5t-16.5 -21.5t-13 -16.5q-29 -37 -56 -73.5t-50 -75.5l3 -18h163v209zM526 680q5 -2 8.5 -2h8.5h7q-35 -91 -69 -178.5t-68 -174t-68 -173.5t-69 -178q-5 2 -9 2h-9h-7zM22 301
q14 -11 36 -20.5t52 -9.5q53 0 84 30.5t31 78.5q0 28 -8 47.5t-21.5 31t-30 16.5t-34.5 5h-14.5t-13.5 -2v1v2v5q5 -1 10 -1.5t10 -0.5q24 0 41 9l1 -16q17 -2 36 -7t34.5 -15.5t26 -26.5t10.5 -41q0 -54 -43.5 -87t-116.5 -33q-33 0 -55 5t-39 12zM250 591q0 -20 -7 -35.5
t-18.5 -27t-26 -19.5t-28.5 -12q20 15 28.5 40.5t8.5 48.5q0 42 -24.5 61.5t-55.5 19.5q-26 0 -46 -11t-31 -27q-2 3 -2.5 6.5t-2.5 6.5q13 11 34.5 20t62.5 9q22 0 41.5 -5t34.5 -15t23.5 -25t8.5 -35zM44 617q1 6 6 12l3.5 -7t3.5 -6l-8 5l-5 -4v0zM22 301q-4 4 -5 6h-1
l10 7l-4 -13v0zM164 496q2 0 3 0.5t3 0.5q-2 -1 -3 -2t-3 -2v3z" />
    <glyph glyph-name="questiondown" unicode="&#xbf;" horiz-adv-x="286" 
d="M140 277q-13 0 -23 -3l3 9q5 1 12 1.5t15 0.5q12 0 29 -5.5t32.5 -17.5t27 -32t11.5 -49q0 -26 -8 -47.5t-21 -40.5t-29.5 -36.5t-33.5 -34.5q-33 -34 -59 -67t-26 -76q0 -22 8.5 -39.5t22.5 -30t32 -19t36 -6.5q25 0 47 9.5t39 26.5q1 -8 1 -14t1 -11q-18 -11 -41 -20
t-53 -9q-35 0 -61.5 10t-44.5 27.5t-27 40t-9 48.5q0 28 8.5 52t22.5 45.5t31.5 40.5t35.5 37q17 16 32.5 32.5t27 33.5t18.5 35t7 38q0 12 -4 24.5t-12 23t-20 17t-28 6.5zM115 428q0 20 14.5 34.5t34.5 14.5t34 -14.5t14 -34.5t-14 -34t-34 -14t-34.5 14t-14.5 34z
M105 270q2 1 5 2t7 2q-2 -5 -5 -10.5t-5 -8.5l-2 15v0z" />
    <glyph glyph-name="Agrave" unicode="&#xc0;" horiz-adv-x="662" 
d="M344 698q18 -43 37 -86.5t39 -94.5q32 -76 64.5 -153t62.5 -146.5t55 -126.5t42 -93q-8 1 -18 1.5t-19 0.5q-14 0 -24.5 -0.5t-22.5 -2.5q-11 38 -33.5 93.5t-45.5 112.5q-6 16 -13.5 34.5t-14.5 33.5q-33 1 -70 1.5t-72 0.5q-32 0 -66 -0.5t-66 -1.5q-33 -81 -60 -153
t-41 -121q-15 3 -30 3h-11t-10 -1q41 90 80 176.5t77.5 172.5t76.5 173t77 177h6zM317 595l-127 -298h14t19 -0.5t20 -0.5h17q14 -1 28 -1h28q29 0 65.5 0.5t65.5 1.5zM217 847q-11 6 -21.5 16t-10.5 24q0 11 8 17t15 6q10 0 20 -6t20 -16q32 -32 66.5 -68t66.5 -68h-17z
" />
    <glyph glyph-name="Aacute" unicode="&#xc1;" horiz-adv-x="663" 
d="M335 698q18 -43 37 -86.5t39 -94.5q32 -76 64.5 -153t62.5 -146.5t55 -126.5t42 -93q-8 1 -18 1.5t-19 0.5q-14 0 -24.5 -0.5t-22.5 -2.5q-11 38 -33.5 93.5t-45.5 112.5q-6 16 -13.5 34.5t-14.5 33.5q-33 1 -70 1.5t-72 0.5q-32 0 -66 -0.5t-66 -1.5q-33 -81 -60 -153
t-41 -121q-15 3 -30 3h-11t-10 -1q41 90 80 176.5t77.5 172.5t76.5 173t77 177h6zM308 595l-127 -298h14t19 -0.5t20 -0.5h17q14 -1 28 -1h28q29 0 65.5 0.5t65.5 1.5zM415 888q9 10 19 16t20 6q7 0 15 -6t8 -17q0 -14 -10.5 -24t-21.5 -16q-35 -23 -73 -47.5t-74 -47.5h-17
z" />
    <glyph glyph-name="Acircumflex" unicode="&#xc2;" horiz-adv-x="668" 
d="M342 698q18 -43 37 -86.5t39 -94.5q32 -76 64.5 -153t62.5 -146.5t55 -126.5t42 -93q-8 1 -18 1.5t-19 0.5q-14 0 -24.5 -0.5t-22.5 -2.5q-11 38 -33.5 93.5t-45.5 112.5q-6 16 -13.5 34.5t-14.5 33.5q-33 1 -70 1.5t-72 0.5q-32 0 -66 -0.5t-66 -1.5q-33 -81 -60 -153
t-41 -121q-15 3 -30 3h-11t-10 -1q41 90 80 176.5t77.5 172.5t76.5 173t77 177h6zM315 595l-127 -298h14t19 -0.5t20 -0.5h17q14 -1 28 -1h28q29 0 65.5 0.5t65.5 1.5zM333 865q-29 -26 -63 -56.5t-64 -56.5h-13q31 41 56 76t55 76h59q11 -15 26 -35t30 -41t29.5 -41
t25.5 -35h-12z" />
    <glyph glyph-name="Atilde" unicode="&#xc3;" horiz-adv-x="662" 
d="M339 698q18 -43 37 -86.5t39 -94.5q32 -76 64.5 -153t62.5 -146.5t55 -126.5t42 -93q-8 1 -18 1.5t-19 0.5q-14 0 -24.5 -0.5t-22.5 -2.5q-11 38 -33.5 93.5t-45.5 112.5q-6 16 -13.5 34.5t-14.5 33.5q-33 1 -70 1.5t-72 0.5q-32 0 -66 -0.5t-66 -1.5q-33 -81 -60 -153
t-41 -121q-15 3 -30 3h-11t-10 -1q41 90 80 176.5t77.5 172.5t76.5 173t77 177h6zM312 595l-127 -298h14t19 -0.5t20 -0.5h17q14 -1 28 -1h28q29 0 65.5 0.5t65.5 1.5zM175 778q4 16 11 31.5t18.5 27.5t27 19.5t36.5 7.5q17 0 30.5 -4.5t40.5 -18.5q30 -15 44 -20t28 -5
q24 0 41.5 16.5t25.5 35.5h9q-3 -13 -9 -28.5t-18 -29t-29.5 -23t-42.5 -9.5q-14 0 -30 5t-39 18q-29 15 -43.5 20t-28.5 5q-27 0 -39.5 -11t-22.5 -37h-10z" />
    <glyph glyph-name="Adieresis" unicode="&#xc4;" horiz-adv-x="661" 
d="M339 698q18 -43 37 -86.5t39 -94.5q32 -76 64.5 -153t62.5 -146.5t55 -126.5t42 -93q-8 1 -18 1.5t-19 0.5q-14 0 -24.5 -0.5t-22.5 -2.5q-11 38 -33.5 93.5t-45.5 112.5q-6 16 -13.5 34.5t-14.5 33.5q-33 1 -70 1.5t-72 0.5q-32 0 -66 -0.5t-66 -1.5q-33 -81 -60 -153
t-41 -121q-15 3 -30 3h-11t-10 -1q41 90 80 176.5t77.5 172.5t76.5 173t77 177h6zM312 595l-127 -298h14t19 -0.5t20 -0.5h17q14 -1 28 -1h28q29 0 65.5 0.5t65.5 1.5zM390 822q0 18 12 30.5t30 12.5t30 -12.5t12 -30.5q0 -17 -12 -29.5t-30 -12.5t-30 12.5t-12 29.5z
M187 822q0 18 12 30.5t30 12.5t30 -12.5t12 -30.5q0 -17 -12 -29.5t-30 -12.5t-30 12.5t-12 29.5z" />
    <glyph glyph-name="Aring" unicode="&#xc5;" horiz-adv-x="667" 
d="M342 698q18 -43 37 -86.5t39 -94.5q32 -76 64.5 -153t62.5 -146.5t55 -126.5t42 -93q-8 1 -18 1.5t-19 0.5q-14 0 -24.5 -0.5t-22.5 -2.5q-11 38 -33.5 93.5t-45.5 112.5q-6 16 -13.5 34.5t-14.5 33.5q-33 1 -70 1.5t-72 0.5q-32 0 -66 -0.5t-66 -1.5q-33 -81 -60 -153
t-41 -121q-15 3 -30 3h-11t-10 -1q41 90 80 176.5t77.5 172.5t76.5 173t77 177h6zM315 595l-127 -298h14t19 -0.5t20 -0.5h17q14 -1 28 -1h28q29 0 65.5 0.5t65.5 1.5zM238 831q0 19 7.5 36.5t21 30t30.5 20t37 7.5t37.5 -7.5t30 -20t20 -30t7.5 -36.5q0 -20 -7.5 -37.5
t-21 -30t-31 -20t-36.5 -7.5q-20 0 -37 7.5t-30 20t-20.5 30t-7.5 37.5zM261 831q0 -30 21 -51t51 -21q31 0 52 21t21 51q0 29 -21.5 50.5t-50.5 21.5q-31 0 -52 -21.5t-21 -50.5z" />
    <glyph glyph-name="AE" unicode="&#xc6;" horiz-adv-x="829" 
d="M226 259q-40 -63 -76.5 -130.5t-67.5 -131.5q-10 2 -18 2.5t-18 0.5h-12t-12 -1q46 66 100.5 148.5t112.5 172.5t116.5 183.5t114.5 181.5q43 -3 84 -4.5t85 -1.5q39 0 79 1t78 4q-1 -5 -1 -10.5v-10.5v-9t1 -9q-14 3 -31 5t-44 3.5t-67.5 2.5t-100.5 1q0 -11 -0.5 -27.5
t-1.5 -27.5q-3 -68 -3 -136v-94q56 0 94 0.5t63.5 1t41.5 1.5t28 2q-1 -5 -1 -9v-8v-8t1 -9q-12 1 -28 2t-41.5 2t-63.5 1.5t-94 0.5v-114q0 -78 3 -154q1 -12 1.5 -29t0.5 -29q102 0 161.5 2.5t88.5 5.5q-1 -3 -1 -7.5v-9.5v-9t1 -9q-45 2 -81.5 3t-80.5 1q-42 0 -82 -1
t-82 -3q5 63 6 126.5t1 130.5zM480 625h-27l-216 -343l243 -6v349zM775 378q-1 0 -2 -0.5t-2 -0.5q1 5 5 15l10 -13q-3 0 -5 -0.5t-6 -0.5zM776 328q-3 7 -5 15h3q2 0 6 -0.5t6 -0.5l-10 -14v0z" />
    <glyph glyph-name="Ccedilla" unicode="&#xc7;" horiz-adv-x="629" 
d="M350 -114q-11 0 -21 -0.5t-17 -2.5l39 97q-72 8 -133 35.5t-105 73.5t-68.5 109t-24.5 142q0 85 27.5 151.5t77 112.5t118.5 70t152 24q62 0 115.5 -12t93.5 -29q-6 -14 -9 -30.5t-6 -32.5q-13 13 -32 28t-43.5 28t-54.5 21.5t-64 8.5q-63 0 -116.5 -20t-93.5 -62
t-62.5 -106t-22.5 -152q0 -89 22.5 -153t62.5 -106t93.5 -62t116.5 -20q34 0 63.5 7.5t54.5 18.5t45.5 24t36.5 25q-2 -10 -2.5 -20t-2.5 -19q-11 -8 -31 -17.5t-47 -17.5t-59 -13.5t-68 -5.5h-20l-30 -89q14 5 24.5 8t21.5 3q35 0 55 -17t20 -46q0 -38 -33 -57.5t-79 -19.5
q-26 0 -45.5 4t-32.5 9q2 5 3.5 8t3.5 6q12 -4 29.5 -6.5t38.5 -2.5q29 0 50.5 13.5t21.5 39.5q0 28 -18.5 40t-44.5 12zM595 74l3 19l1 -6l11 -1zM588 587q0 2 0.5 3.5t0.5 3.5q2 -1 2.5 -2t2.5 -2q1 1 3 1l-10 -10q0 1 0.5 3t0.5 3zM306 -117l2 -2l4 2l-4 -12z" />
    <glyph glyph-name="Egrave" unicode="&#xc8;" horiz-adv-x="402" 
d="M50 429q0 64 -2 128t-5 127q47 -3 86.5 -4t86.5 -1q40 0 85.5 1.5t85.5 3.5q-1 -5 -1 -10v-10v-10t1 -10q-15 1 -21.5 1.5t-18.5 1.5q-23 2 -45.5 4t-49 3.5t-59 2t-75.5 0.5q0 -14 -0.5 -30.5t-1.5 -29.5q-1 -19 -1.5 -38.5t-0.5 -42.5q0 -24 0.5 -47.5t0.5 -43.5v-55
q46 0 82.5 0.5t66 2t54 3t45.5 3.5q-1 -5 -1 -10.5v-10.5v-9.5t1 -9.5q-27 2 -62 3.5t-70 2.5t-66 1.5t-50 0.5q0 -9 -0.5 -21.5t-0.5 -31v-44.5v-63q0 -59 0.5 -102t1.5 -62h73t74.5 1t70 3t58.5 6q-1 -5 -1 -9.5v-9.5v-9t1 -9q-46 2 -85.5 3t-87.5 1q-45 0 -88 -1t-88 -3
q3 67 5 128.5t2 127.5v177zM95 847q-11 6 -21.5 16t-10.5 24q0 11 8 17t15 6q10 0 20 -6t19 -16q32 -32 67 -68t67 -68h-17z" />
    <glyph glyph-name="Eacute" unicode="&#xc9;" horiz-adv-x="401" 
d="M39 429q0 64 -2 128t-5 127q47 -3 86.5 -4t86.5 -1q40 0 85.5 1.5t85.5 3.5q-1 -5 -1 -10v-10v-10t1 -10q-15 1 -21.5 1.5t-18.5 1.5q-23 2 -45.5 4t-49 3.5t-59 2t-75.5 0.5q0 -14 -0.5 -30.5t-1.5 -29.5q-1 -19 -1.5 -38.5t-0.5 -42.5q0 -24 0.5 -47.5t0.5 -43.5v-55
q46 0 82.5 0.5t66 2t54 3t45.5 3.5q-1 -5 -1 -10.5v-10.5v-9.5t1 -9.5q-27 2 -62 3.5t-70 2.5t-66 1.5t-50 0.5q0 -9 -0.5 -21.5t-0.5 -31v-44.5v-63q0 -59 0.5 -102t1.5 -62h73t74.5 1t70 3t58.5 6q-1 -5 -1 -9.5v-9.5v-9t1 -9q-46 2 -85.5 3t-87.5 1q-45 0 -88 -1t-88 -3
q3 67 5 128.5t2 127.5v177zM290 888q10 10 20 16t20 6q7 0 15 -6t8 -17q0 -14 -10.5 -24t-21.5 -16q-35 -23 -73.5 -47.5t-73.5 -47.5h-17z" />
    <glyph glyph-name="Ecircumflex" unicode="&#xca;" horiz-adv-x="408" 
d="M48 429q0 64 -2 128t-5 127q47 -3 86.5 -4t86.5 -1q40 0 85.5 1.5t85.5 3.5q-1 -5 -1 -10v-10v-10t1 -10q-15 1 -21.5 1.5t-18.5 1.5q-23 2 -45.5 4t-49 3.5t-59 2t-75.5 0.5q0 -14 -0.5 -30.5t-1.5 -29.5q-1 -19 -1.5 -38.5t-0.5 -42.5q0 -24 0.5 -47.5t0.5 -43.5v-55
q46 0 82.5 0.5t66 2t54 3t45.5 3.5q-1 -5 -1 -10.5v-10.5v-9.5t1 -9.5q-27 2 -62 3.5t-70 2.5t-66 1.5t-50 0.5q0 -9 -0.5 -21.5t-0.5 -31v-44.5v-63q0 -59 0.5 -102t1.5 -62h73t74.5 1t70 3t58.5 6q-1 -5 -1 -9.5v-9.5v-9t1 -9q-46 2 -85.5 3t-87.5 1q-45 0 -88 -1t-88 -3
q3 67 5 128.5t2 127.5v177zM211 865q-29 -26 -63.5 -56.5t-63.5 -56.5h-13q31 41 56 76t55 76h59q11 -15 26 -35t30 -41t29.5 -41t25.5 -35h-12z" />
    <glyph glyph-name="Edieresis" unicode="&#xcb;" horiz-adv-x="407" 
d="M48 429q0 64 -2 128t-5 127q47 -3 86.5 -4t86.5 -1q40 0 85.5 1.5t85.5 3.5q-1 -5 -1 -10v-10v-10t1 -10q-15 1 -21.5 1.5t-18.5 1.5q-23 2 -45.5 4t-49 3.5t-59 2t-75.5 0.5q0 -14 -0.5 -30.5t-1.5 -29.5q-1 -19 -1.5 -38.5t-0.5 -42.5q0 -24 0.5 -47.5t0.5 -43.5v-55
q46 0 82.5 0.5t66 2t54 3t45.5 3.5q-1 -5 -1 -10.5v-10.5v-9.5t1 -9.5q-27 2 -62 3.5t-70 2.5t-66 1.5t-50 0.5q0 -9 -0.5 -21.5t-0.5 -31v-44.5v-63q0 -59 0.5 -102t1.5 -62h73t74.5 1t70 3t58.5 6q-1 -5 -1 -9.5v-9.5v-9t1 -9q-46 2 -85.5 3t-87.5 1q-45 0 -88 -1t-88 -3
q3 67 5 128.5t2 127.5v177zM68 822q0 18 12 30.5t30 12.5t30 -12.5t12 -30.5q0 -17 -12 -29.5t-30 -12.5t-30 12.5t-12 29.5zM271 822q0 18 12 30.5t30 12.5q17 0 29.5 -12.5t12.5 -30.5q0 -17 -12.5 -29.5t-29.5 -12.5q-18 0 -30 12.5t-12 29.5z" />
    <glyph glyph-name="Igrave" unicode="&#xcc;" horiz-adv-x="254" 
d="M133 428q0 66 -2.5 127t-5.5 126q10 -2 19.5 -2h19.5h20.5t19.5 2q-4 -66 -6 -126t-2 -127v-177q0 -65 2 -126.5t6 -126.5q-10 2 -19.5 2h-20.5h-19.5t-19.5 -2q3 66 5.5 126.5t2.5 126.5v177zM46 847q-11 6 -21.5 16t-10.5 24q0 11 8.5 17t15.5 6q9 0 19.5 -6t19.5 -16
q32 -32 67 -68t67 -68h-18z" />
    <glyph glyph-name="Iacute" unicode="&#xcd;" horiz-adv-x="253" 
d="M56 428q0 66 -2 127t-6 126q10 -2 19.5 -2h20.5h19.5t19.5 2q-4 -66 -6 -126t-2 -127v-177q0 -65 2 -126.5t6 -126.5q-10 2 -19.5 2h-19.5h-20.5t-19.5 -2q4 66 6 126.5t2 126.5v177zM176 888q8 8 19.5 15t19.5 7q7 0 15.5 -6t8.5 -17q0 -14 -10.5 -24t-21.5 -16
q-35 -23 -73.5 -47.5t-73.5 -47.5h-18z" />
    <glyph glyph-name="Icircumflex" unicode="&#xce;" horiz-adv-x="336" 
d="M135 428q0 66 -2 127t-5 126q9 -2 19 -2h20h20t19 2q-3 -66 -5 -126t-2 -127v-177q0 -65 2 -126.5t5 -126.5q-9 2 -19 2h-20h-20t-19 -2q3 66 5 126.5t2 126.5v177zM167 865q-29 -26 -63 -56.5t-64 -56.5h-13q31 41 56 76t55 76h59q11 -15 26 -35t30 -41t29.5 -41
t25.5 -35h-12z" />
    <glyph glyph-name="Idieresis" unicode="&#xcf;" horiz-adv-x="319" 
d="M127 428q0 66 -2 127t-5 126q9 -2 19 -2h20h20t19 2q-3 -66 -5 -126t-2 -127v-177q0 -65 2 -126.5t5 -126.5q-9 2 -19 2h-20h-20t-19 -2q3 66 5 126.5t2 126.5v177zM16 822q0 18 12 30.5t30 12.5t30 -12.5t12 -30.5q0 -17 -12 -29.5t-30 -12.5t-30 12.5t-12 29.5z
M219 822q0 18 12 30.5t30 12.5t30 -12.5t12 -30.5q0 -17 -12 -29.5t-30 -12.5t-30 12.5t-12 29.5z" />
    <glyph glyph-name="Eth" unicode="&#xd0;" horiz-adv-x="780" 
d="M127 428q0 64 -2.5 128t-5.5 128q39 -3 72.5 -4t71.5 -1q20 0 39 0.5t39 1.5q19 1 38.5 2.5t39.5 1.5q88 0 150 -23t102 -65.5t58.5 -104t18.5 -138.5q0 -101 -34.5 -169.5t-88 -110.5t-118 -60.5t-123.5 -18.5q-18 0 -35 0.5t-34 1.5t-34.5 2t-34.5 1q-32 0 -63.5 -1
t-63.5 -3q3 66 5.5 127.5t2.5 127.5v125h-47.5t-51.5 -1v19q29 -2 52 -1.5t47 0.5v35zM190 251q0 -55 1.5 -113.5t5.5 -112.5q26 -6 65 -9.5t80 -3.5q58 0 116.5 14t105 52t75.5 104.5t29 171.5q0 93 -22.5 152.5t-63 94t-96 48t-121.5 13.5q-47 0 -90 -3.5t-78 -7.5
q-4 -50 -5.5 -108.5t-1.5 -114.5v-35h98t97 2v-22q-48 2 -96.5 2.5t-98.5 0.5v-125z" />
    <glyph glyph-name="Ntilde" unicode="&#xd1;" horiz-adv-x="661" 
d="M611 350q0 -37 0.5 -90t1 -106.5t1 -100.5t0.5 -71q-53 62 -111 127t-118.5 130.5t-122 131.5t-121.5 130l-61 65v-38q-1 -29 -2 -75.5t-1 -121.5q0 -31 0.5 -78.5t1.5 -96.5t2.5 -92.5t3.5 -65.5q-5 1 -11.5 1.5t-13.5 0.5q-6 0 -13 -0.5t-12 -1.5q3 27 6.5 80.5
t6 116.5t4.5 126.5t2 110.5v154.5t-2 111.5h1q10 -11 20 -22.5t21 -22.5q61 -66 129.5 -140.5t135.5 -145.5t126.5 -134t102.5 -106v140t-1 145.5t-2 141t-4 127.5q5 -1 12 -1.5t12 -0.5q6 0 11 0.5t10 1.5q-2 -28 -5 -72.5t-5 -92.5t-3.5 -93t-1.5 -73zM191 778
q4 16 11 31.5t18.5 27.5t27.5 19.5t37 7.5q16 0 30 -4.5t41 -18.5q30 -15 43.5 -20t28.5 -5q24 0 41 16.5t26 35.5h9q-3 -13 -9.5 -28.5t-18 -29t-29.5 -23t-43 -9.5q-13 0 -29.5 5t-39.5 18q-29 15 -43.5 20t-28.5 5q-27 0 -39 -11t-23 -37h-10zM614 -18l1 -1h-1v1z" />
    <glyph glyph-name="Ograve" unicode="&#xd2;" horiz-adv-x="793" 
d="M23 340q0 85 27.5 151.5t77.5 112.5t118.5 70t151.5 24t152 -24t119 -70t77.5 -112.5t27.5 -151.5q0 -86 -27.5 -152.5t-77.5 -112.5t-119 -70t-152 -24t-151.5 24t-118.5 70t-77.5 112.5t-27.5 152.5zM693 340q0 88 -22.5 152t-62 106t-93.5 62t-117 20t-116.5 -20
t-93 -62t-62 -106t-22.5 -152q0 -89 22.5 -153t62 -106t93 -62t116.5 -20t117 20t93.5 62t62 106t22.5 153zM280 847q-11 6 -21.5 16t-10.5 24q0 11 8 17t15 6q10 0 20 -6t20 -16q32 -32 66.5 -68t66.5 -68h-17z" />
    <glyph glyph-name="Oacute" unicode="&#xd3;" horiz-adv-x="793" 
d="M19 340q0 85 27.5 151.5t77.5 112.5t118.5 70t151.5 24t152 -24t119 -70t77.5 -112.5t27.5 -151.5q0 -86 -27.5 -152.5t-77.5 -112.5t-119 -70t-152 -24t-151.5 24t-118.5 70t-77.5 112.5t-27.5 152.5zM689 340q0 88 -22.5 152t-62 106t-93.5 62t-117 20t-116.5 -20
t-93 -62t-62 -106t-22.5 -152q0 -89 22.5 -153t62 -106t93 -62t116.5 -20t117 20t93.5 62t62 106t22.5 153zM483 888q9 10 19 16t20 6q7 0 15 -6t8 -17q0 -14 -10.5 -24t-21.5 -16q-35 -23 -73 -47.5t-74 -47.5h-17z" />
    <glyph glyph-name="Ocircumflex" unicode="&#xd4;" horiz-adv-x="797" 
d="M23 340q0 85 27.5 151.5t77.5 112.5t118.5 70t151.5 24t152 -24t119 -70t77.5 -112.5t27.5 -151.5q0 -86 -27.5 -152.5t-77.5 -112.5t-119 -70t-152 -24t-151.5 24t-118.5 70t-77.5 112.5t-27.5 152.5zM693 340q0 88 -22.5 152t-62 106t-93.5 62t-117 20t-116.5 -20
t-93 -62t-62 -106t-22.5 -152q0 -89 22.5 -153t62 -106t93 -62t116.5 -20t117 20t93.5 62t62 106t22.5 153zM398 865q-29 -26 -63 -56.5t-64 -56.5h-13q31 41 56 76t55 76h59q11 -15 26 -35t30 -41t29.5 -41t25.5 -35h-12z" />
    <glyph glyph-name="Otilde" unicode="&#xd5;" horiz-adv-x="797" 
d="M23 340q0 85 27.5 151.5t77.5 112.5t118.5 70t151.5 24t152 -24t119 -70t77.5 -112.5t27.5 -151.5q0 -86 -27.5 -152.5t-77.5 -112.5t-119 -70t-152 -24t-151.5 24t-118.5 70t-77.5 112.5t-27.5 152.5zM693 340q0 88 -22.5 152t-62 106t-93.5 62t-117 20t-116.5 -20
t-93 -62t-62 -106t-22.5 -152q0 -89 22.5 -153t62 -106t93 -62t116.5 -20t117 20t93.5 62t62 106t22.5 153zM243 778q4 16 11 31.5t18.5 27.5t27 19.5t36.5 7.5q17 0 30.5 -4.5t40.5 -18.5q30 -15 44 -20t28 -5q24 0 41.5 16.5t25.5 35.5h9q-3 -13 -9 -28.5t-18 -29
t-29.5 -23t-42.5 -9.5q-14 0 -30 5t-39 18q-29 15 -43.5 20t-28.5 5q-27 0 -39.5 -11t-22.5 -37h-10z" />
    <glyph glyph-name="Odieresis" unicode="&#xd6;" horiz-adv-x="797" 
d="M23 340q0 85 27.5 151.5t77.5 112.5t118.5 70t151.5 24t152 -24t119 -70t77.5 -112.5t27.5 -151.5q0 -86 -27.5 -152.5t-77.5 -112.5t-119 -70t-152 -24t-151.5 24t-118.5 70t-77.5 112.5t-27.5 152.5zM693 340q0 88 -22.5 152t-62 106t-93.5 62t-117 20t-116.5 -20
t-93 -62t-62 -106t-22.5 -152q0 -89 22.5 -153t62 -106t93 -62t116.5 -20t117 20t93.5 62t62 106t22.5 153zM458 822q0 18 12 30.5t30 12.5t30 -12.5t12 -30.5q0 -17 -12 -29.5t-30 -12.5t-30 12.5t-12 29.5zM255 822q0 18 12 30.5t30 12.5t30 -12.5t12 -30.5
q0 -17 -12 -29.5t-30 -12.5t-30 12.5t-12 29.5z" />
    <glyph glyph-name="multiply" unicode="&#xd7;" horiz-adv-x="518" 
d="M235 250q-45 46 -94 95.5t-95 95.5q8 8 12 11.5l12 10.5l189 -189q46 46 95.5 94.5t94.5 94.5q8 -8 12 -11.5t11 -10.5l-189 -191l189 -189q-8 -9 -11.5 -13t-11.5 -11l-190 189l-189 -189q-9 8 -13 12t-11 12z" />
    <glyph glyph-name="Oslash" unicode="&#xd8;" horiz-adv-x="809" 
d="M29 340q0 85 27.5 151.5t77.5 112.5t118.5 70t151.5 24q72 0 134.5 -19t113.5 -56q8 8 20.5 21.5t25 28t24.5 29t20 24.5q2 -2 5 -4.5t5 -4.5q-7 -6 -19 -18.5t-25 -27l-26 -29t-23 -25.5q57 -49 89 -119t32 -158q0 -86 -27.5 -152.5t-77.5 -112.5t-119 -70t-152 -24
q-71 0 -132.5 19t-112.5 55q-10 -11 -22.5 -25t-25.5 -29t-24.5 -28.5t-19.5 -23.5l-9 9q7 7 19 19.5t25 27t26 29.5t24 27q-58 49 -90.5 118.5t-32.5 160.5zM622 589q-42 48 -98 69.5t-120 21.5q-63 0 -116.5 -20t-93 -62t-62 -106t-22.5 -152q0 -78 19 -139t54 -106z
M189 89q42 -46 97 -68t118 -22t117 20t93.5 62t62 106t22.5 153q0 76 -18 135.5t-53 107.5z" />
    <glyph glyph-name="Ugrave" unicode="&#xd9;" horiz-adv-x="643" 
d="M573 360q0 132 -0.5 209t-3.5 112q6 -1 14.5 -1.5t15.5 -0.5q4 0 9 0.5t10 1.5q-3 -36 -6 -83.5t-5 -102t-3.5 -113t-2.5 -114.5q-1 -66 -20 -119t-55 -90.5t-88.5 -57.5t-119.5 -20q-148 0 -216 70t-68 215q0 23 1 46.5t2 43.5q1 19 1.5 36.5t0.5 35.5q0 73 -1.5 133.5
t-3.5 105.5v15q21 -3 42 -3h16.5t16.5 2q-2 -24 -4.5 -60t-4 -80t-2.5 -94.5t-1 -104.5q0 -36 1 -74.5t8 -75.5t21 -70.5t41 -58.5t68 -39.5t101 -14.5q59 0 99.5 16.5t66.5 44.5t40.5 64t21 75t7.5 78t1 73zM208 847q-11 6 -21.5 16t-10.5 24q0 11 8 17t15 6q10 0 20 -6
t20 -16q32 -32 66.5 -68t66.5 -68h-17z" />
    <glyph glyph-name="Uacute" unicode="&#xda;" horiz-adv-x="642" 
d="M566 360q0 132 -0.5 209t-3.5 112q6 -1 14.5 -1.5t15.5 -0.5q4 0 9 0.5t10 1.5q-3 -36 -6 -83.5t-5 -102t-3.5 -113t-2.5 -114.5q-1 -66 -20 -119t-55 -90.5t-88.5 -57.5t-119.5 -20q-148 0 -216 70t-68 215q0 23 1 46.5t2 43.5q1 19 1.5 36.5t0.5 35.5q0 73 -1.5 133.5
t-3.5 105.5v15q21 -3 42 -3h16.5t16.5 2q-2 -24 -4.5 -60t-4 -80t-2.5 -94.5t-1 -104.5q0 -36 1 -74.5t8 -75.5t21 -70.5t41 -58.5t68 -39.5t101 -14.5q59 0 99.5 16.5t66.5 44.5t40.5 64t21 75t7.5 78t1 73zM408 888q8 8 19 15t20 7q7 0 15 -6t8 -17q0 -14 -10.5 -24
t-21.5 -16q-35 -23 -73 -47.5t-74 -47.5h-17z" />
    <glyph glyph-name="Ucircumflex" unicode="&#xdb;" horiz-adv-x="647" 
d="M572 360q0 132 -0.5 209t-3.5 112q6 -1 14.5 -1.5t15.5 -0.5q4 0 9 0.5t10 1.5q-3 -36 -6 -83.5t-5 -102t-3.5 -113t-2.5 -114.5q-1 -66 -20 -119t-55 -90.5t-88.5 -57.5t-119.5 -20q-148 0 -216 70t-68 215q0 23 1 46.5t2 43.5q1 19 1.5 36.5t0.5 35.5q0 73 -1.5 133.5
t-3.5 105.5v15q21 -3 42 -3h16.5t16.5 2q-2 -24 -4.5 -60t-4 -80t-2.5 -94.5t-1 -104.5q0 -36 1 -74.5t8 -75.5t21 -70.5t41 -58.5t68 -39.5t101 -14.5q59 0 99.5 16.5t66.5 44.5t40.5 64t21 75t7.5 78t1 73zM325 865q-29 -26 -63 -56.5t-64 -56.5h-13q31 41 56 76t55 76h59
q11 -15 26 -35t30 -41t29.5 -41t25.5 -35h-12z" />
    <glyph glyph-name="Udieresis" unicode="&#xdc;" horiz-adv-x="648" 
d="M572 360q0 132 -0.5 209t-3.5 112q6 -1 14.5 -1.5t15.5 -0.5q4 0 9 0.5t10 1.5q-3 -36 -6 -83.5t-5 -102t-3.5 -113t-2.5 -114.5q-1 -66 -20 -119t-55 -90.5t-88.5 -57.5t-119.5 -20q-148 0 -216 70t-68 215q0 23 1 46.5t2 43.5q1 19 1.5 36.5t0.5 35.5q0 73 -1.5 133.5
t-3.5 105.5v15q21 -3 42 -3h16.5t16.5 2q-2 -24 -4.5 -60t-4 -80t-2.5 -94.5t-1 -104.5q0 -36 1 -74.5t8 -75.5t21 -70.5t41 -58.5t68 -39.5t101 -14.5q59 0 99.5 16.5t66.5 44.5t40.5 64t21 75t7.5 78t1 73zM182 822q0 18 12 30.5t30 12.5t30 -12.5t12 -30.5
q0 -17 -12 -29.5t-30 -12.5t-30 12.5t-12 29.5zM385 822q0 18 12 30.5t30 12.5t30 -12.5t12 -30.5q0 -17 -12 -29.5t-30 -12.5t-30 12.5t-12 29.5z" />
    <glyph glyph-name="Yacute" unicode="&#xdd;" horiz-adv-x="582" 
d="M257 282q-10 16 -27 46t-39 66.5t-46 77.5t-47.5 80t-44.5 72.5t-35 56.5q10 -1 18.5 -1.5t17.5 -0.5q27 0 51 3q45 -88 95.5 -179t104.5 -184q26 41 53.5 87t53.5 93t50.5 93.5t44.5 89.5q9 -2 16.5 -2.5t17.5 -0.5h9.5t9.5 1q-47 -72 -84.5 -131t-66.5 -106
t-50.5 -84.5t-36.5 -67.5q0 -36 0.5 -76.5t1.5 -80.5t2 -75.5t3 -60.5q-9 2 -19 2h-20h-19.5t-18.5 -2q5 54 5.5 127.5t0.5 151.5zM378 878q8 8 19 15t20 7q7 0 15 -6t8 -17q0 -15 -10.5 -24.5t-21.5 -15.5q-35 -23 -73 -47.5t-74 -47.5h-17z" />
    <glyph glyph-name="Thorn" unicode="&#xde;" horiz-adv-x="474" 
d="M54 428q0 66 -2 127t-5 126q9 -2 19 -2h20h20t18 2q-6 -60 -6 -131h137q100 0 156 -40.5t56 -128.5q0 -54 -21.5 -89.5t-56.5 -56.5t-78.5 -29.5t-86.5 -8.5q-28 0 -56 1.5t-50 3.5v-69q0 -40 1 -76t4 -59q-10 2 -18 2h-19h-20t-19 -2q3 66 5 126.5t2 126.5v177zM118 219
q17 -3 41 -4t50 -1q35 0 68 10t59 30.5t41.5 51.5t15.5 74q0 28 -9 55t-29 48.5t-53.5 35t-81.5 13.5h-102v-313z" />
    <glyph glyph-name="germandbls" unicode="&#xdf;" horiz-adv-x="518" 
d="M47 408q0 29 -0.5 55.5t-1.5 43.5q0 9 -0.5 15t-0.5 10q0 61 19 104t48 70t64 39t68 12q22 0 46.5 -7.5t45.5 -21.5t34.5 -33.5t13.5 -43.5q0 -21 -6.5 -39.5t-16.5 -35t-22 -31.5t-24 -28q-20 -23 -36.5 -45t-16.5 -45q0 -18 8 -32.5t21 -27t30.5 -24.5t37.5 -24
q21 -14 43 -28.5t39 -32.5t28 -40.5t11 -50.5q0 -32 -15.5 -64.5t-42 -58.5t-61 -42.5t-72.5 -16.5q-28 0 -50 4.5t-39 12.5q3 8 6.5 17.5t5.5 19.5q16 -17 42 -27t55 -10q23 0 45 8.5t39 24t27.5 37.5t10.5 49t-10.5 49t-27.5 40t-38.5 33t-43.5 30h1q-19 13 -36.5 26
t-31.5 27t-22.5 30t-8.5 35q0 26 17 49t40 48q15 15 29.5 31.5t26 35t18.5 39t7 44.5q0 46 -30 76t-83 30q-39 0 -64.5 -14.5t-41 -42.5t-22 -69t-6.5 -95v-242q0 -33 0.5 -71.5t1 -76.5t2 -73t3.5 -62q-9 2 -18 2h-17h-18.5t-16.5 -2q2 26 3.5 60t2 71.5t1 76.5t0.5 75v127
zM211 39q-7 4 -12 15l6 -5l9 9l-3 -19v0z" />
    <glyph glyph-name="agrave" unicode="&#xe0;" horiz-adv-x="463" 
d="M208 454q-40 0 -75 -16.5t-56 -45.5v30q45 33 81.5 44t74.5 11q34 0 63 -10t49.5 -29t32 -45t11.5 -58q0 -29 -0.5 -57t-1.5 -57q-1 -30 -1.5 -61.5t-0.5 -64.5q0 -14 1 -29.5t5.5 -28.5t15 -21t29.5 -8q3 0 5 -0.5t6 0.5v-2q-22 -10 -56 -10q-28 0 -43 22t-19 54
q-22 -22 -41.5 -38t-40 -27t-42 -16.5t-46.5 -5.5q-24 0 -47 8t-40.5 23t-28.5 36.5t-11 48.5q0 55 38.5 87.5t98.5 43.5q55 9 87 16t49 16t22 20.5t5 29.5q0 28 -6.5 53t-21.5 44.5t-38.5 31t-57.5 11.5zM332 258q-23 -7 -39.5 -10.5t-31.5 -6.5q-27 -6 -56.5 -13
t-53.5 -20.5t-39.5 -35.5t-15.5 -57q0 -27 8.5 -47.5t22.5 -34t32 -20t37 -6.5q42 0 77 24t55 56zM118 670q-11 6 -21.5 16t-10.5 24q0 11 8 17t15 6q10 0 20 -6t19 -16q32 -32 67 -68t67 -68h-17zM67 384h5q1 2 5 8v-18z" />
    <glyph glyph-name="aacute" unicode="&#xe1;" horiz-adv-x="459" 
d="M193 454q-40 0 -75 -16.5t-56 -45.5v30q45 33 81.5 44t74.5 11q34 0 63 -10t49.5 -29t32 -45t11.5 -58q0 -29 -0.5 -57t-1.5 -57q-1 -30 -1.5 -61.5t-0.5 -64.5q0 -14 1 -29.5t5.5 -28.5t15 -21t29.5 -8q3 0 5 -0.5t6 0.5v-2q-22 -10 -56 -10q-28 0 -43 22t-19 54
q-22 -22 -41.5 -38t-40 -27t-42 -16.5t-46.5 -5.5q-24 0 -47 8t-40.5 23t-28.5 36.5t-11 48.5q0 55 38.5 87.5t98.5 43.5q55 9 87 16t49 16t22 20.5t5 29.5q0 28 -6.5 53t-21.5 44.5t-38.5 31t-57.5 11.5zM317 258q-23 -7 -39.5 -10.5t-31.5 -6.5q-27 -6 -56.5 -13
t-53.5 -20.5t-39.5 -35.5t-15.5 -57q0 -27 8.5 -47.5t22.5 -34t32 -20t37 -6.5q42 0 77 24t55 56zM309 711q10 10 20 16t20 6q7 0 15 -6t8 -17q0 -14 -10.5 -24t-21.5 -16q-35 -23 -73.5 -47.5t-73.5 -47.5h-17zM52 384h5q1 2 5 8v-18z" />
    <glyph glyph-name="acircumflex" unicode="&#xe2;" horiz-adv-x="466" 
d="M203 454q-40 0 -75 -16.5t-56 -45.5v30q45 33 81.5 44t74.5 11q34 0 63 -10t49.5 -29t32 -45t11.5 -58q0 -29 -0.5 -57t-1.5 -57q-1 -30 -1.5 -61.5t-0.5 -64.5q0 -14 1 -29.5t5.5 -28.5t15 -21t29.5 -8q3 0 5 -0.5t6 0.5v-2q-22 -10 -56 -10q-28 0 -43 22t-19 54
q-22 -22 -41.5 -38t-40 -27t-42 -16.5t-46.5 -5.5q-24 0 -47 8t-40.5 23t-28.5 36.5t-11 48.5q0 55 38.5 87.5t98.5 43.5q55 9 87 16t49 16t22 20.5t5 29.5q0 28 -6.5 53t-21.5 44.5t-38.5 31t-57.5 11.5zM327 258q-23 -7 -39.5 -10.5t-31.5 -6.5q-27 -6 -56.5 -13
t-53.5 -20.5t-39.5 -35.5t-15.5 -57q0 -27 8.5 -47.5t22.5 -34t32 -20t37 -6.5q42 0 77 24t55 56zM231 688q-29 -26 -63.5 -56.5t-63.5 -56.5h-13q31 41 56 76t55 76h59q11 -15 26 -35t30 -41t29.5 -41t25.5 -35h-12zM62 384h5q1 2 5 8v-18z" />
    <glyph glyph-name="atilde" unicode="&#xe3;" horiz-adv-x="473" 
d="M207 454q-40 0 -75 -16.5t-56 -45.5v30q45 33 81.5 44t74.5 11q34 0 63 -10t49.5 -29t32 -45t11.5 -58q0 -29 -0.5 -57t-1.5 -57q-1 -30 -1.5 -61.5t-0.5 -64.5q0 -14 1 -29.5t5.5 -28.5t15 -21t29.5 -8q3 0 5 -0.5t6 0.5v-2q-22 -10 -56 -10q-28 0 -43 22t-19 54
q-22 -22 -41.5 -38t-40 -27t-42 -16.5t-46.5 -5.5q-24 0 -47 8t-40.5 23t-28.5 36.5t-11 48.5q0 55 38.5 87.5t98.5 43.5q55 9 87 16t49 16t22 20.5t5 29.5q0 28 -6.5 53t-21.5 44.5t-38.5 31t-57.5 11.5zM331 258q-23 -7 -39.5 -10.5t-31.5 -6.5q-27 -6 -56.5 -13
t-53.5 -20.5t-39.5 -35.5t-15.5 -57q0 -27 8.5 -47.5t22.5 -34t32 -20t37 -6.5q42 0 77 24t55 56zM79 601q4 16 11.5 31.5t19 27.5t27 19.5t36.5 7.5q17 0 30.5 -5t40.5 -18q30 -15 44 -20t28 -5q24 0 41.5 16.5t25.5 35.5h9q-3 -13 -9.5 -28.5t-18 -29t-29 -23t-42.5 -9.5
q-14 0 -30 5t-39 18q-29 15 -43.5 20t-28.5 5q-27 0 -39.5 -11t-22.5 -37h-11zM66 384h5q1 2 5 8v-18z" />
    <glyph glyph-name="adieresis" unicode="&#xe4;" horiz-adv-x="471" 
d="M206 454q-40 0 -75 -16.5t-56 -45.5v30q45 33 81.5 44t74.5 11q34 0 63 -10t49.5 -29t32 -45t11.5 -58q0 -29 -0.5 -57t-1.5 -57q-1 -30 -1.5 -61.5t-0.5 -64.5q0 -14 1 -29.5t5.5 -28.5t15 -21t29.5 -8q3 0 5 -0.5t6 0.5v-2q-22 -10 -56 -10q-28 0 -43 22t-19 54
q-22 -22 -41.5 -38t-40 -27t-42 -16.5t-46.5 -5.5q-24 0 -47 8t-40.5 23t-28.5 36.5t-11 48.5q0 55 38.5 87.5t98.5 43.5q55 9 87 16t49 16t22 20.5t5 29.5q0 28 -6.5 53t-21.5 44.5t-38.5 31t-57.5 11.5zM330 258q-23 -7 -39.5 -10.5t-31.5 -6.5q-27 -6 -56.5 -13
t-53.5 -20.5t-39.5 -35.5t-15.5 -57q0 -27 8.5 -47.5t22.5 -34t32 -20t37 -6.5q42 0 77 24t55 56zM294 645q0 18 12 30.5t30 12.5q17 0 29.5 -12.5t12.5 -30.5q0 -17 -12.5 -29.5t-29.5 -12.5q-18 0 -30 12.5t-12 29.5zM91 645q0 18 12 30.5t30 12.5t30 -12.5t12 -30.5
q0 -17 -12 -29.5t-30 -12.5t-30 12.5t-12 29.5zM65 384h5q1 2 5 8v-18z" />
    <glyph glyph-name="aring" unicode="&#xe5;" horiz-adv-x="465" 
d="M203 454q-40 0 -75 -16.5t-56 -45.5v30q45 33 81.5 44t74.5 11q34 0 63 -10t49.5 -29t32 -45t11.5 -58q0 -29 -0.5 -57t-1.5 -57q-1 -30 -1.5 -61.5t-0.5 -64.5q0 -14 1 -29.5t5.5 -28.5t15 -21t29.5 -8q3 0 5 -0.5t6 0.5v-2q-22 -10 -56 -10q-28 0 -43 22t-19 54
q-22 -22 -41.5 -38t-40 -27t-42 -16.5t-46.5 -5.5q-24 0 -47 8t-40.5 23t-28.5 36.5t-11 48.5q0 55 38.5 87.5t98.5 43.5q55 9 87 16t49 16t22 20.5t5 29.5q0 28 -6.5 53t-21.5 44.5t-38.5 31t-57.5 11.5zM327 258q-23 -7 -39.5 -10.5t-31.5 -6.5q-27 -6 -56.5 -13
t-53.5 -20.5t-39.5 -35.5t-15.5 -57q0 -27 8.5 -47.5t22.5 -34t32 -20t37 -6.5q42 0 77 24t55 56zM136 654q0 19 7.5 36.5t20.5 30t30.5 20t37.5 7.5q19 0 36.5 -7.5t30.5 -20t20.5 -30t7.5 -36.5q0 -20 -7.5 -37.5t-21 -30t-31 -20t-36.5 -7.5q-40 0 -67.5 27.5t-27.5 67.5
zM159 654q0 -30 21 -51t51 -21q31 0 52 21t21 51q0 29 -21.5 50.5t-50.5 21.5q-31 0 -52 -21.5t-21 -50.5zM62 384h5q1 2 5 8v-18z" />
    <glyph glyph-name="ae" unicode="&#xe6;" horiz-adv-x="784" 
d="M211 454q-41 0 -75.5 -16.5t-55.5 -45.5v30q45 33 81.5 44t74.5 11q16 0 35 -3.5t39.5 -13t41 -26t38.5 -42.5q29 39 69 62t87 23q51 0 89.5 -16t63.5 -43t37.5 -63.5t12.5 -77.5v-15t-1 -15q-14 0 -33.5 0.5t-32.5 0.5q-36 1 -72 1.5t-73 0.5q-20 0 -44.5 -0.5
t-44.5 -1.5q-12 0 -28 -0.5t-27 -0.5q-2 -16 -2 -24v-15q0 -42 12.5 -79t36.5 -64t59 -42.5t80 -15.5q38 0 77.5 17t69.5 43q0 -5 -1 -11.5t-2 -13.5q-30 -23 -74 -40t-88 -17q-71 0 -126.5 35.5t-84.5 103.5q-10 -26 -25 -51t-37.5 -44.5t-53.5 -31.5t-73 -12
q-24 0 -46.5 8t-40 23t-28.5 36.5t-11 48.5q0 55 38.5 87.5t98.5 43.5q55 9 87 16t48.5 16t21.5 20.5t5 29.5q0 28 -6.5 53t-21.5 44.5t-38.5 31t-56.5 11.5zM548 464q-41 0 -69.5 -19.5t-47 -49t-27.5 -64t-11 -65.5q8 0 24.5 -0.5t26.5 -0.5q23 -1 47 -2t47 -1
q21 0 47.5 1t48.5 2q11 0 26 0.5t25 0.5q0 30 -5 65t-20 64.5t-42 49t-70 19.5zM99 115q0 -49 29 -78.5t78 -29.5q22 0 44 7.5t39.5 22t29 37t13.5 52.5q1 17 1 35v36q0 11 0.5 30.5t0.5 30.5q-22 -7 -38.5 -10.5t-32.5 -6.5q-27 -6 -56 -13t-53 -20.5t-39.5 -35.5
t-15.5 -57zM742 83q-7 -9 -16 -16q1 4 1 7t1 8q-1 0 -1 1h15v0zM70 384h5q1 2 5 8v-18z" />
    <glyph glyph-name="ccedilla" unicode="&#xe7;" horiz-adv-x="473" 
d="M183 -203q13 -4 31 -7t38 -3q29 0 50.5 13.5t21.5 39.5q0 29 -18 40.5t-44 11.5q-25 0 -40 -4l37 98q-42 3 -82.5 18.5t-73 45t-52 74.5t-19.5 107q0 64 21.5 110.5t57 76.5t81 44.5t92.5 14.5q51 0 92.5 -11.5t61.5 -26.5q-5 -11 -9.5 -23.5t-8.5 -24.5q-9 13 -22 26
t-30 23.5t-37 17t-44 6.5q-49 0 -84 -17.5t-57.5 -49t-33 -74t-10.5 -91.5q0 -112 48.5 -168.5t139.5 -56.5q38 0 76.5 16t67.5 42q-1 -5 -1 -11.5v-11.5q-28 -22 -69 -38t-87 -18l-31 -89q16 5 27 8.5t19 3.5q36 0 56 -16.5t20 -45.5q0 -19 -9 -33.5t-24.5 -24.5t-36 -15
t-43.5 -5q-26 0 -45 4t-33 9zM434 65q0 5 1 9t3 9h15zM417 376q1 3 1.5 7t1.5 8q2 -2 2.5 -3.5t2.5 -3.5h2l-10 -8v0zM219 -121l-2 10l2 -2q1 1 3 1z" />
    <glyph glyph-name="egrave" unicode="&#xe8;" horiz-adv-x="475" 
d="M29 216q0 121 58 191t167 70q51 0 89.5 -16t63.5 -43t37.5 -63.5t12.5 -77.5v-15t-1 -15q-14 0 -33.5 0.5t-32.5 0.5q-36 1 -72.5 1.5t-72.5 0.5q-20 0 -44.5 -0.5t-44.5 -1.5q-12 0 -28 -0.5t-27 -0.5q-2 -16 -2 -24v-15q0 -42 12.5 -79t36.5 -64t59 -42.5t80 -15.5
q38 0 77.5 17t68.5 43q0 -5 -0.5 -11.5t-1.5 -13.5q-30 -23 -74 -40t-88 -17q-53 0 -97.5 17.5t-76 48.5t-49 73.5t-17.5 91.5zM256 464q-41 0 -69.5 -19.5t-47 -49t-27.5 -64t-11 -65.5q8 0 24.5 -0.5t26.5 -0.5q23 -1 47 -2t47 -1q21 0 47.5 1t48.5 2q11 0 26 0.5t25 0.5
q0 30 -5 65t-20 64.5t-42 49t-70 19.5zM138 670q-11 6 -21.5 16t-10.5 24q0 11 8.5 17t15.5 6q9 0 19.5 -6t19.5 -16q32 -32 67 -68t67 -68h-18zM450 83q-8 -10 -17 -16q1 4 1 7t1 8q-1 0 -1 1h16v0z" />
    <glyph glyph-name="eacute" unicode="&#xe9;" horiz-adv-x="477" 
d="M18 216q0 121 58 191t167 70q51 0 89.5 -16t63.5 -43t37.5 -63.5t12.5 -77.5v-15t-1 -15q-14 0 -33.5 0.5t-32.5 0.5q-36 1 -72.5 1.5t-72.5 0.5q-20 0 -44.5 -0.5t-44.5 -1.5q-12 0 -28 -0.5t-27 -0.5q-2 -16 -2 -24v-15q0 -42 12.5 -79t36.5 -64t59 -42.5t80 -15.5
q38 0 77.5 17t68.5 43q0 -5 -0.5 -11.5t-1.5 -13.5q-30 -23 -74 -40t-88 -17q-53 0 -97.5 17.5t-76 48.5t-49 73.5t-17.5 91.5zM245 464q-41 0 -69.5 -19.5t-47 -49t-27.5 -64t-11 -65.5q8 0 24.5 -0.5t26.5 -0.5q23 -1 47 -2t47 -1q21 0 47.5 1t48.5 2q11 0 26 0.5t25 0.5
q0 30 -5 65t-20 64.5t-42 49t-70 19.5zM334 711q9 10 19.5 16t19.5 6q7 0 15.5 -6t8.5 -17q0 -14 -10.5 -24t-21.5 -16q-36 -23 -74 -47.5t-73 -47.5h-18zM439 83q-8 -10 -17 -16q1 4 1 7t1 8q-1 0 -1 1h16v0z" />
    <glyph glyph-name="ecircumflex" unicode="&#xea;" horiz-adv-x="481" 
d="M26 216q0 121 58 191t167 70q51 0 89.5 -16t63.5 -43t37.5 -63.5t12.5 -77.5v-15t-1 -15q-14 0 -33.5 0.5t-32.5 0.5q-36 1 -72.5 1.5t-72.5 0.5q-20 0 -44.5 -0.5t-44.5 -1.5q-12 0 -28 -0.5t-27 -0.5q-2 -16 -2 -24v-15q0 -42 12.5 -79t36.5 -64t59 -42.5t80 -15.5
q38 0 77.5 17t68.5 43q0 -5 -0.5 -11.5t-1.5 -13.5q-30 -23 -74 -40t-88 -17q-53 0 -97.5 17.5t-76 48.5t-49 73.5t-17.5 91.5zM253 464q-41 0 -69.5 -19.5t-47 -49t-27.5 -64t-11 -65.5q8 0 24.5 -0.5t26.5 -0.5q23 -1 47 -2t47 -1q21 0 47.5 1t48.5 2q11 0 26 0.5t25 0.5
q0 30 -5 65t-20 64.5t-42 49t-70 19.5zM253 688q-29 -26 -63 -56.5t-63 -56.5h-14q16 21 29.5 39.5l27 37l27 37t28.5 38.5h58q11 -15 26 -35t30.5 -41t29.5 -41t25 -35h-12zM447 83q-8 -10 -17 -16q1 4 1 7t1 8q-1 0 -1 1h16v0z" />
    <glyph glyph-name="edieresis" unicode="&#xeb;" horiz-adv-x="488" 
d="M29 216q0 121 58 191t167 70q51 0 89.5 -16t63.5 -43t37.5 -63.5t12.5 -77.5v-15t-1 -15q-14 0 -33.5 0.5t-32.5 0.5q-36 1 -72.5 1.5t-72.5 0.5q-20 0 -44.5 -0.5t-44.5 -1.5q-12 0 -28 -0.5t-27 -0.5q-2 -16 -2 -24v-15q0 -42 12.5 -79t36.5 -64t59 -42.5t80 -15.5
q38 0 77.5 17t68.5 43q0 -5 -0.5 -11.5t-1.5 -13.5q-30 -23 -74 -40t-88 -17q-53 0 -97.5 17.5t-76 48.5t-49 73.5t-17.5 91.5zM256 464q-41 0 -69.5 -19.5t-47 -49t-27.5 -64t-11 -65.5q8 0 24.5 -0.5t26.5 -0.5q23 -1 47 -2t47 -1q21 0 47.5 1t48.5 2q11 0 26 0.5t25 0.5
q0 30 -5 65t-20 64.5t-42 49t-70 19.5zM316 645q0 18 12.5 30.5t29.5 12.5q18 0 30 -12.5t12 -30.5q0 -17 -12 -29.5t-30 -12.5q-17 0 -29.5 12.5t-12.5 29.5zM113 645q0 18 12.5 30.5t30.5 12.5q17 0 29.5 -12.5t12.5 -30.5q0 -17 -12.5 -29.5t-29.5 -12.5
q-18 0 -30.5 12.5t-12.5 29.5zM450 83q-8 -10 -17 -16q1 4 1 7t1 8q-1 0 -1 1h16v0z" />
    <glyph glyph-name="igrave" unicode="&#xec;" horiz-adv-x="251" 
d="M138 284q0 44 -1 90.5t-5 88.5q8 -2 15.5 -2h17.5h18t16 2q-4 -42 -5 -88.5t-1 -90.5v-107q0 -44 1 -90.5t5 -88.5q-8 2 -16 2h-18h-17.5t-15.5 -2q4 42 5 88.5t1 90.5v107zM47 670q-11 6 -21.5 16t-10.5 24q0 11 8.5 17t15.5 6q9 0 19.5 -6t19.5 -16q32 -32 67 -68
t67 -68h-18z" />
    <glyph glyph-name="iacute" unicode="&#xed;" horiz-adv-x="251" 
d="M56 284q0 44 -1 90.5t-5 88.5q8 -2 15.5 -2h18.5h17t16 2q-4 -42 -5 -88.5t-1 -90.5v-107q0 -44 1 -90.5t5 -88.5q-8 2 -16 2h-17h-18.5t-15.5 -2q4 42 5 88.5t1 90.5v107zM172 711q9 10 19.5 16t19.5 6q7 0 15.5 -6t8.5 -17q0 -14 -10.5 -24t-21.5 -16
q-35 -23 -73.5 -47.5t-73.5 -47.5h-18z" />
    <glyph glyph-name="icircumflex" unicode="&#xee;" horiz-adv-x="333" 
d="M138 284q0 44 -1 90.5t-5 88.5q8 -2 16 -2h18h17.5t16.5 2q-4 -42 -5 -88.5t-1 -90.5v-107q0 -44 1 -90.5t5 -88.5q-8 2 -16.5 2h-17.5h-18t-16 -2q4 42 5 88.5t1 90.5v107zM166 688q-29 -26 -63 -56.5t-64 -56.5h-13q31 41 56 76t55 76h59q11 -15 26 -35t30 -41
t29.5 -41t25.5 -35h-12z" />
    <glyph glyph-name="idieresis" unicode="&#xef;" horiz-adv-x="330" 
d="M136 284q0 44 -1 90.5t-5 88.5q8 -2 16 -2h18h17.5t16.5 2q-4 -42 -5 -88.5t-1 -90.5v-107q0 -44 1 -90.5t5 -88.5q-8 2 -16.5 2h-17.5h-18t-16 -2q4 42 5 88.5t1 90.5v107zM21 645q0 18 12 30.5t30 12.5t30 -12.5t12 -30.5q0 -17 -12 -29.5t-30 -12.5t-30 12.5t-12 29.5
zM224 645q0 18 12 30.5t30 12.5t30 -12.5t12 -30.5q0 -17 -12 -29.5t-30 -12.5t-30 12.5t-12 29.5z" />
    <glyph glyph-name="eth" unicode="&#xf0;" horiz-adv-x="537" 
d="M33 231q0 67 21.5 114t56 76.5t77 42.5t85.5 13q12 0 24.5 -1.5t26.5 -7.5l11 14q-34 40 -68 76.5t-71 70.5q-31 -10 -65 -22.5t-66 -23.5q-2 5 -5 9t-5 8q31 8 65 18l68 20q-32 29 -63 55.5t-60 49.5q17 4 25 6t22 7q38 -26 70 -51.5t61 -48.5q35 11 67 21.5t60 21.5
q2 -5 3.5 -8.5t4.5 -8.5q-27 -6 -56.5 -14t-68.5 -22q69 -58 118 -111t80.5 -103.5t46.5 -100t15 -100.5q0 -68 -21.5 -115t-56 -76t-77 -42t-85.5 -13t-85.5 13t-77 42t-56 76t-21.5 115zM443 231q0 45 -8.5 87t-28 74.5t-52 52t-81.5 19.5t-81.5 -19.5t-52 -52t-28 -74.5
t-8.5 -87t8.5 -87.5t28 -75t52 -52t81.5 -19.5t81.5 19.5t52 52t28 75t8.5 87.5z" />
    <glyph glyph-name="ntilde" unicode="&#xf1;" horiz-adv-x="472" 
d="M374 277q0 81 -33 124t-90 43q-78 0 -113.5 -47t-35.5 -132v-88q0 -44 1 -90.5t5 -88.5q-8 2 -16 2h-18h-17.5t-16.5 -2q5 42 6 88.5t1 90.5v107q0 44 -1 90.5t-6 88.5q9 -2 16.5 -2h17.5h14.5t15.5 2q-2 -21 -2 -51v-51q38 55 81 85.5t96 30.5q27 0 54.5 -7.5t50 -26.5
t36.5 -52t14 -83q0 -21 -0.5 -42.5t-1.5 -44.5q-1 -25 -2 -51t-1 -53v-59.5t2 -59.5q-9 2 -16 2h-16h-17t-15 -2l3 70q2 36 3 72t1 74v63v0zM81 601q4 16 11 31.5t18.5 27.5t27 19.5t36.5 7.5q17 0 30.5 -5t40.5 -18q30 -15 44 -20t28 -5q24 0 41.5 16.5t25.5 35.5h9
q-3 -13 -9 -28.5t-18 -29t-29.5 -23t-42.5 -9.5q-14 0 -30 5t-39 18q-29 15 -43.5 20t-28.5 5q-27 0 -39.5 -11t-22.5 -37h-10z" />
    <glyph glyph-name="ograve" unicode="&#xf2;" horiz-adv-x="528" 
d="M29 231q0 67 21.5 114t56 76.5t77 42.5t85.5 13t85.5 -13t77 -42.5t56 -76.5t21.5 -114q0 -68 -21.5 -115t-56 -76t-77 -42t-85.5 -13t-85.5 13t-77 42t-56 76t-21.5 115zM99 231q0 -45 8.5 -87.5t28 -75t52 -52t81.5 -19.5t81.5 19.5t52 52t28 75t8.5 87.5t-8.5 87
t-28 74.5t-52 52t-81.5 19.5t-81.5 -19.5t-52 -52t-28 -74.5t-8.5 -87zM151 670q-11 6 -21.5 16t-10.5 24q0 11 8 17t15 6q10 0 20 -6t20 -16q32 -32 66.5 -68t66.5 -68h-17z" />
    <glyph glyph-name="oacute" unicode="&#xf3;" horiz-adv-x="527" 
d="M18 231q0 67 21.5 114t56 76.5t77 42.5t85.5 13t85.5 -13t77 -42.5t56 -76.5t21.5 -114q0 -68 -21.5 -115t-56 -76t-77 -42t-85.5 -13t-85.5 13t-77 42t-56 76t-21.5 115zM88 231q0 -45 8.5 -87.5t28 -75t52 -52t81.5 -19.5t81.5 19.5t52 52t28 75t8.5 87.5t-8.5 87
t-28 74.5t-52 52t-81.5 19.5t-81.5 -19.5t-52 -52t-28 -74.5t-8.5 -87zM347 711q9 10 19 16t20 6q7 0 15 -6t8 -17q0 -14 -10.5 -24t-21.5 -16q-35 -23 -73 -47.5t-74 -47.5h-17z" />
    <glyph glyph-name="ocircumflex" unicode="&#xf4;" horiz-adv-x="532" 
d="M26 231q0 67 21.5 114t56 76.5t77 42.5t85.5 13t85.5 -13t77 -42.5t56 -76.5t21.5 -114q0 -68 -21.5 -115t-56 -76t-77 -42t-85.5 -13t-85.5 13t-77 42t-56 76t-21.5 115zM96 231q0 -45 8.5 -87.5t28 -75t52 -52t81.5 -19.5t81.5 19.5t52 52t28 75t8.5 87.5t-8.5 87
t-28 74.5t-52 52t-81.5 19.5t-81.5 -19.5t-52 -52t-28 -74.5t-8.5 -87zM266 688q-29 -26 -63 -56.5t-64 -56.5h-13q31 41 56 76t55 76h59q11 -15 26 -35t30 -41t29.5 -41t25.5 -35h-12z" />
    <glyph glyph-name="otilde" unicode="&#xf5;" horiz-adv-x="537" 
d="M28 231q0 67 21.5 114t56 76.5t77 42.5t85.5 13t85.5 -13t77 -42.5t56 -76.5t21.5 -114q0 -68 -21.5 -115t-56 -76t-77 -42t-85.5 -13t-85.5 13t-77 42t-56 76t-21.5 115zM98 231q0 -45 8.5 -87.5t28 -75t52 -52t81.5 -19.5t81.5 19.5t52 52t28 75t8.5 87.5t-8.5 87
t-28 74.5t-52 52t-81.5 19.5t-81.5 -19.5t-52 -52t-28 -74.5t-8.5 -87zM113 601q4 16 11 31.5t18.5 27.5t27 19.5t36.5 7.5q17 0 30.5 -5t40.5 -18q30 -15 44 -20t28 -5q24 0 41.5 16.5t25.5 35.5h9q-3 -13 -9 -28.5t-18 -29t-29.5 -23t-42.5 -9.5q-14 0 -30 5t-39 18
q-29 15 -43.5 20t-28.5 5q-27 0 -39.5 -11t-22.5 -37h-10z" />
    <glyph glyph-name="odieresis" unicode="&#xf6;" horiz-adv-x="537" 
d="M28 231q0 67 21.5 114t56 76.5t77 42.5t85.5 13t85.5 -13t77 -42.5t56 -76.5t21.5 -114q0 -68 -21.5 -115t-56 -76t-77 -42t-85.5 -13t-85.5 13t-77 42t-56 76t-21.5 115zM98 231q0 -45 8.5 -87.5t28 -75t52 -52t81.5 -19.5t81.5 19.5t52 52t28 75t8.5 87.5t-8.5 87
t-28 74.5t-52 52t-81.5 19.5t-81.5 -19.5t-52 -52t-28 -74.5t-8.5 -87zM328 645q0 18 12 30.5t30 12.5t30 -12.5t12 -30.5q0 -17 -12 -29.5t-30 -12.5t-30 12.5t-12 29.5zM125 645q0 18 12 30.5t30 12.5t30 -12.5t12 -30.5q0 -17 -12 -29.5t-30 -12.5t-30 12.5t-12 29.5z
" />
    <glyph glyph-name="divide" unicode="&#xf7;" horiz-adv-x="516" 
d="M8 267h500v-33h-500v33zM210 48q0 20 14 34.5t34 14.5t34 -14.5t14 -34.5t-14 -34t-34 -14t-34 14t-14 34zM210 452q0 20 14 34t34 14t34 -14t14 -34t-14 -34t-34 -14t-34 14t-14 34z" />
    <glyph glyph-name="oslash" unicode="&#xf8;" horiz-adv-x="581" 
d="M56 231q0 67 21.5 114t56 76.5t77 42.5t85.5 13q40 0 81.5 -12.5t79.5 -40.5q22 23 41.5 44.5t30.5 35.5q4 -4 7 -6q-11 -11 -30.5 -31.5t-42.5 -46.5q34 -35 53.5 -80t19.5 -109q0 -68 -21.5 -115t-56 -76t-77 -42t-85.5 -13q-42 0 -85 13.5t-82 44.5q-20 -22 -41 -45.5
t-35 -39.5q-5 5 -8 7q12 12 33 35.5t44 49.5q-30 35 -48 78t-18 103zM158 76q22 -36 55.5 -57.5t82.5 -21.5t81.5 19.5t52 52t28 75t8.5 87.5q0 38 -7.5 78t-26.5 78zM430 391q-20 32 -54 52.5t-80 20.5q-49 0 -81.5 -19.5t-52 -52t-28 -74.5t-8.5 -87q0 -72 28 -147z" />
    <glyph glyph-name="ugrave" unicode="&#xf9;" horiz-adv-x="457" 
d="M37 143q0 29 0.5 53.5t1.5 46.5q1 19 1 36v34q0 34 -0.5 72t-1.5 78q9 -2 17 -2h16q7 0 16 0.5t15 1.5q-9 -120 -9 -273q0 -56 10 -85.5t25 -45.5q17 -18 40 -30t56 -12q46 0 77.5 21t45.5 52q8 17 12.5 30.5t7 34.5t3 56t0.5 97v79t-1 76q8 -2 14.5 -2h17.5q8 0 16 0.5
t15 1.5q-3 -40 -4 -76.5t-2 -72.5t-1 -72.5v-77.5q0 -40 1 -84t3 -82q-7 1 -14.5 1.5t-14.5 0.5q-8 0 -15.5 -0.5t-13.5 -1.5q1 11 1 26.5v31v30.5v26q-35 -62 -81 -94.5t-92 -32.5q-76 0 -119 41t-43 117zM117 670q-11 6 -21.5 16t-10.5 24q0 11 8 17t15 6q10 0 20 -6
t20 -16q32 -32 66.5 -68t66.5 -68h-17z" />
    <glyph glyph-name="uacute" unicode="&#xfa;" horiz-adv-x="457" 
d="M23 143q0 29 0.5 53.5t1.5 46.5q1 19 1 36v34q0 34 -0.5 72t-1.5 78q9 -2 17 -2h16q7 0 16 0.5t15 1.5q-9 -120 -9 -273q0 -56 10 -85.5t25 -45.5q17 -18 40 -30t56 -12q46 0 77.5 21t45.5 52q8 17 12.5 30.5t7 34.5t3 56t0.5 97v79t-1 76q8 -2 14.5 -2h17.5q8 0 16 0.5
t15 1.5q-3 -40 -4 -76.5t-2 -72.5t-1 -72.5v-77.5q0 -40 1 -84t3 -82q-7 1 -14.5 1.5t-14.5 0.5q-8 0 -15.5 -0.5t-13.5 -1.5q1 11 1 26.5v31v30.5v26q-35 -62 -81 -94.5t-92 -32.5q-76 0 -119 41t-43 117zM310 711q9 10 19 16t20 6q7 0 15 -6t8 -17q0 -14 -10.5 -24
t-21.5 -16q-35 -23 -73 -47.5t-74 -47.5h-17z" />
    <glyph glyph-name="ucircumflex" unicode="&#xfb;" horiz-adv-x="465" 
d="M34 143q0 29 0.5 53.5t1.5 46.5q1 19 1 36v34q0 34 -0.5 72t-1.5 78q9 -2 17 -2h16q7 0 16 0.5t15 1.5q-9 -120 -9 -273q0 -56 10 -85.5t25 -45.5q17 -18 40 -30t56 -12q46 0 77.5 21t45.5 52q8 17 12.5 30.5t7 34.5t3 56t0.5 97v79t-1 76q8 -2 14.5 -2h17.5q8 0 16 0.5
t15 1.5q-3 -40 -4 -76.5t-2 -72.5t-1 -72.5v-77.5q0 -40 1 -84t3 -82q-7 1 -14.5 1.5t-14.5 0.5q-8 0 -15.5 -0.5t-13.5 -1.5q1 11 1 26.5v31v30.5v26q-35 -62 -81 -94.5t-92 -32.5q-76 0 -119 41t-43 117zM232 688q-29 -26 -63 -56.5t-64 -56.5h-13q31 41 56 76t55 76h59
q11 -15 26 -35t30 -41t29.5 -41t25.5 -35h-12z" />
    <glyph glyph-name="udieresis" unicode="&#xfc;" horiz-adv-x="471" 
d="M37 143q0 29 0.5 53.5t1.5 46.5q1 19 1 36v34q0 34 -0.5 72t-1.5 78q9 -2 17 -2h16q7 0 16 0.5t15 1.5q-9 -120 -9 -273q0 -56 10 -85.5t25 -45.5q17 -18 40 -30t56 -12q46 0 77.5 21t45.5 52q8 17 12.5 30.5t7 34.5t3 56t0.5 97v79t-1 76q8 -2 14.5 -2h17.5q8 0 16 0.5
t15 1.5q-3 -40 -4 -76.5t-2 -72.5t-1 -72.5v-77.5q0 -40 1 -84t3 -82q-7 1 -14.5 1.5t-14.5 0.5q-8 0 -15.5 -0.5t-13.5 -1.5q1 11 1 26.5v31v30.5v26q-35 -62 -81 -94.5t-92 -32.5q-76 0 -119 41t-43 117zM92 645q0 18 12 30.5t30 12.5t30 -12.5t12 -30.5q0 -17 -12 -29.5
t-30 -12.5t-30 12.5t-12 29.5zM295 645q0 18 12 30.5t30 12.5t30 -12.5t12 -30.5q0 -17 -12 -29.5t-30 -12.5t-30 12.5t-12 29.5z" />
    <glyph glyph-name="yacute" unicode="&#xfd;" horiz-adv-x="471" 
d="M217 -12q-11 29 -27 69t-35 85.5t-38.5 93t-38 90.5t-33.5 79t-25 58q8 -1 15 -1.5t15 -0.5q20 0 40 3q28 -86 62.5 -172t72.5 -176q3 -8 8 -20t15 -41q24 50 47 102.5t44 105t39 103.5t33 97q6 -2 12.5 -2h14.5q10 0 15 1q-14 -29 -40 -85.5t-58 -127t-66.5 -148
t-65.5 -149.5t-55 -131.5t-35 -93.5q-6 2 -13 2h-15h-13q35 60 67 124t58 126v9zM326 711q9 10 19 16t20 6q7 0 15 -6t8 -17q0 -14 -10.5 -24t-21.5 -16q-35 -23 -73 -47.5t-74 -47.5h-17z" />
    <glyph glyph-name="thorn" unicode="&#xfe;" horiz-adv-x="500" 
d="M54 467q0 33 -0.5 71.5t-1 76.5t-2 73t-3.5 62q8 -2 16.5 -2h18.5h17t18 2q-3 -26 -4.5 -60t-2 -71.5t-1 -76.5t-0.5 -75v-96l18 -5q9 16 22.5 35.5t33.5 36.5t48 28t65 11t73 -14t64 -43.5t45 -75.5t17 -110q0 -63 -18.5 -110t-48.5 -77.5t-68 -46t-77 -15.5
q-54 0 -92.5 25t-61.5 73l-18 -4l-2 -69q0 -33 0.5 -71t1.5 -76.5t2.5 -73.5t3.5 -62q-9 2 -18 2h-17h-18.5t-16.5 -2q2 26 3.5 60t2 72t1 77t0.5 74v457zM425 235q0 65 -13.5 107.5t-35.5 67t-49 34.5t-54 10q-44 0 -75.5 -18t-51 -49.5t-28.5 -73t-9 -87.5q0 -112 41 -168
t120 -56q40 0 69 18t48 49.5t28.5 74t9.5 91.5z" />
    <glyph glyph-name="ydieresis" unicode="&#xff;" horiz-adv-x="474" 
d="M221 -12q-11 29 -27 69t-35 85.5t-38.5 93t-38 90.5t-33.5 79t-25 58q8 -1 15 -1.5t15 -0.5q20 0 40 3q28 -86 62.5 -172t72.5 -176q3 -8 8 -20t15 -41q24 50 47 102.5t44 105t39 103.5t33 97q6 -2 12.5 -2h14.5q10 0 15 1q-14 -29 -40 -85.5t-58 -127t-66.5 -148
t-65.5 -149.5t-55 -131.5t-35 -93.5q-6 2 -13 2h-15h-13q35 60 67 124t58 126v9zM98 645q0 18 12 30.5t30 12.5t30 -12.5t12 -30.5q0 -17 -12 -29.5t-30 -12.5t-30 12.5t-12 29.5zM301 645q0 18 12 30.5t30 12.5t30 -12.5t12 -30.5q0 -17 -12 -29.5t-30 -12.5t-30 12.5
t-12 29.5z" />
    <glyph glyph-name="dotlessi" unicode="&#x131;" horiz-adv-x="173" 
d="M57 284q0 44 -1 90.5t-5 88.5q8 -2 16 -2h18h17.5t16.5 2q-4 -42 -5 -88.5t-1 -90.5v-107q0 -44 1 -90.5t5 -88.5q-8 2 -16.5 2h-17.5h-18t-16 -2q4 42 5 88.5t1 90.5v107z" />
    <glyph glyph-name="Lslash" unicode="&#x141;" horiz-adv-x="486" 
d="M127 428q0 66 -2 127t-5 126q10 -2 19.5 -2h19.5h20.5t19.5 2q-4 -66 -6 -126t-2 -127v-58q22 13 53 33t59 38q4 -4 6.5 -9l4.5 -9q-22 -11 -53 -28.5t-70 -40.5v-99q0 -52 0.5 -98t1.5 -80q0 -11 0.5 -27t0.5 -27q73 0 141 1.5t139 9.5q-1 -5 -1 -9.5v-9.5v-9.5t1 -9.5
q-47 2 -87 3t-88 1q-45 0 -89.5 -1t-89.5 -3q3 66 5 127.5t2 127.5v63q-30 -18 -52.5 -32.5t-36.5 -25.5l-4.5 9t-5.5 9q29 15 51.5 28.5t47.5 27.5v98z" />
    <glyph glyph-name="lslash" unicode="&#x142;" horiz-adv-x="270" 
d="M107 346q-19 -14 -42 -29t-37 -24q-2 3 -3.5 7t-3.5 6q21 12 41.5 25.5t44.5 28.5v107q0 33 -0.5 71.5t-1 76.5t-2 73t-3.5 62q8 -2 17 -2h18h17.5t17.5 2q-2 -26 -3.5 -60t-2.5 -71.5t-1 -76.5v-75v-70q19 12 40 25.5t38 24.5l4 -6t4 -7q-3 -2 -11 -6q-14 -8 -33 -20
t-42 -26v-101q0 -33 0.5 -71.5t1 -76.5t2 -73t3.5 -62q-8 2 -17.5 2h-17.5h-18t-17 -2q2 26 3.5 60t2 71.5t1 76.5t0.5 75v65zM22 290q1 1 2.5 1.5t3.5 1.5q2 -3 2.5 -5.5t2.5 -4.5l-16 3q1 1 2.5 2t2.5 2z" />
    <glyph glyph-name="OE" unicode="&#x152;" horiz-adv-x="1006" 
d="M723 235q0 -78 3 -154q1 -12 1.5 -29t0.5 -29q102 0 161.5 2.5t89.5 5.5q-1 -3 -1 -7.5v-9.5v-9t1 -9q-44 2 -79.5 3t-79.5 1q-43 0 -82 -1t-83 -3q2 26 3 57t1 57q-20 -20 -46.5 -43t-61 -42t-78.5 -31.5t-99 -12.5q-71 0 -133.5 24t-109.5 68.5t-74 108.5t-27 145
q0 90 27.5 159t76 116.5t114.5 71.5t144 24q63 0 109 -15.5t78 -37t51.5 -44t29.5 -36.5q4 45 3.5 71t-2.5 48q44 -3 80 -4t78 -1q38 0 76 1t76 4q-1 -5 -1 -10.5v-10.5v-9t1 -9q-14 3 -31 5t-44 3.5t-67.5 2.5t-100.5 1q0 -11 -0.5 -27.5t-1.5 -27.5q-3 -68 -3 -136v-94
q56 0 94.5 0.5t64 1t41.5 1.5t28 2q-1 -5 -1 -9v-8v-8t1 -9q-12 1 -28 2t-41.5 2t-64 1.5t-94.5 0.5v-114zM111 340q0 -89 22.5 -153t60.5 -106t88.5 -62t107.5 -20q64 0 115.5 24.5t87.5 69.5t55.5 107.5t19.5 139.5q0 93 -20.5 157.5t-56 105t-84.5 59t-106 18.5
q-61 0 -114 -20t-92 -62t-61.5 -106t-22.5 -152zM955 378q-1 0 -2 -0.5t-2 -0.5q1 5 5 15l9 -13q-3 0 -5 -0.5t-5 -0.5zM956 328q-3 7 -5 15h3q2 0 5.5 -0.5t5.5 -0.5l-9 -14v0z" />
    <glyph glyph-name="oe" unicode="&#x153;" horiz-adv-x="897" 
d="M660 477q51 0 89.5 -16t63.5 -43t37.5 -63.5t12.5 -77.5v-15t-1 -15q-14 0 -34 0.5t-32 0.5q-36 1 -72.5 1.5t-72.5 0.5q-20 0 -45 -0.5t-45 -1.5q-11 0 -27 -0.5t-27 -0.5q-2 -16 -2 -24v-15q0 -42 12.5 -79t36.5 -64t59 -42.5t80 -15.5q38 0 77.5 17t68.5 43
q0 -5 -0.5 -11.5t-1.5 -13.5q-30 -23 -74 -40t-89 -17q-62 0 -113 26.5t-86 71.5q-39 -53 -92.5 -75.5t-108.5 -22.5q-43 0 -85.5 13t-77 42t-56 76t-21.5 115q0 67 21.5 114t56 76.5t77 42.5t85.5 13q54 0 107.5 -23t91.5 -74q32 48 79 72.5t108 24.5zM445 231
q0 45 -8.5 87t-28 74.5t-52.5 52t-82 19.5t-81.5 -19.5t-52 -52t-28 -74.5t-8.5 -87t8.5 -87.5t28 -75t52 -52t81.5 -19.5t82 19.5t52.5 52t28 75t8.5 87.5zM662 464q-41 0 -69.5 -19.5t-47 -49t-27.5 -64t-11 -65.5q8 0 24.5 -0.5t26.5 -0.5q23 -1 47 -2t47 -1q21 0 47.5 1
t48.5 2q11 0 26 0.5t25 0.5q0 30 -5 65t-20 64.5t-42 49t-70 19.5zM856 83l-8.5 -8.5t-8.5 -7.5q1 4 1 7t1 8q-1 0 -1 1h16v0z" />
    <glyph glyph-name="Scaron" unicode="&#x160;" horiz-adv-x="460" 
d="M31 33q7 20 10.5 35.5t5.5 37.5q9 -18 24 -36.5t35.5 -33t47 -23.5t59.5 -9q37 0 66 12.5t49.5 34t31.5 51t11 62.5q0 36 -13 60.5t-34 42t-48.5 30.5t-57.5 25q-31 13 -61.5 27.5t-55 35.5t-39.5 52t-15 77q0 40 15 74t42.5 58.5t67 38t88.5 13.5q84 0 139 -40
q-7 -17 -13 -33.5t-11 -40.5q-6 15 -15.5 31.5t-24 31t-35.5 24t-50 9.5q-32 0 -58 -10t-45.5 -28t-30 -43.5t-10.5 -56.5q0 -37 13.5 -62t36 -43t51 -31t58.5 -25t60 -26t53.5 -34t38 -48t14.5 -70q0 -45 -16.5 -85.5t-47.5 -71t-76 -48t-102 -17.5q-56 0 -94 16t-64 36z
M368 904h13q-31 -41 -56 -76.5t-55 -75.5h-59q-11 15 -25.5 35t-30 41t-30 41t-25.5 35h13l127 -112zM48 111q0 -2 -0.5 -2.5t-0.5 -2.5q-2 4 -2 5h3v0z" />
    <glyph glyph-name="scaron" unicode="&#x161;" horiz-adv-x="370" 
d="M40 12q5 12 9 26.5t6 28.5q16 -22 47 -43.5t73 -21.5q21 0 41 6.5t35 19.5t24.5 32t9.5 45q0 25 -9.5 41.5t-25.5 27.5t-36.5 18.5t-42.5 14.5q-23 7 -46 15.5t-41.5 22t-30 34t-11.5 52.5q0 63 41.5 104.5t118.5 41.5q27 0 48 -6.5t39 -13.5q8 -4 12 -5
q-5 -14 -10.5 -29t-7.5 -27q-11 25 -35.5 44t-58.5 19q-17 0 -34.5 -5.5t-31.5 -17.5t-23 -30.5t-9 -43.5q0 -27 9.5 -44t26 -28.5t37.5 -18.5t44 -14q23 -6 45.5 -14t40.5 -21t29 -33.5t11 -51.5q0 -27 -12 -54.5t-35 -49t-55.5 -35t-72.5 -13.5q-42 0 -70 8t-49 19z
M312 727h14q-31 -41 -56 -76.5t-55 -75.5h-59q-11 15 -26 35t-30 41t-29.5 41t-25.5 35h12l128 -112zM56 73q0 -4 -1 -6l-3 6h4v0zM283 395l2 -4q-2 2 -2 5v-1z" />
    <glyph glyph-name="Ydieresis" unicode="&#x178;" horiz-adv-x="583" 
d="M259 282q-9 16 -26.5 46t-39.5 66.5t-46 77.5t-47.5 80t-44.5 72.5t-35 56.5q10 -1 18.5 -1.5t17.5 -0.5q27 0 51 3q45 -88 95.5 -179t104.5 -184q26 41 53.5 87t53.5 93t50.5 93.5t44.5 89.5q9 -2 16.5 -2.5t17.5 -0.5h9.5t9.5 1q-47 -72 -84.5 -131t-66.5 -106
t-50.5 -84.5t-36.5 -67.5q0 -36 0.5 -76.5t1.5 -80.5t2 -75.5t3 -60.5q-9 2 -19 2h-20h-19.5t-18.5 -2q5 54 5.5 127.5t0.5 151.5zM158 822q0 18 12.5 30.5t29.5 12.5q18 0 30.5 -12.5t12.5 -30.5q0 -17 -12.5 -29.5t-30.5 -12.5q-17 0 -29.5 12.5t-12.5 29.5zM361 822
q0 18 12.5 30.5t29.5 12.5q18 0 30 -12.5t12 -30.5q0 -17 -12 -29.5t-30 -12.5q-17 0 -29.5 12.5t-12.5 29.5z" />
    <glyph glyph-name="Zcaron" unicode="&#x17d;" horiz-adv-x="597" 
d="M22 -1q41 55 86.5 119.5t91.5 130.5t89.5 130t80.5 118t64.5 95t40.5 62q-19 1 -46 2t-44 1q-35 0 -77 -1t-85 -3t-83.5 -4.5t-71.5 -5.5q1 5 1 10v10v10.5t-1 10.5q10 -1 27.5 -2t38 -1.5t42 -0.5h39.5q54 -1 121 -1h147q20 0 44 1.5t45 3.5h11v-5q-22 -25 -60.5 -76
t-84 -115t-94.5 -134.5t-92.5 -134.5t-77 -115.5t-48.5 -76.5q25 -2 54 -3t49 -1q38 0 86.5 1t97.5 3.5t93.5 5.5t73.5 6q-1 -5 -1.5 -10t-0.5 -12q0 -6 0.5 -11t1.5 -10q-37 1 -66.5 2t-55.5 1.5t-51.5 0.5h-55.5h-84.5t-94 -0.5t-86.5 -1.5t-64 -2v3zM430 904h13
q-31 -41 -56 -76.5t-55 -75.5h-59q-11 15 -26 35t-30 41t-29.5 41t-25.5 35h12l129 -112z" />
    <glyph glyph-name="zcaron" unicode="&#x17e;" horiz-adv-x="470" 
d="M27 -5q35 43 74 93t77.5 100.5t74 99t64.5 87.5q6 7 13 16.5l14 19t13.5 18.5t11.5 15q-9 0 -42.5 -1t-77 -3t-89 -4.5t-77.5 -5.5q1 7 0.5 8t-0.5 9v9t-1 9q32 -3 90.5 -3.5t153.5 -0.5q42 0 69 1t56 3v-1q-27 -36 -59.5 -78t-65.5 -85.5t-65.5 -86.5t-60.5 -80.5
t-50.5 -68t-35.5 -48.5q46 0 84 0.5t75.5 2t78 4t91.5 7.5q-2 -7 -1.5 -8.5t0.5 -9.5v-9t1 -9q-16 0 -25 0.5t-26 1.5q-96 3 -193 3q-34 0 -69 -0.5t-69 -2.5q-8 -1 -17 -1.5t-17 -0.5zM366 727h14q-31 -41 -56 -76.5t-55 -75.5h-59q-11 15 -26 35t-30 41t-29.5 41t-25.5 35
h12l129 -112z" />
    <glyph glyph-name="florin" unicode="&#x192;" horiz-adv-x="497" 
d="M32 -204q3 15 6 31t4 30q9 -5 19.5 -9t23.5 -4q24 0 39 9t25 26t16.5 41.5t11.5 54.5l67 395h-56t-53 -1q2 6 3 11t2 11q19 -2 47.5 -3t59.5 -1q3 14 7 30.5t7 30.5q10 34 26.5 73.5t40 72.5t53 55t65.5 22q3 0 9 -0.5t11 -1.5q-8 -29 -8 -68q-10 11 -24.5 19t-31.5 8
q-25 0 -44.5 -17t-28.5 -64l-26 -160q21 0 46.5 1t43.5 2q5 1 10.5 1.5t10.5 0.5q-2 -6 -3 -11.5t-2 -11.5q-22 2 -50.5 1.5t-60.5 -0.5l-41 -234q-18 -104 -43.5 -169.5t-55.5 -102.5t-62.5 -51.5t-63.5 -16.5zM458 601q2 -2 3 -3.5t3 -3.5l-10 4q2 0 4 1v2zM42 -143l-4 2
l4 1v-3z" />
    <glyph glyph-name="circumflex" unicode="&#x2c6;" horiz-adv-x="354" 
d="M176 688q-29 -26 -63 -56.5t-64 -56.5h-13q31 41 56 76t55 76h59q11 -15 26 -35t30 -41t29.5 -41t25.5 -35h-12z" />
    <glyph glyph-name="caron" unicode="&#x2c7;" horiz-adv-x="350" 
d="M301 727h14q-31 -41 -56 -76.5t-55 -75.5h-59q-11 15 -26 35t-30 41t-29.5 41t-25.5 35h12l129 -112z" />
    <glyph glyph-name="breve" unicode="&#x2d8;" horiz-adv-x="342" 
d="M51 717q10 -47 37.5 -72.5t81.5 -25.5q29 0 49 6.5t33.5 19t22 31t15.5 41.5h15q-2 -29 -11 -54.5t-26 -45t-41.5 -31t-55.5 -11.5q-32 0 -56.5 11.5t-41.5 31t-26.5 45t-10.5 54.5h15z" />
    <glyph glyph-name="dotaccent" unicode="&#x2d9;" horiz-adv-x="164" 
d="M39 642q0 18 12 30.5t30 12.5t30 -12.5t12 -30.5q0 -17 -12 -29.5t-30 -12.5t-30 12.5t-12 29.5z" />
    <glyph glyph-name="ring" unicode="&#x2da;" horiz-adv-x="266" 
d="M37 654q0 19 7.5 36.5t21 30t30.5 20t37 7.5t37.5 -7.5t30 -20t20 -30t7.5 -36.5q0 -20 -7.5 -37.5t-21 -30t-31 -20t-36.5 -7.5q-20 0 -37 7.5t-30 20t-20.5 30t-7.5 37.5zM60 654q0 -30 21 -51t51 -21q31 0 52 21t21 51q0 29 -21.5 50.5t-50.5 21.5q-31 0 -52 -21.5
t-21 -50.5z" />
    <glyph glyph-name="ogonek" unicode="&#x2db;" horiz-adv-x="220" 
d="M148 -21q-26 -24 -41 -42t-23 -31.5t-10.5 -24.5t-2.5 -23q0 -20 7 -33.5t18.5 -22t25.5 -12t29 -3.5q7 0 12.5 0.5t12.5 2.5q2 -3 2.5 -7t2.5 -8q-9 -4 -20 -5t-26 -1q-21 0 -40.5 5t-34 15t-23.5 24.5t-9 33.5q0 52 108 132h12z" />
    <glyph glyph-name="tilde" unicode="&#x2dc;" horiz-adv-x="393" 
d="M40 601q4 16 11 31.5t18.5 27.5t27 19.5t36.5 7.5q17 0 30.5 -5t40.5 -18q30 -15 44 -20t28 -5q24 0 41.5 16.5t25.5 35.5h9q-3 -13 -9 -28.5t-18 -29t-29.5 -23t-42.5 -9.5q-14 0 -30 5t-39 18q-29 15 -43.5 20t-28.5 5q-27 0 -39.5 -11t-22.5 -37h-10z" />
    <glyph glyph-name="hungarumlaut" unicode="&#x2dd;" horiz-adv-x="468" 
d="M171 711q9 10 19.5 16t19.5 6q7 0 15.5 -6t8.5 -17q0 -14 -10.5 -24t-21.5 -16q-35 -23 -73.5 -47.5t-73.5 -47.5h-18zM377 711q9 10 19.5 16t19.5 6q7 0 15.5 -6t8.5 -17q0 -14 -10.5 -24t-21.5 -16q-36 -23 -74 -47.5t-73 -47.5h-18z" />
    <glyph glyph-name="endash" unicode="&#x2013;" horiz-adv-x="587" 
d="M46 241h494v-28h-494v28z" />
    <glyph glyph-name="emdash" unicode="&#x2014;" horiz-adv-x="1086" 
d="M39 241h1008v-28h-1008v28z" />
    <glyph glyph-name="quoteleft" unicode="&#x2018;" 
d="M77 454q-3 -11 -11.5 -21.5t-23.5 -10.5q-10 0 -19 5.5t-9 19.5q0 9 3.5 17.5t8.5 17.5l-1 -2q2 4 3 5q32 53 63 105.5t62 105.5v-1l1 1zM25 480l-1 -1q0 1 1 1z" />
    <glyph glyph-name="quoteright" unicode="&#x2019;" 
d="M99 666q3 11 11.5 21.5t23.5 10.5q10 0 19 -5.5t9 -19.5q0 -9 -3.5 -17.5t-8.5 -17.5l1 1l-2 -2q-1 -1 -1 -2q-32 -53 -63 -105.5t-62 -105.5h-1zM151 639q0 1 1 2z" />
    <glyph glyph-name="quotesinglbase" unicode="&#x201a;" 
d="M99 64q3 11 11.5 21.5t23.5 10.5q10 0 19 -5.5t9 -19.5q0 -9 -3.5 -18t-8.5 -17l1 1l-2 -2q-1 -1 -1 -2q-32 -53 -63 -105.5t-62 -105.5h-1zM151 37q0 1 1 2z" />
    <glyph glyph-name="quotedblleft" unicode="&#x201c;" horiz-adv-x="376" 
d="M266 454q-3 -11 -11 -21.5t-24 -10.5q-9 0 -18 5.5t-9 19.5q0 9 3.5 17.5t8.5 17.5l-1 -2q2 4 3 5q31 53 62 105.5t62 105.5l1 -1l1 1zM89 454q-3 -11 -11 -21.5t-24 -10.5q-9 0 -18.5 5.5t-9.5 19.5q0 9 4 17.5t9 17.5l-1 -2q2 4 3 5q31 53 62 105.5t62 105.5v-1l1 1z
M38 480l-1 -1q0 1 1 1zM215 480l-1 -1q0 1 1 1z" />
    <glyph glyph-name="quotedblright" unicode="&#x201d;" horiz-adv-x="377" 
d="M288 666q3 11 11 21.5t24 10.5q9 0 18.5 -5.5t9.5 -19.5q0 -9 -4 -17.5t-9 -17.5l1 1l-2 -2q-1 -1 -1 -2q-31 -53 -62 -105.5t-62 -105.5h-1zM111 666q3 11 11 21.5t24 10.5q9 0 18 -5.5t9 -19.5q0 -9 -3.5 -17.5t-8.5 -17.5l1 1l-2 -2q-1 -1 -1 -2q-31 -53 -62 -105.5
t-62 -105.5h-2zM162 639q0 1 1 2zM339 639q0 1 1 2z" />
    <glyph glyph-name="quotedblbase" unicode="&#x201e;" horiz-adv-x="377" 
d="M288 64q3 11 11 21.5t24 10.5q9 0 18.5 -5.5t9.5 -19.5q0 -9 -4 -18t-9 -17l1 1l-2 -2q-1 -1 -1 -2q-31 -53 -62 -105.5t-62 -105.5h-1zM111 64q3 11 11 21.5t24 10.5q9 0 18 -5.5t9 -19.5q0 -9 -3.5 -18t-8.5 -17l1 1l-2 -2q-1 -1 -1 -2q-31 -53 -62 -105.5t-62 -105.5
h-2zM162 37q0 1 1 2zM339 37q0 1 1 2z" />
    <glyph glyph-name="dagger" unicode="&#x2020;" horiz-adv-x="473" 
d="M211 452v59t-0.5 63.5t-1.5 59t-3 47.5q6 -1 14.5 -1.5t15.5 -0.5t15.5 0.5t14.5 1.5q-2 -20 -3 -48.5t-1.5 -61.5t-0.5 -66.5v-62.5q44 0 89 0.5t87 5.5q-1 -5 -1.5 -12.5t-0.5 -13.5t0.5 -12.5t1.5 -12.5q-41 5 -86.5 6t-89.5 1q0 -71 1.5 -151t3.5 -152q1 -26 1 -51.5
t1 -51.5q-8 2 -16 2h-16h-16t-16 -2q1 26 1 52.5t1 50.5q2 74 3.5 151.5t1.5 151.5q-45 0 -89.5 -1t-86.5 -6q1 6 1.5 12.5t0.5 12.5t-0.5 13.5t-1.5 12.5q41 -5 82.5 -5.5t83.5 -0.5z" />
    <glyph glyph-name="daggerdbl" unicode="&#x2021;" horiz-adv-x="476" 
d="M216 340q0 13 -0.5 25.5t-0.5 25.5q-1 14 -1 31.5v31.5q-45 0 -90 -0.5t-87 -5.5q1 5 1.5 11.5t0.5 12.5q0 7 -0.5 14t-1.5 12q41 -5 86 -5.5t90 -0.5q0 33 -1 76.5t-6 112.5q8 -2 16 -2h16h16t16 2q-3 -37 -4.5 -65t-2 -50.5t-0.5 -40.5v-33q44 0 89 0.5t87 5.5
q-1 -5 -1.5 -12t-0.5 -14q0 -6 0.5 -12.5t1.5 -11.5q-41 5 -86.5 5.5t-90.5 0.5q0 -10 -0.5 -29.5t-0.5 -32.5q-1 -13 -1 -26v-26v-27t1 -27q0 -13 0.5 -30t0.5 -31q45 0 90 1t87 6q-1 -6 -1.5 -13t-0.5 -13t0.5 -13t1.5 -12q-41 5 -86.5 5.5t-89.5 0.5q0 -33 1 -76t6 -113
q-8 2 -16 2h-16h-16t-16 -2q3 37 4.5 65.5t2 51t0.5 40v32.5q-45 0 -89.5 -0.5t-86.5 -5.5q1 5 1.5 12t0.5 13t-0.5 13t-1.5 13q41 -5 86.5 -6t90.5 -1v31t1 30q0 14 0.5 27t0.5 27z" />
    <glyph glyph-name="bullet" unicode="&#x2022;" horiz-adv-x="400" 
d="M35 340q0 34 13 63.5t35.5 52t52.5 35.5t64 13t64 -13t52.5 -35.5t35.5 -52t13 -63.5t-13 -64t-35.5 -52.5t-52.5 -35.5t-64 -13t-64 13t-52.5 35.5t-35.5 52.5t-13 64z" />
    <glyph glyph-name="ellipsis" unicode="&#x2026;" horiz-adv-x="862" 
d="M40 36q0 20 14 34t34 14t34.5 -14t14.5 -34t-14.5 -34t-34.5 -14t-34 14t-14 34zM725 36q0 20 14.5 34t34.5 14t34 -14t14 -34t-14 -34t-34 -14t-34.5 14t-14.5 34zM383 36q0 20 14 34t34 14t34 -14t14 -34t-14 -34t-34 -14t-34 14t-14 34z" />
    <glyph glyph-name="perthousand" unicode="&#x2030;" horiz-adv-x="980" 
d="M367 138q0 44 12.5 73.5t32 47.5t43 25.5t46.5 7.5q22 0 46 -7.5t43.5 -25.5t32 -47.5t12.5 -73.5t-12.5 -73.5t-32 -47.5t-43.5 -25.5t-46 -7.5q-23 0 -46.5 7.5t-43 25.5t-32 47.5t-12.5 73.5zM28 517q0 44 12.5 73.5t32 47.5t43 25.5t45.5 7.5t46 -7.5t43.5 -25.5
t32 -47.5t12.5 -73.5q0 -45 -12.5 -74.5t-32 -47.5t-43.5 -25.5t-46 -7.5t-45.5 7.5t-43 25.5t-32 47.5t-12.5 74.5zM701 138q0 44 12.5 73.5t32 47.5t43 25.5t46.5 7.5q22 0 45.5 -7.5t43 -25.5t32 -47.5t12.5 -73.5t-12.5 -73.5t-32 -47.5t-43 -25.5t-45.5 -7.5
q-23 0 -46.5 7.5t-43 25.5t-32 47.5t-12.5 73.5zM417 138q0 -33 4 -60.5t13.5 -47.5t25.5 -31t41 -11t41 11t25.5 31t13.5 47.5t4 60.5t-4 60.5t-13.5 47.5t-25.5 31t-41 11t-41 -11t-25.5 -31t-13.5 -47.5t-4 -60.5zM750 138q0 -33 4 -60.5t13.5 -47.5t26 -31t41.5 -11
q24 0 40.5 11t26 31t13.5 47.5t4 60.5t-4 60.5t-13.5 47.5t-26 31t-40.5 11q-25 0 -41.5 -11t-26 -31t-13.5 -47.5t-4 -60.5zM77 517q0 -33 4 -60.5t13.5 -48t26 -31.5t40.5 -11q25 0 41 11t26 31.5t14 48t4 60.5t-4 60.5t-14 47.5t-26 31t-41 11q-24 0 -40.5 -11t-26 -31
t-13.5 -47.5t-4 -60.5zM512 693q10 -3 20 -3h3q-50 -93 -97.5 -183.5t-94.5 -180t-95 -180t-97 -183.5q-5 2 -9.5 2h-8.5h-5z" />
    <glyph glyph-name="guilsinglleft" unicode="&#x2039;" horiz-adv-x="197" 
d="M132 402q5 -4 11 -8.5t11 -6.5l-110 -156q26 -41 53 -83.5t53 -82.5q-8 -3 -13.5 -6.5t-10.5 -9.5q-30 48 -56 90t-55 88z" />
    <glyph glyph-name="guilsinglright" unicode="&#x203a;" horiz-adv-x="195" 
d="M45 392q8 3 13.5 6.5t10.5 9.5q29 -48 55.5 -90.5t55.5 -88.5q-31 -45 -59 -87l-58 -87q-4 4 -10.5 8.5t-11.5 6.5l110 156z" />
    <glyph glyph-name="fraction" unicode="&#x2044;" horiz-adv-x="329" 
d="M290 680q5 -2 8.5 -2h8.5h7q-35 -91 -69 -178.5t-68 -174t-68.5 -173.5t-69.5 -178q-5 2 -8.5 2h-8.5h-7z" />
    <glyph glyph-name="Euro" unicode="&#x20ac;" horiz-adv-x="577" 
d="M370 671q42 0 87 -13t80 -33q-6 -17 -10.5 -34t-8.5 -33q-13 21 -31 38t-38 28t-41.5 17t-40.5 6q-35 0 -66.5 -15t-57.5 -46t-44.5 -78.5t-27.5 -111.5h183q23 0 48.5 0.5t46.5 2.5q-3 -8 -5.5 -16.5t-4.5 -16.5q-20 4 -44 4.5t-47 0.5h-178q-1 -14 -2 -33t-1 -33v-19
h156q23 0 48.5 0.5t46.5 2.5q-6 -17 -9 -33q-21 3 -45 3.5t-47 0.5h-148q6 -59 24 -105.5t44.5 -78.5t59.5 -48.5t69 -16.5q39 0 80 19t77 52q-3 -13 -4.5 -25.5t-3.5 -23.5q-13 -10 -32 -18.5t-41.5 -14.5t-46 -9.5t-44.5 -3.5q-50 0 -93.5 18t-77 53t-55.5 86t-30 116
q-24 -1 -41 -1t-29 -2q5 19 8 33q7 -2 22.5 -2.5t35.5 -1.5v32q0 11 1.5 26.5t2.5 26.5q-25 -1 -41.5 -1.5t-28.5 -2.5q5 19 8 33q6 -2 24 -2t41 -1q12 58 37 108.5t60.5 87t80 57.5t94.5 21zM545 621l-4 2l-4 2q1 2 2 4.5t2 4.5l4 -13v0zM518 558q2 -4 3 -5l-10 5h7z
M523 82q0 3 1 5l1 -3z" />
    <glyph glyph-name="trademark" unicode="&#x2122;" horiz-adv-x="870" 
d="M663 458q32 57 62.5 113t61.5 115l7 -117q3 -33 7.5 -69.5t9.5 -73.5t9.5 -72.5t9.5 -66.5q-5 1 -8.5 1h-7.5q-6 0 -10.5 -0.5t-9.5 -1.5q-2 38 -5 89.5t-10 103.5l-19 144q-5 -9 -13 -23.5t-16.5 -29.5t-16.5 -29.5t-14 -24.5q-15 -27 -31 -57t-31 -59t-28.5 -56
t-22.5 -48q-15 35 -32.5 69t-34.5 66q-9 17 -17.5 32.5t-16.5 31.5l-65 123l-20 -148q-6 -46 -9.5 -90.5t-4.5 -92.5q-5 2 -7 1.5t-7 -0.5q-6 0 -10 -1q14 63 22.5 127t18.5 138l18 129q27 -57 54.5 -112t59.5 -109l63 -111zM158 672q-29 0 -62.5 -1t-64.5 -3v16
q40 -3 71.5 -4t72.5 -1q36 0 72 1t73 4q-2 -5 -1.5 -4t0.5 -4q0 -2 -0.5 -4t0.5 -4q-33 2 -64 3t-64 1v-155q0 -93 3 -183q1 -14 0.5 -24t0.5 -24q-5 1 -10 1.5t-10 0.5q-6 0 -11.5 -0.5t-10.5 -1.5q2 40 3.5 93.5t1.5 129.5v163zM153 273l-13 10q8 2 13 3v-13zM422 681
q-2 5 -3.5 8.5t-3.5 7.5l9 -6h-1l-1 -10v0zM585 290q1 2 1 3t1 3l7 -12l-10 6h1v0zM787 695l3 -4q-2 -4 -3 -5v9z" />
    <glyph glyph-name="minus" unicode="&#x2212;" horiz-adv-x="593" 
d="M46 267h500v-33h-500v33z" />
    <glyph glyph-name="fi" unicode="&#xfb01;" horiz-adv-x="507" 
d="M290 731q-1 -9 -1.5 -19.5t-0.5 -20.5q-26 13 -52 13t-44 -9.5t-29 -25t-16.5 -36t-5.5 -42.5q0 -10 1 -25.5t3 -33.5t4 -36.5t5 -35.5h62q12 0 21 0.5t20 0.5q-1 -5 -0.5 -5t0.5 -5v-10q-6 0 -12 0.5t-10 0.5q-18 1 -41 1.5t-41 0.5v-222t3 -224q-8 2 -16 2h-16h-17
t-17 -2q7 114 7.5 223t0.5 223q-11 0 -29.5 -0.5t-31.5 -1.5h-11q1 5 0.5 4.5t-0.5 4.5v10q9 0 12.5 -0.5t12.5 -0.5h47q0 31 6 67t17.5 70.5t27 64.5t35.5 50q17 17 44 31t54 14h10q0 -6 -0.5 -13.5t-1.5 -12.5zM397 284q0 44 -1 90.5t-5 88.5q8 -2 16 -2h18h17.5t16.5 2
q-4 -42 -5 -88.5t-1 -90.5v-107q0 -44 1 -90.5t5 -88.5q-8 2 -16.5 2h-17.5h-18t-16 -2q4 42 5 88.5t1 90.5v107zM383 656q0 17 12 29.5t30 12.5t30 -12.5t12 -29.5q0 -18 -12 -30t-30 -12t-30 12t-12 30zM288 691q1 0 1.5 -0.5t1.5 -0.5l-3 -2v3z" />
    <glyph glyph-name="fl" unicode="&#xfb02;" horiz-adv-x="513" 
d="M403 467q0 33 -0.5 71.5t-1 76.5t-2 73t-3.5 62q9 -2 17.5 -2h17.5h18t17 2q-2 -26 -3.5 -60t-2.5 -71.5t-1 -76.5v-75v-186q0 -33 0.5 -71.5t1 -76.5t2 -73t3.5 -62q-8 2 -17 2h-18h-17.5t-17.5 -2q2 26 3.5 60t2 71.5t1 76.5t0.5 75v186zM290 731q-1 -9 -1.5 -19.5
t-0.5 -20.5q-26 13 -52 13t-44 -9.5t-29 -25t-16.5 -36t-5.5 -42.5q0 -10 1 -25.5t3 -33.5t4 -36.5t5 -35.5h62q12 0 21 0.5t20 0.5q-1 -5 -0.5 -5t0.5 -5v-10q-6 0 -12 0.5t-10 0.5q-18 1 -41 1.5t-41 0.5v-222t3 -224q-8 2 -16 2h-16h-17t-17 -2q7 114 7.5 223t0.5 223
q-11 0 -29.5 -0.5t-31.5 -1.5h-11q1 5 0.5 4.5t-0.5 4.5v10q9 0 12.5 -0.5t12.5 -0.5h47q0 31 6 67t17.5 70.5t27 64.5t35.5 50q17 17 44 31t54 14h10q0 -6 -0.5 -13.5t-1.5 -12.5zM288 691q1 0 1.5 -0.5t1.5 -0.5l-3 -2v3z" />
    <glyph glyph-name="LDO" horiz-adv-x="720" 
d="M343 162q0 -2 -1.5 -6t-1.5 -5v-7h-4v10q4 4 7 8zM288 144q4 7 4 18h15q-7 0 -7 -8q0 -25 3 -32h4q2 5 7 14h4v-14h-11q-1 0 -2.5 1t-2.5 3t-2 3h-8q0 1 -2 6t-2 9zM374 110v15q3 0 5 1.5t3 2.5v-13q2 -1 4 -2.5t6 -3.5l1 -16q-6 7 -19 16zM89 627q24 7 64 7q25 0 37 -7
q10 -7 34 -7q19 9 22 18q29 0 33 24l9 4q2 3 7 5q5 0 5 2q5 2 7.5 6.5t10.5 4.5q1 3 7 6q7 2 7 5q32 0 32 18q8 0 13 6q4 7 12 7q1 2 9.5 5t8.5 6q7 0 10 3q12 8 16 8l9 4q7 2 7 7q11 0 22 4q11 3 19 3q0 4 7 8q7 2 8 3l89 19l42 -4l15 -8q7 -3 11 -7q10 -7 31 -18l7 -42
q-42 0 -42 5q-5 0 -14 4t-11 4q0 4 -1.5 5.5t-6.5 4.5h-68q-3 -3 -7 -10q-7 0 -21 -4t-21 -4q-13 -9 -18.5 -9t-14.5 -3q-4 0 -8 -6l-6 -6q-10 -3 -8 -3h-4q-1 -3 -8.5 -5l-7.5 -2q-3 0 -5.5 -2t-6.5 -5t-6 -5q-11 0 -15 -10q-5 0 -6 -2.5t-1 -9.5q-6 0 -13.5 -3.5t-8 -3.5
t-6.5 -4.5t-14 -4.5q-2 -1 -7 -2t-8 -6q-2 -1 -4 -4q-2 -5 -3 -6q-11 0 -11 -8q-4 0 -7 -1.5t-6 -4.5l-5 -5q-15 0 -15 -11q-5 0 -13 -7v-11q-4 -3 -6.5 -4t-4.5 -5v-15q6 -7 11 -7v-48q-6 0 -11 -9v-11q-2 -2 -4 -3q-3 -2 -7 -4v-22q-6 -3 -7 -4.5t-1 -10.5q0 -11 -3 -11
l-7 -7q-9 -4 -10.5 -6t-1.5 -10q-9 -4 -15 -8t-8 -11q-11 -11 -44 -11q-17 11 -35 11q-2 3 -7 11h-15q-3 0 -9 4q-7 4 -13 4q0 11 -11 16q0 7 -4 11q-10 0 -21 -1l-11 -1q-4 0 -11 7q-3 2 -6 2v55q2 3 5 5l6 4l4 83q1 0 2.5 1t2.5 3t2 3v15q5 2 6 6t5 4q0 1 10 4.5t10 7.5
q21 7 26 7zM385 132q-4 5 -7 7q-4 1 -15 1v18q6 -6 18 -14q0 -8 4 -12zM400 132q3 -3 3 -7q-3 3 -10 7h7zM403 125h7q5 2 12 10q6 9 10 9q-1 -4 -3.5 -6t-6.5 -6v-14l6 -4t4 -4q-4 0 -10 -7v-13l7 -7h17q1 -6 4 -10q2 -6 18 -12q3 11 3 22q-9 11 -22 11v31q3 0 11 7l-6 6
q-3 2 -5 6q2 -1 12 -5q6 -2 17 -5q6 -2 19 -2v-22q3 -2 6.5 -3.5t4.5 -3.5q0 -16 4 -20h9q3 3 3 14v6q9 0 13 1.5t9 5.5q-7 8 -11 8v14q3 0 11 8v26q-3 2 -6 3.5t-5 5.5q0 8 -1.5 10t-9.5 5q7 0 12.5 5t6.5 5v-10q0 -8 7 -8q3 -10 4 -11.5t7 -4.5q0 -15 8 -22h3q2 2 4 8t3 6
q20 7 20 24q5 0 18 8v-58h-7q-3 -3 -3 -14q-4 -1 -14 -8q10 -7 32 -7q0 -5 -2 -6.5t-5 -6.5v-36q-4 2 -5.5 3.5t-2 3.5t-3.5 7h-20q0 -2 -2 -6q-2 -6 -2 -8q-4 0 -11 -8q7 0 11 -3v-7q-2 -2 -5 -3.5t-6 -4.5v-16q-19 0 -22 -8v-7l1 -1q0 1 -4 1q0 3 -2 8t-2 7q-18 0 -23 -8
v-7q11 -11 22 -11v-7h-7q-12 -5 -21 -7q-4 -1 -10 -1v15q7 0 7 7q0 35 -3 43h-3q-8 -8 -8 -39q-7 0 -11 -4v-14h-26l-4 -8v-38q-10 0 -24 -4q9 -7 14 -7v-18q-6 2 -6 6q0 3 -7 5h-4q-5 -2 -6 -5q-2 -4 -5 -6v18q3 0 11 7q0 57 -7 64h-4q-1 -1 -3 -2l-1 -1l4 3q-4 4 -11 4
q0 31 -7 39h-4q-6 -3 -5 -21q1 -34 1 -31v-55q0 -1 4 -3t4 -4v-7q0 -1 -3.5 -4.5t-3.5 -6.5h-29v25q0 2 -1 3l-4 2q-2 1 -5 3q-2 7 -7 16h-4q-7 -7 -7 -24q3 -2 7 -3l4 -4v-7q-5 -4 -15 -11q3 0 11 11v7q0 7 -18 7q-15 0 -18 -7v-11q0 4 -7 4q0 10 -5 15q-5 4 -16 7v16l-7 4
h-15v14q-6 8 -11 8q-4 12 -22 18v31q11 3 11 15q2 0 5.5 1.5t5.5 1.5q0 19 -4 22h-7q-3 -3 -3 -14q-5 0 -19 -8v44q4 0 7 2t4 2v38h18v-14q-5 0 -7 -4q-2 -2 -3 -4q29 0 36 8v7l-4 4l4 -4h17q0 -31 3 -35h-9l-7 -7v-15q-6 -2 -7 -3.5t-4 -10.5q-4 0 -11 -8h35v-10
q-9 -4 -13 -8q0 -11 7 -24q10 4 21 17v22h7q1 -12 3 -31h8q4 3 4 16q18 0 21 8v7l-7 7l7 4v14q3 -2 8 -3.5t7 -3.5q0 -8 1 -9.5t5 -8.5q27 0 32 11v9h-1q1 -2 5 -2q6 8 6.5 11t0.5 11q3 0 11 7v20q-7 8 -11 8q0 2 -2 4t-2 3zM617 129q2 -1 3 -2l1 -2h8q0 -3 -4 -7h-3
q-5 4 -5 11zM629 125q0 4 3 7q0 -2 -1 -3q-2 -3 -2 -4zM632 132v50q4 0 11 8v10h15l4 8v22h7v-90q-1 -2 -5 -3q-3 -2 -6 -5v-14l-14 -8q0 19 -8 22h-4zM456 -67q2 -1 3 -2l1 -2v3q-1 1 -4 1zM460 -71q4 -1 9 -8l6 -6q0 7 -7 14h-8zM468 -67q3 9 3 31h15q2 -2 3 -4q0 -4 4 -6
q2 -1 4 -1q-2 -2 -5 -3.5t-6 -3.5v-9q0 -5 -3 -5q-3 1 -6 1h-9zM414 -10q-1 -5 -1 -15v-12q0 -20 -2 -26h-4v49q3 0 7 4zM307 -89l3 -4q0 3 -1 4h-2zM310 -93q4 0 8 -3q-8 0 -8 3zM264 129q-3 0 -7 3v12l-7 7h-15v15q11 0 11 9v7q-1 3 -5.5 5t-5.5 3v10q-6 8 -11 8
q3 0 7 2.5t4 4.5v7q0 3 -4 4q-5 2 -7 4v34h8v-16l3 -7h15v-33q-8 0 -8 -8v-7q0 -3 8 -3v-24q2 -1 6 -4t5 -4v-26zM296 90q4 4 4 20h13q-2 -1 -3.5 -3t-2.5 -4v-31q-1 1 -3 2.5t-4 1.5q0 7 -4 14zM307 72l4.5 -2t6.5 -2h-8q-1 1 -1 2zM318 68q1 7 7 15v-15h-7zM531 237
q2 -2 3 -4l4 -2q2 -1 4 -1l1 -15h-18q0 8 -1.5 10t-11.5 5q0 34 -4 42h-3q-4 -2 -5 -8q-2 -6 -3 -7h-4v15h15q1 6 4 14h9v-14q8 -8 11 -8zM511 305q0 7 -6 7q-8 -7 -12 -7v14h15q0 -3 1.5 -8t1.5 -6zM300 290h-12q0 -2 -1.5 -6t-1.5 -5q-27 -7 -28 -7v25h15l7 8v14
q27 0 31 20q18 5 22 22h15q0 -29 7 -34h4q6 5 6 20q7 4 10 7v15q9 -8 11 -8h8q-1 0 7 8q0 -18 7 -22h4l3.5 7l3.5 7h15q1 -5 4 -11q1 -1 9 -3q-14 0 -14 -8v-7q4 -5 36 -5v-15h-39q-2 2 -3 8q-3 6 -4 7h-4q-2 -5 -7 -15h-4q-2 3 -7 15h-15q0 -6 -3 -15h-8q0 4 -3 15h-28
q-2 -6 -7 -15q-10 0 -20 -8z" />
    </font>
</defs>
</svg>
