<?xml version="1.0" encoding="UTF-8" standalone="no"?>
<svg
   xmlns:dc="http://purl.org/dc/elements/1.1/"
   xmlns:cc="http://creativecommons.org/ns#"
   xmlns:rdf="http://www.w3.org/1999/02/22-rdf-syntax-ns#"
   xmlns:svg="http://www.w3.org/2000/svg"
   xmlns="http://www.w3.org/2000/svg"
   xmlns:sodipodi="http://sodipodi.sourceforge.net/DTD/sodipodi-0.dtd"
   xmlns:inkscape="http://www.inkscape.org/namespaces/inkscape"
   inkscape:version="1.0 (4035a4f, 2020-05-01)"
   sodipodi:docname="logo-padded.svg"
   viewBox="0 0 791.23999 167.46826"
   height="167.46826"
   width="791.23999"
   xml:space="preserve"
   id="svg198"
   version="1.1"><metadata
     id="metadata204"><rdf:RDF><cc:Work
         rdf:about=""><dc:format>image/svg+xml</dc:format><dc:type
           rdf:resource="http://purl.org/dc/dcmitype/StillImage" /><dc:title></dc:title></cc:Work></rdf:RDF></metadata><defs
     id="defs202"><clipPath
       id="clipPath222"
       clipPathUnits="userSpaceOnUse"><path
         id="path220"
         d="M 0,720 H 720 V 0 H 0 Z" /></clipPath></defs><sodipodi:namedview
     inkscape:current-layer="g206"
     inkscape:window-maximized="0"
     inkscape:window-y="361"
     inkscape:window-x="0"
     inkscape:cy="83.733987"
     inkscape:cx="395.61987"
     inkscape:zoom="0.65070007"
     fit-margin-bottom="50"
     fit-margin-right="50"
     fit-margin-top="50"
     lock-margins="true"
     fit-margin-left="50"
     showgrid="false"
     id="namedview200"
     inkscape:window-height="872"
     inkscape:window-width="1204"
     inkscape:pageshadow="2"
     inkscape:pageopacity="0"
     guidetolerance="10"
     gridtolerance="10"
     objecttolerance="10"
     borderopacity="1"
     bordercolor="#666666"
     pagecolor="#ffffff" /><g
     transform="matrix(1.3333333,0,0,-1.3333333,-84.38013,563.73399)"
     inkscape:label="tru health (1)"
     inkscape:groupmode="layer"
     id="g206"><g
       transform="translate(119.5569,381.7445)"
       id="g208"><path
         id="path210"
         style="fill:#231f20;fill-opacity:1;fill-rule:nonzero;stroke:none"
         d="M 0,0 H -18.272 V 2.8 H 21.282 V 0 H 3.01 V -46.205 H 0 Z" /></g><g
       transform="translate(123.0671,335.0395)"
       id="g212"><path
         id="path214"
         style="fill:#231f20;fill-opacity:1;fill-rule:nonzero;stroke:none"
         d="m 0,0 h -4.01 v 46.205 h -18.272 v 3.8 h 40.554 v -3.8 H 0 Z" /></g><g
       id="g216"><g
         clip-path="url(#clipPath222)"
         id="g218"><g
           transform="translate(165.7107,384.9085)"
           id="g224"><path
             id="path226"
             style="fill:#231f20;fill-opacity:1;fill-rule:nonzero;stroke:none"
             d="m 0,0 h 4.119 v -9.316 c 0,-2.256 -0.393,-4.021 -0.393,-4.021 h 0.197 c 2.451,7.551 12.943,13.729 20.69,13.729 1.471,0 2.844,-0.294 2.844,-0.294 v -4.119 c 0,0 -1.177,0.196 -2.256,0.196 -7.649,0 -17.454,-6.472 -19.612,-13.729 -1.078,-3.432 -1.47,-7.061 -1.47,-10.297 V -49.032 H 0 Z" /></g><g
           transform="translate(217.6148,384.9085)"
           id="g228"><path
             id="path230"
             style="fill:#231f20;fill-opacity:1;fill-rule:nonzero;stroke:none"
             d="m 0,0 h 4.119 v -29.616 c 0,-8.531 1.078,-16.572 12.062,-16.572 12.258,0 20.103,10.786 20.103,22.26 V 0 h 4.119 v -49.032 h -4.119 v 8.629 c 0,2.256 0.393,4.021 0.393,4.021 H 36.48 C 34.813,-40.991 28.047,-50.209 16.181,-50.209 4.119,-50.209 0,-43.541 0,-31.086 Z" /></g><g
           transform="translate(283.5042,384.5443)"
           id="g232"><path
             id="path234"
             style="fill:#231f20;fill-opacity:1;fill-rule:nonzero;stroke:none"
             d="M 0,0 H 3.011 V -23.032 H 34.094 V 0 h 3.01 v -49.005 h -3.01 v 23.172 H 3.011 V -49.005 H 0 Z" /></g><g
           transform="translate(321.1082,335.0395)"
           id="g236"><path
             id="path238"
             style="fill:#231f20;fill-opacity:1;fill-rule:nonzero;stroke:none"
             d="M 0,0 H -4.01 V 23.172 H -34.093 V 0 h -4.011 v 50.005 h 4.011 V 26.973 H -4.01 V 50.005 H 0 Z" /></g><g
           transform="translate(385.0117,364.4419)"
           id="g240"><path
             id="path242"
             style="fill:#231f20;fill-opacity:1;fill-rule:nonzero;stroke:none"
             d="m 0,0 c -0.484,11.781 -7.533,17.092 -15.548,17.092 -8.884,0 -17.092,-5.794 -18.83,-17.092 z m -15.451,20.858 c 13.133,0 19.7,-10.332 19.7,-22.017 0,-1.062 -0.194,-2.607 -0.194,-2.607 h -38.723 c 0,-14.002 9.463,-22.017 20.665,-22.017 9.271,0 14.968,6.083 14.968,6.083 l 2.221,-3.38 c 0,0 -6.76,-6.662 -17.189,-6.662 -13.616,0 -24.914,9.849 -24.914,25.203 0,16.32 11.105,25.397 23.466,25.397" /></g><g
           transform="translate(429.32,338.4653)"
           id="g244"><path
             id="path246"
             style="fill:#231f20;fill-opacity:1;fill-rule:nonzero;stroke:none"
             d="m 0,0 c 10.526,0 16.512,10.912 16.512,20.473 v 2.607 h -3.09 c -8.208,0 -25.783,0 -25.783,-12.554 C -12.361,5.408 -8.209,0 0,0 m 13.325,26.845 h 3.187 v 1.643 c 0,10.718 -5.504,14.388 -13.229,14.388 -8.402,0 -13.809,-4.635 -13.809,-4.635 l -2.318,3.283 c 0,0 5.794,5.311 16.319,5.311 11.106,0 17.093,-6.18 17.093,-18.251 V -2.607 h -4.056 v 6.373 c 0,2.608 0.387,4.346 0.387,4.346 h -0.193 c 0.096,0 -4.345,-11.878 -16.9,-11.878 -7.821,0 -16.417,4.345 -16.417,14.002 0,16.417 21.342,16.609 29.936,16.609" /></g><g
           transform="translate(476.8596,384.5443)"
           id="g248"><path
             id="path250"
             style="fill:#231f20;fill-opacity:1;fill-rule:nonzero;stroke:none"
             d="m 0,0 h 2.94 v -41.024 c 0,-4.901 2.521,-5.46 4.131,-5.46 0.56,0 21.05,0.069 21.05,0.069 v -2.73 c 0,0 -20.63,-0.14 -21.261,-0.14 -2.029,0 -6.86,0.77 -6.86,7.351 z" /></g><g
           transform="translate(483.72,334.7592)"
           id="g252"><path
             id="path254"
             style="fill:#231f20;fill-opacity:1;fill-rule:nonzero;stroke:none"
             d="m 0,0 c -1.727,0 -7.36,0.566 -7.36,7.851 v 42.434 h 3.94 V 8.761 c 0,-4.446 2.072,-4.96 3.631,-4.96 0.56,0 21.048,0.07 21.048,0.07 l 0.502,10e-4 V 0.144 L 21.264,0.14 C 20.422,0.134 0.625,0 0,0" /></g><g
           transform="translate(539.0361,381.7445)"
           id="g256"><path
             id="path258"
             style="fill:#231f20;fill-opacity:1;fill-rule:nonzero;stroke:none"
             d="M 0,0 H -18.271 V 2.8 H 21.282 V 0 H 3.01 V -46.205 H 0 Z" /></g><g
           transform="translate(542.5461,335.0395)"
           id="g260"><path
             id="path262"
             style="fill:#231f20;fill-opacity:1;fill-rule:nonzero;stroke:none"
             d="m 0,0 h -4.01 v 46.205 h -18.271 v 3.8 h 40.553 v -3.8 H 0 Z" /></g><g
           transform="translate(581.6106,384.5443)"
           id="g264"><path
             id="path266"
             style="fill:#231f20;fill-opacity:1;fill-rule:nonzero;stroke:none"
             d="M 0,0 H 3.011 V -23.032 H 34.094 V 0 h 3.01 v -49.005 h -3.01 v 23.172 H 3.011 V -49.005 H 0 Z" /></g><g
           transform="translate(619.2151,335.0395)"
           id="g268"><path
             id="path270"
             style="fill:#231f20;fill-opacity:1;fill-rule:nonzero;stroke:none"
             d="M 0,0 H -4.011 V 23.172 H -34.094 V 0 h -4.01 v 50.005 h 4.01 V 26.973 H -4.011 V 50.005 H 0 Z" /></g></g></g></g></svg>
